<!-- icon666.com - MILLIONS vector ICONS FREE --><svg version="1.1" id="Capa_1" xmlns="http://www.w3.org/2000/svg" xmlns:xlink="http://www.w3.org/1999/xlink" x="0px" y="0px" viewBox="0 0 512 512" style="enable-background:new 0 0 512 512;" xml:space="preserve"><g><g><path d="M416,43.5H27.5C12.336,43.5,0,55.837,0,71v35.5c0,4.143,3.358,7.5,7.5,7.5s7.5-3.357,7.5-7.5V71 c0-6.893,5.607-12.5,12.5-12.5H416c4.143,0,7.5-3.357,7.5-7.5S420.143,43.5,416,43.5z" fill="#ffffff"></path></g></g><g><g><path d="M504.5,370.5c4.143,0,7.5-3.357,7.5-7.5V71c0-15.163-12.337-27.5-27.5-27.5h-36.833c-4.143,0-7.5,3.357-7.5,7.5 s3.357,7.5,7.5,7.5H484.5c6.893,0,12.5,5.607,12.5,12.5v162.7c-0.819-0.118-1.649-0.2-2.5-0.2H482V81c0-4.143-3.357-7.5-7.5-7.5 h-437c-4.142,0-7.5,3.357-7.5,7.5v280c0,4.143,3.358,7.5,7.5,7.5H351v15H27.5c-6.893,0-12.5-5.607-12.5-12.5V140 c0-4.143-3.358-7.5-7.5-7.5S0,135.857,0,140v231c0,15.163,12.336,27.5,27.5,27.5h171v25h-58.75 c-6.009,0-11.661,2.343-15.913,6.597c-4.248,4.248-6.587,9.896-6.587,15.903c0,12.406,10.093,22.5,22.5,22.5H494.5 c9.649,0,17.5-7.851,17.5-17.5v-56.25c0-4.143-3.357-7.5-7.5-7.5s-7.5,3.357-7.5,7.5v18.75H366V251c0-1.379,1.121-2.5,2.5-2.5h126 c1.379,0,2.5,1.121,2.5,2.5v112C497,367.143,500.357,370.5,504.5,370.5z M313.5,398.5H351v25h-37.5V398.5z M213.5,398.5h85v25h-85 V398.5z M139.75,453.5c-4.136,0-7.5-3.364-7.5-7.5c0-2.001,0.779-3.882,2.194-5.297c1.42-1.421,3.304-2.203,5.306-2.203H351V451 c0,0.851,0.082,1.681,0.2,2.5H139.75z M497,428.5V451c0,1.379-1.121,2.5-2.5,2.5h-126c-1.379,0-2.5-1.121-2.5-2.5v-22.5H497z M467,233.5h-98.5c-9.649,0-17.5,7.851-17.5,17.5v102.5H45v-265h422V233.5z" fill="#ffffff"></path></g></g><g><g><path d="M274.457,122.189H72.375c-4.142,0-7.5,3.357-7.5,7.5v167.234c0,4.143,3.358,7.5,7.5,7.5h202.082 c4.143,0,7.5-3.357,7.5-7.5V129.689C281.957,125.547,278.6,122.189,274.457,122.189z M266.957,289.423H79.875V167.189h187.082 V289.423z M266.957,152.189H79.875v-15h187.082V152.189z" fill="#ffffff"></path></g></g><g><g><path d="M438.64,122.189h-124c-4.143,0-7.5,3.357-7.5,7.5v30c0,4.143,3.357,7.5,7.5,7.5h124c4.143,0,7.5-3.357,7.5-7.5v-30 C446.14,125.547,442.782,122.189,438.64,122.189z M431.14,152.189h-109v-15h109V152.189z" fill="#ffffff"></path></g></g><g><g><path d="M438.64,175.807h-124c-4.143,0-7.5,3.357-7.5,7.5v30c0,4.143,3.357,7.5,7.5,7.5h124c4.143,0,7.5-3.357,7.5-7.5v-30 C446.14,179.164,442.782,175.807,438.64,175.807z M431.14,205.807h-109v-15h109V205.807z" fill="#ffffff"></path></g></g><g><g><path d="M474.5,261.5h-82c-4.143,0-7.5,3.357-7.5,7.5v78c0,4.143,3.357,7.5,7.5,7.5h82c4.143,0,7.5-3.357,7.5-7.5v-78 C482,264.857,478.643,261.5,474.5,261.5z M467,339.5h-67v-63h67V339.5z" fill="#ffffff"></path></g></g></svg>