<svg width="40" height="40" viewBox="0 0 40 40" fill="none" xmlns="http://www.w3.org/2000/svg">
<mask id="mask0_1_65" style="mask-type:luminance" maskUnits="userSpaceOnUse" x="9" y="1" width="25" height="39">
<path d="M11.6667 25V33.3333C11.6667 38.3333 18.3333 38.3333 18.3333 33.3333V25M18.3333 30.8333H11.6667" stroke="white" stroke-width="4" stroke-linecap="round" stroke-linejoin="round"/>
<path d="M11.6667 4.99998C11.6667 4.55795 11.8423 4.13403 12.1548 3.82147C12.4674 3.50891 12.8913 3.33331 13.3333 3.33331H27.1958C27.4617 3.33331 27.7225 3.39581 27.9358 3.55415C28.785 4.18748 30.9983 6.31831 31.6667 11.6666C32.3108 16.8183 30.5258 21.97 29.6817 24.0458C29.4417 24.6375 28.8608 25 28.2233 25H11.6667V4.99998Z" fill="white" stroke="white" stroke-width="4"/>
<path d="M18.3333 9.99996C19.2538 9.99996 20 9.25377 20 8.33329C20 7.41282 19.2538 6.66663 18.3333 6.66663C17.4128 6.66663 16.6667 7.41282 16.6667 8.33329C16.6667 9.25377 17.4128 9.99996 18.3333 9.99996Z" fill="black"/>
</mask>
<g mask="url(#mask0_1_65)">
<path d="M0 0H40V40H0V0Z" fill="#FFD362"/>
</g>
</svg>
