<svg viewBox="0 0 512 512" xmlns="http://www.w3.org/2000/svg"><path d="M166.544 269.268h182.2v102.816h-182.2z" fill="#544f56"/><path d="M427.817 398.566a50.327 50.327 0 0 0-27.792-26.983l-87.902-34.662a12.58 12.58 0 0 1-7.966-11.703v-58.401h-96.314v58.401c0 5.167-3.159 9.808-7.966 11.703l-87.903 34.662a50.327 50.327 0 0 0-27.792 26.983 246.288 246.288 0 0 0-19.936 97.068 8.866 8.866 0 0 0 8.866 8.866h365.773a8.866 8.866 0 0 0 8.866-8.866 246.25 246.25 0 0 0-19.934-97.068z" fill="#ffeee5"/><path d="M427.817 398.566a50.327 50.327 0 0 0-27.792-26.983l-87.903-34.662a12.58 12.58 0 0 1-7.966-11.704v-29.106h-28.961v39.725c0 5.167 3.159 9.808 7.966 11.704l87.903 34.662a50.327 50.327 0 0 1 27.792 26.983 246.26 246.26 0 0 1 19.913 95.315h20.117a8.866 8.866 0 0 0 8.866-8.866 246.27 246.27 0 0 0-19.935-97.068z" fill="#ffdecf"/><path d="M427.817 398.566a50.327 50.327 0 0 0-27.792-26.983l-80.67-31.81-6.547 5.281c-33.719 27.199-81.97 26.742-115.168-1.092l-4.996-4.189-80.67 31.81c-12.34 4.866-22.353 14.366-27.604 26.547a246.29 246.29 0 0 0-20.124 97.505 8.866 8.866 0 0 0 8.866 8.866h365.774a8.866 8.866 0 0 0 8.866-8.866 246.27 246.27 0 0 0-19.935-97.069z" fill="#544f56"/><path d="M427.817 398.566a50.327 50.327 0 0 0-27.792-26.983l-80.67-31.81-6.547 5.281a90.905 90.905 0 0 1-13.095 8.804l70.312 27.726a50.327 50.327 0 0 1 27.792 26.983 246.279 246.279 0 0 1 19.921 95.934h21.149a8.865 8.865 0 0 0 8.865-8.865 246.29 246.29 0 0 0-19.935-97.07z" fill="#444145"/><path d="M166.544 66.554h182.2V169.37h-182.2z" fill="#d79b8c"/><path d="M338.43 86.438c-13.445 6.135-27.55 51.162-83.813 51.162-53.485 0-68.877-44.709-81.989-50.353-16.133-6.944-49.304 172.647 32.941 217.919 30.889 17.003 70.125 17.003 101.014 0 82.244-45.272 47.552-225.894 31.847-218.728z" fill="#ffeee5"/><path d="M338.43 86.438c-5.175 2.361-10.45 10.484-18.186 19.584 13.542 46.983 20.27 163.953-43.661 199.144-11.025 6.069-23.115 9.96-35.507 11.696 22.328 3.129 45.643-.761 65.507-11.696 82.244-45.272 47.552-225.894 31.847-218.728z" fill="#ffdecf"/><path d="M256 7.5c-85.164 0-166.921 33.222-166.921 175.715C89.079 390.273 256 408.629 256 408.629s166.921-18.356 166.921-225.415C422.921 40.722 341.164 7.5 256 7.5zm0 359.692s-97.757-12.854-97.757-157.845c0-99.78 47.881-123.043 97.757-123.043s97.757 23.264 97.757 123.043c0 144.991-97.757 157.845-97.757 157.845z" fill="#544f56"/><path d="M241 87.076c-4.949-.529-9.964-.772-15-.772-49.876 0-97.757 23.264-97.757 123.043 0 144.991 97.757 157.845 97.757 157.845s5.991-.792 15-4.173c-27.399-10.284-82.757-44.559-82.757-153.672 0-89.704 38.7-117.559 82.757-122.271zM256 7.5c-5.018 0-10.022.12-15 .367 79.512 3.932 151.921 41.251 151.921 175.348C392.921 352.008 282 395.398 241 405.671c9.295 2.329 15 2.958 15 2.958s166.921-18.356 166.921-225.415C422.921 40.723 341.164 7.5 256 7.5z" fill="#444145"/><path d="M434.709 395.61c-6.038-14.083-17.677-25.383-31.933-31.004l-29.328-11.564c11.805-13.027 21.871-27.683 30.079-43.859 17.846-35.166 26.894-77.548 26.894-125.968C430.421 61.643 371.737 0 256 0c-34.739 0-64.634 5.573-88.855 16.565-29.528 13.4-51.714 35.2-65.94 64.793a7.5 7.5 0 0 0 3.511 10.009 7.498 7.498 0 0 0 10.009-3.51C138.292 38.832 184.504 15 256 15c48.243 0 84.411 10.685 110.572 32.665 32.414 27.234 48.849 72.839 48.849 135.55 0 45.846-8.432 85.806-25.06 118.768-13.214 26.191-31.64 48.102-54.767 65.122-14.429 10.619-28.943 18.005-41.6 23.12-5.487-3.647-9.286-5.58-9.582-5.729a7.493 7.493 0 0 0-10.061 3.322 7.504 7.504 0 0 0 1.451 8.741c-10.176 2.979-17.444 4.169-19.8 4.506-1.822-.261-6.555-1.028-13.276-2.725.505-.277.801-.431.838-.45a7.5 7.5 0 0 0-6.751-13.395c-.353.177-5.673 2.883-12.9 8.007-13.929-5.115-30.776-13.085-47.506-25.398-23.127-17.02-41.553-38.931-54.767-65.122-16.629-32.962-25.061-72.921-25.061-118.768 0-25.473 2.714-48.346 8.066-67.982a7.5 7.5 0 0 0-14.473-3.944c-5.702 20.921-8.594 45.121-8.594 71.926 0 48.419 9.048 90.801 26.894 125.968 8.208 16.176 18.274 30.832 30.079 43.859l-29.328 11.564c-14.255 5.621-25.894 16.921-31.933 31.004-13.632 31.787-20.544 65.44-20.544 100.024 0 9.024 7.342 16.366 16.366 16.366h202.083c4.143 0 7.5-3.358 7.5-7.5s-3.357-7.5-7.5-7.5H152.081c.02-7.633 1.374-20.14 3.761-29.875a7.5 7.5 0 0 0-14.568-3.572c-2.542 10.365-4.172 23.973-4.185 33.448H73.113a1.368 1.368 0 0 1-1.366-1.366c0-32.54 6.503-64.204 19.329-94.112 4.474-10.43 13.093-18.799 23.649-22.962l35.267-13.906a196.453 196.453 0 0 0 18.124 14.972c14.709 10.74 29.367 18.379 42.348 23.789-.462.43-.925.865-1.388 1.309-18.467 17.703-28.228 38.373-28.228 59.776 0 4.142 3.357 7.5 7.5 7.5s7.5-3.358 7.5-7.5c0-25.17 17.01-44.027 30.719-55.14 16.447 5.307 27.712 6.626 28.613 6.725a7.465 7.465 0 0 0 1.638 0c1.015-.111 15.16-1.769 35.047-8.92 14.064 10.728 33.507 30.426 33.507 57.335 0 4.142 3.357 7.5 7.5 7.5s7.5-3.358 7.5-7.5c0-21.403-9.761-42.073-28.227-59.776a124.684 124.684 0 0 0-4.402-4.018c11.36-5.17 23.73-12.02 36.138-21.08a196.354 196.354 0 0 0 18.138-14.986c.108.048.211.103.323.146l34.93 13.773c10.557 4.163 19.177 12.532 23.65 22.962 12.825 29.909 19.328 61.573 19.328 94.112 0 .753-.613 1.366-1.366 1.366h-64.523c-.013-9.475-1.644-23.082-4.185-33.448a7.5 7.5 0 0 0-14.568 3.572c2.387 9.735 3.741 22.243 3.761 29.875h-54.175c-4.143 0-7.5 3.358-7.5 7.5s3.357 7.5 7.5 7.5h133.69c9.024 0 16.366-7.342 16.366-16.366.003-34.582-6.909-68.235-20.541-100.022z"/><path d="M202.189 348.291c25.85 22.569 51.744 26.194 52.834 26.337a7.433 7.433 0 0 0 1.955 0c1.09-.143 26.984-3.768 52.834-26.337 15.051-13.141 27.02-30.024 35.575-50.182 10.53-24.814 15.87-54.677 15.87-88.762 0-86.622-35.413-130.543-105.257-130.543s-105.257 43.921-105.257 130.543c0 34.084 5.34 63.948 15.87 88.762 8.556 20.158 20.525 37.041 35.576 50.182zm-1.846-23.251c-6.838-8.116-12.693-17.386-17.541-27.719 5.318 5.292 11.168 9.792 17.541 13.484zM256 359.603c-8.422-1.448-27.09-7.788-44.264-22.896a20.013 20.013 0 0 0 3.607-11.49v-7.281c12.809 4.914 26.652 7.481 40.732 7.481 14.025 0 27.815-2.549 40.582-7.425v7.224c0 4.192 1.291 8.176 3.607 11.49-17.174 15.109-35.842 21.449-44.264 22.897zm55.657-34.563v-14.15c6.324-3.655 12.176-8.174 17.515-13.513-4.843 10.31-10.689 19.561-17.515 27.663zm-3.041-217.359c-10.87 11.121-26.848 22.419-53.999 22.419-25.426 0-41.077-11.017-51.935-21.954 13.674-9.633 31.238-14.343 53.317-14.343 21.711.001 39.044 4.569 52.617 13.878zm-117.165 10.442c12.296 12.545 31.667 26.977 63.167 26.977 33.407 0 53.098-14.851 65.374-27.604 17.431 18.854 26.266 49.735 26.266 91.85 0 10.064-.508 19.719-1.496 28.955-5.583 20.209-17.347 46.837-41.795 60.294-28.483 15.68-65.295 15.68-93.78 0-19.411-10.686-33.403-30.61-41.587-59.221l-.002-.007-.332-1.177c-.015-.055-.037-.106-.053-.16-.969-9.154-1.468-18.717-1.468-28.683-.002-41.658 8.648-72.317 25.706-91.224z"/></svg>