<svg width="255" height="46" fill="none" xmlns="http://www.w3.org/2000/svg"><path d="m13.9.4 4 3.8c1.5 1.4 2.3 3.3 2.3 5.4 0 2 .8 3.9 2.2 5.3l.5.5L27.5.5M.3 13.7l5.5-.2c2-.1 4 .7 5.4 2.1 1.4 1.4 3.3 2.1 5.3 2.1h.7L9.8 4M.3 32.7l3.7-4c1.4-1.5 3.3-2.4 5.3-2.4s3.8-.9 5.2-2.3l.5-.5-15-4.3M13.9 45.9l-.3-5.5c-.1-2 .6-4 2-5.5 1.3-1.4 2.1-3.4 2-5.3v-.7L4 36.6M32.9 45.5l-4.1-3.6c-1.5-1.3-2.4-3.2-2.5-5.3-.1-2-1-3.8-2.4-5.2l-.5-.5-4 15.1M45.9 31.6l-5.5.4c-2 .2-4-.5-5.5-1.9-1.5-1.3-3.4-2-5.4-1.9h-.7l8 13.4M45 12.7l-3.5 4.2c-1.3 1.5-3.2 2.5-5.2 2.6-2 .1-3.8 1-5.1 2.5l-.4.5L46 26.1M30.9 0l.5 5.5c.2 2-.4 4-1.8 5.6-1.3 1.5-1.9 3.4-1.8 5.4l.1.7 13.2-8.3" fill="#EF3F4F"/><path d="M86.928 34.284c-2.728 0-4.898-.744-6.51-2.232C78.806 30.543 78 28.394 78 25.604v-5.208c0-2.79.806-4.93 2.418-6.417 1.612-1.509 3.782-2.263 6.51-2.263 2.728 0 4.898.754 6.51 2.263 1.612 1.488 2.418 3.627 2.418 6.417v5.208c0 2.79-.806 4.94-2.418 6.448-1.612 1.488-3.782 2.232-6.51 2.232Zm0-3.658c1.53 0 2.718-.444 3.565-1.333s1.271-2.077 1.271-3.565v-5.456c0-1.488-.424-2.676-1.271-3.565-.847-.889-2.036-1.333-3.565-1.333-1.509 0-2.697.444-3.565 1.333-.847.889-1.271 2.077-1.271 3.565v5.456c0 1.488.424 2.676 1.271 3.565.868.889 2.056 1.333 3.565 1.333ZM99.57 33.85V18.474h3.843v2.015h.558c.248-.537.713-1.044 1.395-1.52.682-.495 1.716-.743 3.1-.743 1.199 0 2.243.279 3.131.837a5.437 5.437 0 0 1 2.108 2.263c.496.95.744 2.067.744 3.348v9.176h-3.906v-8.866c0-1.157-.289-2.025-.868-2.604-.558-.579-1.364-.868-2.418-.868-1.198 0-2.128.403-2.79 1.209-.661.785-.992 1.89-.992 3.317v7.812h-3.906ZM118.672 33.85v-21.7h3.906v21.7h-3.906ZM126.906 33.85V18.474h3.906V33.85h-3.906Zm1.953-17.174c-.703 0-1.302-.227-1.798-.682-.475-.455-.713-1.054-.713-1.798s.238-1.343.713-1.798c.496-.455 1.095-.682 1.798-.682.723 0 1.323.227 1.798.682.475.455.713 1.054.713 1.798s-.238 1.343-.713 1.798c-.475.455-1.075.682-1.798.682ZM135.141 33.85V18.474h3.844v2.015h.558c.248-.537.713-1.044 1.395-1.52.682-.495 1.715-.743 3.1-.743 1.198 0 2.242.279 3.131.837a5.444 5.444 0 0 1 2.108 2.263c.496.95.744 2.067.744 3.348v9.176h-3.906v-8.866c0-1.157-.29-2.025-.868-2.604-.558-.579-1.364-.868-2.418-.868-1.199 0-2.129.403-2.79 1.209-.662.785-.992 1.89-.992 3.317v7.812h-3.906ZM161.249 34.284c-1.529 0-2.883-.32-4.061-.961a7.143 7.143 0 0 1-2.728-2.76c-.641-1.198-.961-2.603-.961-4.215v-.372c0-1.612.32-3.007.961-4.185.641-1.199 1.54-2.118 2.697-2.76 1.157-.66 2.501-.991 4.03-.991 1.509 0 2.821.34 3.937 1.023 1.116.661 1.984 1.591 2.604 2.79.62 1.178.93 2.552.93 4.123v1.333h-11.191c.041 1.054.434 1.912 1.178 2.573s1.653.992 2.728.992c1.095 0 1.901-.238 2.418-.713a5.017 5.017 0 0 0 1.178-1.581l3.193 1.674c-.289.537-.713 1.126-1.271 1.767-.537.62-1.261 1.157-2.17 1.612-.909.434-2.067.65-3.472.65Zm-3.751-9.89h7.192c-.083-.888-.444-1.6-1.085-2.138-.62-.537-1.436-.806-2.449-.806-1.054 0-1.891.269-2.511.806-.62.537-1.002 1.25-1.147 2.139ZM178.521 34.284c-2.005 0-3.648-.434-4.929-1.302-1.282-.868-2.057-2.108-2.325-3.72l3.596-.93c.144.723.382 1.292.713 1.705a3.05 3.05 0 0 0 1.271.899 5.455 5.455 0 0 0 1.674.248c.909 0 1.581-.155 2.015-.465.434-.33.651-.734.651-1.21 0-.474-.207-.836-.62-1.084-.414-.269-1.075-.486-1.984-.651l-.868-.155a16.426 16.426 0 0 1-2.945-.837c-.889-.372-1.602-.878-2.139-1.52-.538-.64-.806-1.466-.806-2.48 0-1.528.558-2.696 1.674-3.502 1.116-.827 2.583-1.24 4.402-1.24 1.715 0 3.141.382 4.278 1.147 1.136.765 1.88 1.767 2.232 3.007l-3.627 1.116c-.166-.785-.507-1.343-1.023-1.674-.496-.33-1.116-.496-1.86-.496s-1.313.134-1.705.403c-.393.248-.589.6-.589 1.054 0 .496.206.868.62 1.116.413.227.971.403 1.674.527l.868.155a17.66 17.66 0 0 1 3.131.837c.95.33 1.694.816 2.232 1.457.558.62.837 1.467.837 2.542 0 1.612-.589 2.862-1.767 3.75-1.158.869-2.718 1.303-4.681 1.303ZM193.979 33.85c-1.013 0-1.84-.31-2.48-.93-.62-.64-.93-1.488-.93-2.542v-8.68h-3.844v-3.224h3.844V13.7h3.906v4.774h4.216v3.224h-4.216v7.998c0 .62.289.93.868.93h2.976v3.224h-4.34ZM208.688 34.284c-1.53 0-2.883-.32-4.061-.961a7.136 7.136 0 0 1-2.728-2.76c-.641-1.198-.961-2.603-.961-4.215v-.372c0-1.612.32-3.007.961-4.185.64-1.199 1.539-2.118 2.697-2.76 1.157-.66 2.5-.991 4.03-.991 1.508 0 2.821.34 3.937 1.023 1.116.661 1.984 1.591 2.604 2.79.62 1.178.93 2.552.93 4.123v1.333h-11.191c.041 1.054.434 1.912 1.178 2.573s1.653.992 2.728.992c1.095 0 1.901-.238 2.418-.713a5.032 5.032 0 0 0 1.178-1.581l3.193 1.674c-.29.537-.713 1.126-1.271 1.767-.538.62-1.261 1.157-2.17 1.612-.91.434-2.067.65-3.472.65Zm-3.751-9.89h7.192c-.083-.888-.445-1.6-1.085-2.138-.62-.537-1.437-.806-2.449-.806-1.054 0-1.891.269-2.511.806-.62.537-1.003 1.25-1.147 2.139ZM219.573 33.85V18.474h3.844v2.015h.558c.248-.537.713-1.044 1.395-1.52.682-.495 1.715-.743 3.1-.743 1.199 0 2.242.279 3.131.837a5.444 5.444 0 0 1 2.108 2.263c.496.95.744 2.067.744 3.348v9.176h-3.906v-8.866c0-1.157-.289-2.025-.868-2.604-.558-.579-1.364-.868-2.418-.868-1.199 0-2.129.403-2.79 1.209-.661.785-.992 1.89-.992 3.317v7.812h-3.906ZM244.876 34.284a6.95 6.95 0 0 1-3.441-.9c-1.054-.62-1.902-1.518-2.542-2.696-.641-1.178-.961-2.604-.961-4.278v-.496c0-1.674.32-3.1.961-4.278.64-1.178 1.488-2.067 2.542-2.666a6.666 6.666 0 0 1 3.441-.93c.93 0 1.705.114 2.325.34.64.208 1.157.476 1.55.807.392.33.692.682.899 1.054h.558V12.15h3.906v21.7h-3.844v-1.86h-.558c-.352.579-.899 1.106-1.643 1.58-.724.476-1.788.714-3.193.714Zm1.178-3.41c1.198 0 2.201-.382 3.007-1.147.806-.785 1.209-1.922 1.209-3.41v-.31c0-1.488-.403-2.614-1.209-3.38-.786-.784-1.788-1.177-3.007-1.177-1.199 0-2.201.393-3.007 1.178-.806.765-1.209 1.89-1.209 3.379v.31c0 1.488.403 2.625 1.209 3.41.806.765 1.808 1.147 3.007 1.147Z" fill="#000"/></svg>