<svg width="24" height="25" fill="none" xmlns="http://www.w3.org/2000/svg"><path fill-rule="evenodd" clip-rule="evenodd" d="M14.76 5.06c-.39-.34-1.4-.626-2.746.221-4.3 2.709-8.045 7.594-9.312 9.365A1.287 1.287 0 0 1 .61 13.15C1.896 11.355 5.887 6.1 10.644 3.104c2.059-1.296 4.356-1.241 5.803.014a3.375 3.375 0 0 1 1.18 2.547c.006 1.013-.422 2.018-1.204 2.911-2.446 2.798-5.678 6.591-7.036 8.443-.178.243-.19.428-.174.535.017.12.08.233.188.313.15.103.333.145.513.115.24-.029.617-.16 1.076-.58.388-.357.79-.738 1.205-1.127 1.278-1.202 2.658-2.503 4.04-3.52 1.436-1.056 3.116-1.349 4.39-.57a2.69 2.69 0 0 1 1.239 1.755c.154.737.007 1.505-.365 2.211-.398.758-.744 1.303-1.054 1.794l-.024.039c-.299.455-.576.924-.832 1.404a.868.868 0 0 0-.041.711c.041.103.08.153.103.174.158.012.295-.028.512-.196.306-.238.647-.641 1.16-1.313a1.286 1.286 0 1 1 2.043 1.562c-.489.64-1.019 1.31-1.625 1.783-.672.52-1.487.838-2.476.708-1.085-.141-1.796-.978-2.11-1.778a3.442 3.442 0 0 1 .154-2.842c.326-.624.634-1.11.928-1.57l.036-.059a21.3 21.3 0 0 0 .951-1.615c.146-.278.132-.437.122-.487a.117.117 0 0 0-.062-.087c-.074-.046-.595-.237-1.526.449-1.244.914-2.456 2.057-3.703 3.23-.437.411-.879.828-1.328 1.24-1.582 1.45-3.51 1.643-4.865.628-1.32-.987-1.682-2.88-.549-4.426 1.435-1.958 4.744-5.837 7.174-8.616.465-.531.57-.951.568-1.203a.802.802 0 0 0-.293-.621h-.002Zm4.908 15.228-.005-.003c.003 0 .005.001.005.003Z" fill="#EF3F4F"/></svg>