<svg width="24" height="24" fill="none" xmlns="http://www.w3.org/2000/svg"><path d="M2 12h2a7.986 7.986 0 0 1 4.879-7.373 8.12 8.12 0 0 1 6.13-.041A2.488 2.488 0 0 0 17.5 7C18.886 7 20 5.886 20 4.5S18.886 2 17.5 2c-.689 0-1.312.276-1.763.725-2.431-.973-5.223-.958-7.635.059a9.928 9.928 0 0 0-3.18 2.139 9.92 9.92 0 0 0-2.14 3.179A10.005 10.005 0 0 0 2 12Zm17.373 3.122a7.937 7.937 0 0 1-1.71 2.541 7.93 7.93 0 0 1-2.542 1.71 8.12 8.12 0 0 1-6.13.041A2.488 2.488 0 0 0 6.5 17 2.493 2.493 0 0 0 4 19.5C4 20.886 5.114 22 6.5 22c.689 0 1.312-.276 1.763-.725A9.964 9.964 0 0 0 12 22a9.983 9.983 0 0 0 10-10h-2a7.993 7.993 0 0 1-.627 3.122Z" fill="#EF3F4F"/><path d="M12 7.462A4.543 4.543 0 0 0 7.462 12 4.543 4.543 0 0 0 12 16.538 4.543 4.543 0 0 0 16.538 12 4.543 4.543 0 0 0 12 7.462Zm0 7.076A2.541 2.541 0 0 1 9.462 12 2.541 2.541 0 0 1 12 9.462 2.541 2.541 0 0 1 14.538 12 2.541 2.541 0 0 1 12 14.538Z" fill="#EF3F4F"/></svg>