<svg width="24" height="24" viewBox="0 0 24 24" fill="none" xmlns="http://www.w3.org/2000/svg">
<path d="M6.35 15.35L4.25 13.2C5.28333 12.1667 6.46667 11.375 7.8 10.825C9.13333 10.275 10.5333 10 12 10C13.4667 10 14.871 10.2793 16.213 10.838C17.555 11.3967 18.734 12.2007 19.75 13.25L17.65 15.35C16.9 14.6 16.0373 14.021 15.062 13.613C14.0867 13.205 13.066 13.0007 12 13C10.9333 13 9.91267 13.2043 8.938 13.613C7.96333 14.0217 7.10067 14.6007 6.35 15.35ZM2.1 11.1L0 9C1.58333 7.38333 3.41267 6.14567 5.488 5.287C7.56333 4.42833 9.734 3.99933 12 4C14.2667 4 16.4377 4.42933 18.513 5.288C20.5883 6.14667 22.4173 7.384 24 9L21.9 11.1C20.5833 9.78333 19.0707 8.771 17.362 8.063C15.6533 7.355 13.866 7.00067 12 7C10.1333 7 8.34567 7.35433 6.637 8.063C4.92833 8.77167 3.416 9.784 2.1 11.1ZM12 21L8.475 17.45C8.94167 16.9833 9.47933 16.625 10.088 16.375C10.6967 16.125 11.334 16 12 16C12.6667 16 13.3043 16.125 13.913 16.375C14.5217 16.625 15.059 16.9833 15.525 17.45L12 21Z" fill="#F29D6F"/>
</svg>
