<svg width="24" height="24" viewBox="0 0 24 24" fill="none" xmlns="http://www.w3.org/2000/svg">
<g clip-path="url(#clip0_8_610)">
<path d="M12 1.33337C9.92347 1.33511 7.93199 2.1585 6.46054 3.6237C4.98909 5.08891 4.15723 7.07687 4.14667 9.15337C4.14667 12.2667 5.89333 14.8734 7.17333 16.7734L7.40667 17.12C8.68019 18.9658 10.0464 20.7458 11.5 22.4534L12.0067 23.0467L12.5133 22.4534C13.9668 20.7457 15.333 18.9657 16.6067 17.12L16.84 16.7667C18.1133 14.8667 19.86 12.2667 19.86 9.15337C19.8494 7.07571 19.0167 5.08675 17.5438 3.62135C16.0709 2.15596 14.0777 1.33335 12 1.33337ZM12 12.6667C11.135 12.6667 10.2895 12.4102 9.57031 11.9297C8.85112 11.4491 8.29058 10.7661 7.95957 9.96698C7.62856 9.16785 7.54195 8.28852 7.7107 7.44018C7.87945 6.59184 8.29597 5.81258 8.90759 5.20096C9.51921 4.58934 10.2985 4.17282 11.1468 4.00407C11.9952 3.83533 12.8745 3.92193 13.6736 4.25294C14.4727 4.58395 15.1557 5.14449 15.6363 5.86368C16.1168 6.58287 16.3733 7.42841 16.3733 8.29337C16.3733 9.45325 15.9126 10.5656 15.0924 11.3858C14.2723 12.2059 13.1599 12.6667 12 12.6667Z" fill="#7051F8"/>
<path d="M12 10.78C13.3734 10.78 14.4867 9.66666 14.4867 8.29331C14.4867 6.91996 13.3734 5.80664 12 5.80664C10.6267 5.80664 9.51334 6.91996 9.51334 8.29331C9.51334 9.66666 10.6267 10.78 12 10.78Z" fill="#7051F8"/>
</g>
<defs>
<clipPath id="clip0_8_610">
<rect width="24" height="24" fill="white"/>
</clipPath>
</defs>
</svg>
