<svg width="32" height="32" viewBox="0 0 32 32" fill="none" xmlns="http://www.w3.org/2000/svg">
<path d="M10.6667 4C8.19131 4 5.81734 4.98333 4.067 6.73367C2.31666 8.48401 1.33333 10.858 1.33333 13.3333C1.33333 15.8087 2.31666 18.1827 4.067 19.933C5.81734 21.6833 8.19131 22.6667 10.6667 22.6667H12.0933C11.9668 21.7823 11.9668 20.8844 12.0933 20H10.6667C8.89855 20 7.20286 19.2976 5.95262 18.0474C4.70237 16.7971 3.99999 15.1014 3.99999 13.3333C3.99999 11.5652 4.70237 9.86953 5.95262 8.61929C7.20286 7.36905 8.89855 6.66667 10.6667 6.66667H21.3333C22.322 6.66647 23.2984 6.88617 24.1917 7.30987C25.085 7.73358 25.8729 8.35066 26.4982 9.11644C27.1236 9.88221 27.5708 10.7775 27.8075 11.7374C28.0442 12.6974 28.0644 13.698 27.8667 14.6667C28.6522 15.4369 29.2958 16.3396 29.768 17.3333C30.4429 15.9106 30.7468 14.3402 30.6515 12.7684C30.5562 11.1966 30.0647 9.67442 29.2228 8.34364C28.381 7.01286 27.2161 5.91672 25.8367 5.15725C24.4572 4.39778 22.908 3.99968 21.3333 4H10.6667ZM14.6667 21.3333C14.6669 20.2939 14.9102 19.2689 15.3771 18.3402C15.8441 17.4115 16.5217 16.6049 17.3559 15.9848C18.1901 15.3646 19.1577 14.9481 20.1815 14.7685C21.2053 14.5889 22.257 14.6512 23.2524 14.9505C24.2479 15.2497 25.1596 15.7775 25.9147 16.4918C26.6698 17.2062 27.2474 18.0872 27.6015 19.0645C27.9555 20.0418 28.076 21.0883 27.9535 22.1205C27.8311 23.1528 27.4689 24.142 26.896 25.0093L30.276 28.3907L28.3907 30.276L25.0093 26.896C24.0045 27.5602 22.8384 27.9397 21.6352 27.9942C20.4319 28.0488 19.2363 27.7763 18.1755 27.2057C17.1147 26.6352 16.2283 25.7879 15.6104 24.7539C14.9926 23.7199 14.6665 22.5378 14.6667 21.3333Z" fill="white"/>
</svg>
