<svg width="28" height="23" viewBox="0 0 28 23" fill="none" xmlns="http://www.w3.org/2000/svg">
<path d="M27.9467 3.00004C26.92 3.46671 25.8133 3.77337 24.6667 3.92004C25.84 3.21337 26.7467 2.09337 27.1733 0.746707C26.0667 1.41337 24.84 1.88004 23.5467 2.14671C22.4933 1.00004 21.0133 0.333374 19.3333 0.333374C16.2 0.333374 13.64 2.89337 13.64 6.05337C13.64 6.50671 13.6933 6.94671 13.7867 7.36004C9.04 7.12004 4.81333 4.84004 2 1.38671C1.50666 2.22671 1.22666 3.21337 1.22666 4.25337C1.22666 6.24004 2.22666 8.00004 3.77333 9.00004C2.82666 9.00004 1.94666 8.73337 1.17333 8.33337V8.37337C1.17333 11.1467 3.14666 13.4667 5.76 13.9867C4.92097 14.2163 4.04012 14.2483 3.18666 14.08C3.5488 15.2167 4.25805 16.2113 5.21468 16.9239C6.17132 17.6366 7.32726 18.0316 8.52 18.0534C6.49817 19.654 3.99199 20.5191 1.41333 20.5067C0.959996 20.5067 0.506663 20.48 0.0533295 20.4267C2.58666 22.0534 5.6 23 8.82666 23C19.3333 23 25.1067 14.28 25.1067 6.72004C25.1067 6.46671 25.1067 6.22671 25.0933 5.97337C26.2133 5.17337 27.1733 4.16004 27.9467 3.00004Z" fill="#7051F8"/>
</svg>
