<svg xmlns="http://www.w3.org/2000/svg" viewBox="0 0 59 59" style="enable-background:new 0 0 59 59" xml:space="preserve"><path style="fill:#ecf0f1" d="M.5 48h58v11H.5z"/><path style="fill:#556080" d="M16.5 0h26v48h-26z"/><path style="fill:#8697cb" d="M.5 3v45h16V3zM42.5 3v45h16V3z"/><path style="fill:#fff" d="M20.5 5h7v5h-7zM31.5 5h7v5h-7zM46.5 9h8v5h-8zM46.5 18h8v5h-8zM4.5 9h8v5h-8zM4.5 18h8v5h-8zM20.5 14h7v5h-7zM31.5 14h7v5h-7zM20.5 23h7v5h-7zM31.5 23h7v5h-7z"/><path style="fill:#ed7161" d="M38.5 59h-18l2-11h14z"/><path style="fill:#d0e8f9" d="M21.5 34h16v14h-16z"/><path style="fill:#3d324c" d="M37.5 33h-16a1 1 0 0 0-1 1v14h18V34a1 1 0 0 0-1-1z"/><path style="fill:#d0e8f9" d="M22.5 35h14v13h-14z"/><path style="fill:#3d324c" d="M28.5 35h2v13h-2z"/><circle style="fill:#a4e869" cx="8.5" cy="37" r="8"/><circle style="fill:#a4e869" cx="50.5" cy="37" r="8"/><path style="fill:#7f6e5d" d="M10.793 37.293 8.5 39.586l-2.293-2.293a.999.999 0 1 0-1.414 1.414L7.5 41.414V58a1 1 0 0 0 2 0V41.414l2.707-2.707a.999.999 0 1 0-1.414-1.414zM54.207 37.293a.999.999 0 0 0-1.414 0L50.5 39.586l-2.293-2.293a.999.999 0 1 0-1.414 1.414l2.707 2.707V58a1 1 0 0 0 2 0V41.414l2.707-2.707a.999.999 0 0 0 0-1.414z"/></svg>