<svg width="24" height="24" fill="none" xmlns="http://www.w3.org/2000/svg"><path d="M12 8.505A3.499 3.499 0 0 0 8.505 12 3.508 3.508 0 0 0 12 15.495 3.508 3.508 0 0 0 15.495 12 3.508 3.508 0 0 0 12 8.505ZM22.5 12c0-1.455 0-2.88-.075-4.335-.075-1.68-.465-3.18-1.695-4.395-1.23-1.23-2.715-1.62-4.395-1.695C14.88 1.5 13.455 1.5 12 1.5s-2.88 0-4.335.075c-1.68.075-3.18.465-4.395 1.695C2.04 4.5 1.65 5.985 1.575 7.665 1.5 9.12 1.5 10.545 1.5 12s0 2.88.075 4.335c.075 1.68.465 3.18 1.695 4.395 1.23 1.23 2.715 1.62 4.395 1.695 1.455.075 2.88.075 4.335.075s2.88 0 4.335-.075c1.68-.075 3.18-.465 4.395-1.695 1.23-1.23 1.62-2.715 1.695-4.395.09-1.44.075-2.88.075-4.335ZM12 17.385A5.371 5.371 0 0 1 6.615 12c0-2.985 2.4-5.385 5.385-5.385s5.385 2.4 5.385 5.385-2.4 5.385-5.385 5.385Zm5.61-9.735c-.69 0-1.26-.555-1.26-1.26s.555-1.26 1.26-1.26 1.26.555 1.26 1.26a1.2 1.2 0 0 1-.36.885 1.2 1.2 0 0 1-.885.36l-.015.015Z" fill="#5E5E5E"/></svg>