<svg width="45" height="45" viewBox="0 0 45 45" fill="none" xmlns="http://www.w3.org/2000/svg">
<g opacity="0.5">
<path d="M24.4275 3.75182C25.7957 3.74657 27.164 3.76032 28.5319 3.79307L28.8956 3.80619C29.3156 3.82119 29.73 3.83994 30.2306 3.86244C32.2256 3.95619 33.5869 4.27119 34.7812 4.73432C36.0187 5.21057 37.0612 5.85557 38.1037 6.89807C39.0569 7.83483 39.7947 8.96797 40.2656 10.2187C40.7287 11.4131 41.0437 12.7762 41.1375 14.7712C41.16 15.2699 41.1787 15.6862 41.1937 16.1062L41.205 16.4699C41.2383 17.8372 41.2527 19.2048 41.2481 20.5724L41.25 21.9712V24.4274C41.2546 25.7957 41.2402 27.164 41.2069 28.5318L41.1956 28.8956C41.1806 29.3156 41.1619 29.7299 41.1394 30.2306C41.0456 32.2256 40.7269 33.5868 40.2656 34.7812C39.7962 36.0332 39.0583 37.1673 38.1037 38.1037C37.1662 39.0568 36.0324 39.7945 34.7812 40.2656C33.5869 40.7287 32.2256 41.0437 30.2306 41.1374C29.73 41.1599 29.3156 41.1787 28.8956 41.1937L28.5319 41.2049C27.164 41.2383 25.7957 41.2527 24.4275 41.2481L23.0287 41.2499H20.5744C19.2061 41.2546 17.8378 41.2402 16.47 41.2068L16.1062 41.1956C15.6611 41.1794 15.2161 41.1607 14.7712 41.1393C12.7762 41.0456 11.415 40.7268 10.2187 40.2656C8.96751 39.7956 7.83418 39.0577 6.89811 38.1037C5.94382 37.1667 5.2054 36.0329 4.73436 34.7812C4.27123 33.5868 3.95623 32.2256 3.86248 30.2306C3.8416 29.7857 3.82285 29.3407 3.80623 28.8956L3.79686 28.5318C3.76229 27.164 3.74666 25.7957 3.74998 24.4274V20.5724C3.74475 19.2048 3.7585 17.8372 3.79123 16.4699L3.80436 16.1062C3.81936 15.6862 3.83811 15.2699 3.86061 14.7712C3.95436 12.7743 4.26936 11.4149 4.73248 10.2187C5.20381 8.96736 5.94367 7.83453 6.89998 6.89994C7.83541 5.9451 8.96804 5.20602 10.2187 4.73432C11.415 4.27119 12.7744 3.95619 14.7712 3.86244L16.1062 3.80619L16.47 3.79682C17.8372 3.76227 19.2048 3.74664 20.5725 3.74994L24.4275 3.75182ZM22.5 13.1268C21.2578 13.1093 20.0245 13.3387 18.8718 13.8019C17.7191 14.2652 16.6699 14.9528 15.7853 15.825C14.9007 16.6973 14.1982 17.7366 13.7188 18.8826C13.2393 20.0287 12.9924 21.2586 12.9924 22.5009C12.9924 23.7432 13.2393 24.9731 13.7188 26.1191C14.1982 27.2652 14.9007 28.3045 15.7853 29.1767C16.6699 30.0489 17.7191 30.7366 18.8718 31.1998C20.0245 31.663 21.2578 31.8925 22.5 31.8749C24.9864 31.8749 27.371 30.8872 29.1291 29.1291C30.8873 27.3709 31.875 24.9863 31.875 22.4999C31.875 20.0135 30.8873 17.629 29.1291 15.8708C27.371 14.1127 24.9864 13.1268 22.5 13.1268ZM22.5 16.8768C23.2472 16.8631 23.9896 16.9983 24.684 17.2747C25.3783 17.5511 26.0106 17.9631 26.5439 18.4866C27.0773 19.0101 27.5009 19.6346 27.7902 20.3237C28.0794 21.0128 28.2285 21.7526 28.2286 22.4999C28.2287 23.2473 28.0799 23.9871 27.7909 24.6763C27.5019 25.3655 27.0784 25.9901 26.5453 26.5138C26.0121 27.0375 25.38 27.4497 24.6857 27.7263C23.9915 28.003 23.2491 28.1385 22.5019 28.1249C21.01 28.1249 19.5793 27.5323 18.5244 26.4774C17.4695 25.4225 16.8769 23.9918 16.8769 22.4999C16.8769 21.0081 17.4695 19.5774 18.5244 18.5225C19.5793 17.4676 21.01 16.8749 22.5019 16.8749L22.5 16.8768ZM32.3437 10.3143C31.7388 10.3385 31.1668 10.5959 30.7474 11.0324C30.3279 11.4689 30.0937 12.0508 30.0937 12.6562C30.0937 13.2616 30.3279 13.8435 30.7474 14.28C31.1668 14.7165 31.7388 14.9739 32.3437 14.9981C32.9653 14.9981 33.5615 14.7511 34.001 14.3116C34.4406 13.8721 34.6875 13.2759 34.6875 12.6543C34.6875 12.0327 34.4406 11.4366 34.001 10.997C33.5615 10.5575 32.9653 10.3106 32.3437 10.3106V10.3143Z" fill="#0E0E0E"/>
</g>
</svg>
