<!-- icon666.com - MILLIONS vector ICONS FREE --><svg version="1.1" id="Capa_1" xmlns="http://www.w3.org/2000/svg" xmlns:xlink="http://www.w3.org/1999/xlink" x="0px" y="0px" viewBox="0 0 512 512" style="enable-background:new 0 0 512 512;" xml:space="preserve"><g><g transform="translate(1 1)"><rect x="118.467" y="323.267" style="fill:#F57C00;" width="273.067" height="179.2"></rect><rect x="84.333" y="323.267" style="fill:#FF9801;" width="273.067" height="179.2"></rect><g><path style="fill:#F57C00;" d="M127,365.933v136.533H67.267c-4.713,0-8.533-3.821-8.533-8.533v-128H127z"></path><path style="fill:#F57C00;" d="M451.267,365.933v128c0,4.713-3.821,8.533-8.533,8.533H383V365.933H451.267z"></path></g><path style="fill:#D84315;" d="M459.8,340.333v34.133c0,4.713-3.82,8.533-8.533,8.533H383c-4.713,0-8.533-3.821-8.533-8.533 v-34.133H459.8z"></path><path style="fill:#F57C00;" d="M425.667,178.2v85.333H84.333l0-85.333C84.304,88.903,153.151,14.697,242.2,8.045 c4.181-0.341,8.448-0.512,12.8-0.512c45.268-0.014,88.685,17.963,120.695,49.972S425.68,132.932,425.667,178.2z"></path><g><path style="fill:#FF9801;" d="M101.4,365.933v136.533H67.267c-4.713,0-8.533-3.821-8.533-8.533v-128H101.4z"></path><path style="fill:#FF9801;" d="M425.667,383v112c-0.328,4.402-4.127,7.726-8.533,7.467H383V383H425.667z"></path><path style="fill:#FF9801;" d="M400.067,178.2v85.333H84.333l0-85.333C84.304,88.903,153.151,14.697,242.2,8.045 C331.249,14.697,400.096,88.903,400.067,178.2z"></path></g><circle style="fill:#CFD8DC;" cx="255" cy="109.933" r="68.267"></circle><g><path style="fill:#C52828;" d="M476.867,306.2v34.133c0,4.713-3.821,8.533-8.533,8.533H41.667c-4.713,0-8.533-3.82-8.533-8.533 V306.2l51.2-59.733h341.333L476.867,306.2z"></path><path style="fill:#C52828;" d="M476.867,306.2v34.133c0,4.713-3.821,8.533-8.533,8.533H41.667c-4.713,0-8.533-3.82-8.533-8.533 V306.2H476.867z"></path></g><g><path style="fill:#F44335;" d="M451.267,306.2v34.133c0,4.713-3.821,8.533-8.533,8.533H50.2c-4.713,0-8.533-3.82-8.533-8.533 V306.2l51.2-59.733h307.2L451.267,306.2z"></path><path style="fill:#F44335;" d="M451.267,306.2v34.133c0,4.713-3.821,8.533-8.533,8.533H50.2c-4.713,0-8.533-3.82-8.533-8.533 V306.2H451.267z"></path></g><circle style="fill:#7F8C8D;" cx="255" cy="109.933" r="17.067"></circle><g><path style="fill:#D84315;" d="M246.467,246.467V109.933c0-4.713,3.821-8.533,8.533-8.533c4.713,0,8.533,3.821,8.533,8.533 v136.533H246.467z"></path><path style="fill:#D84315;" d="M135.533,340.333v34.133c0,4.713-3.821,8.533-8.533,8.533H58.733 c-4.713,0-8.533-3.821-8.533-8.533v-34.133H135.533z"></path></g><g><path style="fill:#FF5722;" d="M434.2,340.333v34.133c0,4.713-3.82,8.533-8.533,8.533H383c-4.713,0-8.533-3.821-8.533-8.533 v-34.133H434.2z"></path><path style="fill:#FF5722;" d="M109.933,340.333v34.133c0,4.713-3.821,8.533-8.533,8.533H58.733 c-4.713,0-8.533-3.821-8.533-8.533v-34.133H109.933z"></path></g></g><g><path d="M42.667,358.4v17.067c0.018,6.07,3.27,11.67,8.533,14.694v113.306c0,4.713,3.821,8.533,8.533,8.533h392.533 c4.713,0,8.533-3.82,8.533-8.533V390.161c5.263-3.024,8.515-8.624,8.533-14.694V358.4c9.426,0,17.067-7.641,17.067-17.067V307.2 c-0.012-1.077-0.226-2.142-0.631-3.14c-0.18-0.358-0.385-0.703-0.614-1.033c-0.227-0.485-0.498-0.948-0.811-1.382L435.2,244.318 V179.2C435.2,80.231,354.969,0,256,0S76.8,80.231,76.8,179.2v65.118l-49.143,57.327c-0.327,0.436-0.613,0.902-0.853,1.391 c-0.223,0.328-0.426,0.67-0.606,1.024c-0.395,1-0.598,2.065-0.597,3.14v34.133C25.6,350.759,33.241,358.4,42.667,358.4z M366.933,358.4v17.067c0.018,6.07,3.27,11.67,8.533,14.694v104.772H136.533V390.161c5.263-3.024,8.515-8.624,8.533-14.694V358.4 H366.933z M128,375.467H59.733V358.4H128V375.467z M68.267,392.533h51.2v102.4h-51.2V392.533z M443.733,494.933h-51.2v-102.4h51.2 V494.933z M452.267,375.467H384V358.4h68.267V375.467z M460.8,341.333H42.667v-25.6h426.667v25.6H460.8z M89.259,256h333.483 l36.574,42.667H52.685L89.259,256z M256,119.467c-4.713,0-8.533-3.821-8.533-8.533c0-4.713,3.821-8.533,8.533-8.533 c4.713,0,8.533,3.821,8.533,8.533C264.533,115.646,260.713,119.467,256,119.467z M264.533,134.963 c11.755-4.156,18.806-16.176,16.698-28.465C279.123,94.21,268.468,85.227,256,85.227c-12.468,0-23.123,8.982-25.231,21.271 c-2.108,12.289,4.943,24.309,16.698,28.465v34.987c-31.009-4.476-53.29-32.149-51.047-63.398 c2.244-31.25,28.25-55.456,59.58-55.456s57.336,24.206,59.58,55.456s-20.038,58.923-51.047,63.398V134.963z M93.867,179.2 c0-89.544,72.59-162.133,162.133-162.133S418.133,89.656,418.133,179.2v59.733h-153.6V187.23 c40.503-4.528,70.415-39.906,68.148-80.598C330.413,65.94,296.755,34.105,256,34.105s-74.413,31.835-76.681,72.527 c-2.268,40.692,27.645,76.069,68.148,80.598v51.703h-153.6V179.2z"></path><path d="M196.267,401.067h8.533c4.713,0,8.533-3.82,8.533-8.533S209.513,384,204.8,384h-8.533c-4.713,0-8.533,3.82-8.533,8.533 S191.554,401.067,196.267,401.067z"></path><path d="M162.133,426.667h8.533c4.713,0,8.533-3.82,8.533-8.533s-3.821-8.533-8.533-8.533h-8.533 c-4.713,0-8.533,3.821-8.533,8.533S157.421,426.667,162.133,426.667z"></path><path d="M162.133,452.267h8.533c4.713,0,8.533-3.821,8.533-8.533c0-4.713-3.821-8.533-8.533-8.533h-8.533 c-4.713,0-8.533,3.821-8.533,8.533C153.6,448.446,157.421,452.267,162.133,452.267z"></path><path d="M162.133,477.867h8.533c4.713,0,8.533-3.821,8.533-8.533c0-4.713-3.821-8.533-8.533-8.533h-8.533 c-4.713,0-8.533,3.821-8.533,8.533C153.6,474.046,157.421,477.867,162.133,477.867z"></path><path d="M196.267,426.667h8.533c4.713,0,8.533-3.82,8.533-8.533s-3.821-8.533-8.533-8.533h-8.533 c-4.713,0-8.533,3.821-8.533,8.533S191.554,426.667,196.267,426.667z"></path><path d="M196.267,452.267h8.533c4.713,0,8.533-3.821,8.533-8.533c0-4.713-3.821-8.533-8.533-8.533h-8.533 c-4.713,0-8.533,3.821-8.533,8.533C187.733,448.446,191.554,452.267,196.267,452.267z"></path><path d="M196.267,477.867h8.533c4.713,0,8.533-3.821,8.533-8.533c0-4.713-3.821-8.533-8.533-8.533h-8.533 c-4.713,0-8.533,3.821-8.533,8.533C187.733,474.046,191.554,477.867,196.267,477.867z"></path><path d="M230.4,426.667h8.533c4.713,0,8.533-3.82,8.533-8.533s-3.821-8.533-8.533-8.533H230.4c-4.713,0-8.533,3.821-8.533,8.533 S225.687,426.667,230.4,426.667z"></path><path d="M230.4,452.267h8.533c4.713,0,8.533-3.821,8.533-8.533c0-4.713-3.821-8.533-8.533-8.533H230.4 c-4.713,0-8.533,3.821-8.533,8.533C221.867,448.446,225.687,452.267,230.4,452.267z"></path><path d="M230.4,477.867h8.533c4.713,0,8.533-3.821,8.533-8.533c0-4.713-3.821-8.533-8.533-8.533H230.4 c-4.713,0-8.533,3.821-8.533,8.533C221.867,474.046,225.687,477.867,230.4,477.867z"></path><path d="M307.2,401.067h8.533c4.713,0,8.533-3.82,8.533-8.533S320.446,384,315.733,384H307.2c-4.713,0-8.533,3.82-8.533,8.533 S302.487,401.067,307.2,401.067z"></path><path d="M273.067,426.667h8.533c4.713,0,8.533-3.82,8.533-8.533s-3.821-8.533-8.533-8.533h-8.533 c-4.713,0-8.533,3.821-8.533,8.533S268.354,426.667,273.067,426.667z"></path><path d="M273.067,452.267h8.533c4.713,0,8.533-3.821,8.533-8.533c0-4.713-3.821-8.533-8.533-8.533h-8.533 c-4.713,0-8.533,3.821-8.533,8.533C264.533,448.446,268.354,452.267,273.067,452.267z"></path><path d="M273.067,477.867h8.533c4.713,0,8.533-3.821,8.533-8.533c0-4.713-3.821-8.533-8.533-8.533h-8.533 c-4.713,0-8.533,3.821-8.533,8.533C264.533,474.046,268.354,477.867,273.067,477.867z"></path><path d="M307.2,426.667h8.533c4.713,0,8.533-3.82,8.533-8.533s-3.821-8.533-8.533-8.533H307.2c-4.713,0-8.533,3.821-8.533,8.533 S302.487,426.667,307.2,426.667z"></path><path d="M307.2,452.267h8.533c4.713,0,8.533-3.821,8.533-8.533c0-4.713-3.821-8.533-8.533-8.533H307.2 c-4.713,0-8.533,3.821-8.533,8.533C298.667,448.446,302.487,452.267,307.2,452.267z"></path><path d="M307.2,477.867h8.533c4.713,0,8.533-3.821,8.533-8.533c0-4.713-3.821-8.533-8.533-8.533H307.2 c-4.713,0-8.533,3.821-8.533,8.533C298.667,474.046,302.487,477.867,307.2,477.867z"></path><path d="M341.333,426.667h8.533c4.713,0,8.533-3.82,8.533-8.533s-3.821-8.533-8.533-8.533h-8.533 c-4.713,0-8.533,3.821-8.533,8.533S336.621,426.667,341.333,426.667z"></path><path d="M341.333,452.267h8.533c4.713,0,8.533-3.821,8.533-8.533c0-4.713-3.821-8.533-8.533-8.533h-8.533 c-4.713,0-8.533,3.821-8.533,8.533C332.8,448.446,336.621,452.267,341.333,452.267z"></path><path d="M341.333,477.867h8.533c4.713,0,8.533-3.821,8.533-8.533c0-4.713-3.821-8.533-8.533-8.533h-8.533 c-4.713,0-8.533,3.821-8.533,8.533C332.8,474.046,336.621,477.867,341.333,477.867z"></path><path d="M187.733,204.8h-68.267c-4.713,0-8.533,3.821-8.533,8.533s3.821,8.533,8.533,8.533h68.267c4.713,0,8.533-3.82,8.533-8.533 S192.446,204.8,187.733,204.8z"></path><path d="M187.733,179.2h-68.267c-4.713,0-8.533,3.82-8.533,8.533s3.821,8.533,8.533,8.533h68.267c4.713,0,8.533-3.821,8.533-8.533 S192.446,179.2,187.733,179.2z"></path><path d="M392.533,204.8h-68.267c-4.713,0-8.533,3.821-8.533,8.533s3.821,8.533,8.533,8.533h68.267c4.713,0,8.533-3.82,8.533-8.533 S397.246,204.8,392.533,204.8z"></path><path d="M315.733,187.733c0,4.713,3.821,8.533,8.533,8.533h68.267c4.713,0,8.533-3.821,8.533-8.533s-3.82-8.533-8.533-8.533 h-68.267C319.554,179.2,315.733,183.021,315.733,187.733z"></path><path d="M93.867,290.133h17.067c4.713,0,8.533-3.82,8.533-8.533s-3.821-8.533-8.533-8.533H93.867c-4.713,0-8.533,3.82-8.533,8.533 S89.154,290.133,93.867,290.133z"></path><path d="M145.067,290.133h17.067c4.713,0,8.533-3.82,8.533-8.533s-3.821-8.533-8.533-8.533h-17.067 c-4.713,0-8.533,3.82-8.533,8.533S140.354,290.133,145.067,290.133z"></path><path d="M196.267,290.133h17.067c4.713,0,8.533-3.82,8.533-8.533s-3.821-8.533-8.533-8.533h-17.067 c-4.713,0-8.533,3.82-8.533,8.533S191.554,290.133,196.267,290.133z"></path><path d="M247.467,290.133h17.067c4.713,0,8.533-3.82,8.533-8.533s-3.82-8.533-8.533-8.533h-17.067 c-4.713,0-8.533,3.82-8.533,8.533S242.754,290.133,247.467,290.133z"></path><path d="M298.667,290.133h17.067c4.713,0,8.533-3.82,8.533-8.533s-3.821-8.533-8.533-8.533h-17.067 c-4.713,0-8.533,3.82-8.533,8.533S293.954,290.133,298.667,290.133z"></path><path d="M349.867,290.133h17.067c4.713,0,8.533-3.82,8.533-8.533s-3.82-8.533-8.533-8.533h-17.067 c-4.713,0-8.533,3.82-8.533,8.533S345.154,290.133,349.867,290.133z"></path><path d="M401.067,290.133h17.067c4.713,0,8.533-3.82,8.533-8.533s-3.82-8.533-8.533-8.533h-17.067 c-4.713,0-8.533,3.82-8.533,8.533S396.354,290.133,401.067,290.133z"></path></g></g></svg>