<svg xmlns="http://www.w3.org/2000/svg" viewBox="0 0 512 512" style="enable-background:new 0 0 512 512" xml:space="preserve"><g fill="#fff"><path d="M328 0C226.542 0 144 82.542 144 184c0 47.575 18.15 90.991 47.889 123.688l-25.215 25.215c-6.15-3.86-13.267-5.936-20.707-5.936-10.436 0-20.247 4.063-27.624 11.442l-106.9 106.9C4.064 452.688 0 462.499 0 472.934s4.064 20.245 11.442 27.623C18.821 507.937 28.631 512 39.066 512s20.246-4.063 27.624-11.442l106.901-106.9c7.378-7.379 11.442-17.189 11.442-27.624 0-7.987-2.388-15.604-6.814-22.048l24.944-24.944C235.989 349.409 279.861 368 328 368c101.458 0 184-82.542 184-184S429.458 0 328 0zM162.277 382.343 55.376 489.244C51.02 493.601 45.228 496 39.066 496s-11.953-2.399-16.31-6.757C18.399 484.887 16 479.095 16 472.934s2.399-11.953 6.756-16.31l106.901-106.901a22.915 22.915 0 0 1 16.31-6.756 22.91 22.91 0 0 1 16.31 6.757c4.356 4.356 6.756 10.148 6.756 16.31s-2.399 11.952-6.756 16.309zM328 352c-92.636 0-168-75.364-168-168S235.364 16 328 16s168 75.364 168 168-75.364 168-168 168z"/><path d="M432 96c-13.234 0-24 10.767-24 24 0 6.28 2.427 12.001 6.39 16.283l-58.932 111.969a23.897 23.897 0 0 0-11.343 1.084l-35.74-44.675A23.846 23.846 0 0 0 312 192c0-13.233-10.766-24-24-24s-24 10.767-24 24c0 3.701.843 7.208 2.345 10.341l-.002.002-24 24-.002.003A23.844 23.844 0 0 0 232 224c-13.234 0-24 10.767-24 24s10.766 24 24 24 24-10.767 24-24c0-3.701-.843-7.208-2.345-10.341l.002-.002 24-24 .002-.003A23.858 23.858 0 0 0 288 215.999c2.762 0 5.413-.475 7.885-1.337l35.74 44.675A23.858 23.858 0 0 0 328 272c0 13.233 10.766 24 24 24s24-10.767 24-24c0-6.28-2.427-12.001-6.39-16.283l58.932-111.969c1.13.164 2.283.253 3.458.253 13.234 0 24-10.767 24-24S445.234 96 432 96zM232 256c-4.411 0-8-3.589-8-8s3.589-8 8-8 8 3.589 8 8-3.589 8-8 8zm48-64c0-4.411 3.589-8 8-8s8 3.589 8 8-3.589 8-8 8-8-3.589-8-8zm72 88c-4.411 0-8-3.589-8-8s3.589-8 8-8 8 3.589 8 8-3.589 8-8 8zm80-152c-4.411 0-8-3.589-8-8s3.589-8 8-8 8 3.589 8 8-3.589 8-8 8z"/></g></svg>