<svg width="32" height="32" fill="none" xmlns="http://www.w3.org/2000/svg"><path d="M16 11.34c-2.58 0-4.66 2.1-4.66 4.66s2.1 4.66 4.66 4.66 4.66-2.1 4.66-4.66-2.1-4.66-4.66-4.66ZM30 16c0-1.94 0-3.84-.1-5.78-.1-2.24-.62-4.24-2.26-5.86C26 2.72 24.02 2.2 21.78 2.1 19.84 2 17.94 2 16 2c-1.94 0-3.84 0-5.78.1-2.24.1-4.24.62-5.86 2.26C2.72 6 2.2 7.98 2.1 10.22 2 12.16 2 14.06 2 16c0 1.94 0 3.84.1 5.78.1 2.24.62 4.24 2.26 5.86C6 29.28 7.98 29.8 10.22 29.9c1.94.1 3.84.1 5.78.1 1.94 0 3.84 0 5.78-.1 2.24-.1 4.24-.62 5.86-2.26 1.64-1.64 2.16-3.62 2.26-5.86.12-1.92.1-3.84.1-5.78Zm-14 7.18c-3.98 0-7.18-3.2-7.18-7.18 0-3.98 3.2-7.18 7.18-7.18 3.98 0 7.18 3.2 7.18 7.18 0 3.98-3.2 7.18-7.18 7.18Zm7.48-12.98c-.92 0-1.68-.74-1.68-1.68s.74-1.68 1.68-1.68 1.68.74 1.68 1.68a1.599 1.599 0 0 1-.48 1.18 1.6 1.6 0 0 1-1.18.48l-.02.02Z" fill="#E2BEAC"/></svg>