<svg width="24" height="24" fill="none" xmlns="http://www.w3.org/2000/svg"><path d="M13.13 1.226c1.238.003 1.866.01 2.409.025l.213.008c.246.009.49.02.783.033 1.17.055 1.969.24 2.67.511.726.28 1.337.658 1.949 1.269.56.55.992 1.215 1.268 1.949.272.7.456 1.499.511 2.67.014.293.025.536.034.784l.006.213c.017.541.023 1.17.025 2.407l.002.82v1.441c.002.803-.006 1.605-.026 2.407l-.006.213-.033.784c-.055 1.171-.242 1.969-.513 2.67a5.371 5.371 0 0 1-1.268 1.95c-.55.559-1.215.992-1.95 1.268-.7.271-1.498.456-2.669.511-.26.013-.522.024-.783.033l-.213.007c-.543.015-1.17.023-2.408.025l-.82.001h-1.44a85.897 85.897 0 0 1-2.408-.025l-.214-.007c-.26-.01-.522-.02-.783-.034-1.17-.055-1.969-.24-2.67-.511a5.378 5.378 0 0 1-1.949-1.268 5.395 5.395 0 0 1-1.269-1.95c-.272-.7-.456-1.499-.511-2.67a81.867 81.867 0 0 1-.033-.784l-.006-.213a86.97 86.97 0 0 1-.027-2.407v-2.261c-.003-.803.005-1.605.024-2.407l.008-.213c.008-.248.02-.49.033-.784.055-1.171.24-1.968.511-2.67.276-.735.71-1.4 1.272-1.95a5.386 5.386 0 0 1 1.946-1.268c.702-.271 1.5-.456 2.671-.511.293-.013.537-.024.783-.033l.214-.007c.802-.02 1.604-.028 2.406-.025l2.262-.001ZM12 6.726a5.5 5.5 0 1 0 0 11 5.5 5.5 0 0 0 0-11Zm0 2.2a3.3 3.3 0 1 1-.001 6.6 3.3 3.3 0 0 1 .002-6.6m5.775-3.85a1.375 1.375 0 1 0 0 2.75 1.375 1.375 0 0 0 0-2.75Z" fill="#FFC328"/></svg>