<svg width="24" height="25" fill="none" xmlns="http://www.w3.org/2000/svg"><g clip-path="url(#a)"><path d="M12 .613c-6.629 0-12 5.37-12 12 0 6.629 5.371 12 12 12s12-5.371 12-12c0-6.63-5.371-12-12-12Zm5.893 8.22-1.969 9.281c-.145.659-.537.818-1.084.509l-3-2.212-1.447 1.394c-.16.16-.295.295-.604.295l.213-3.053 5.56-5.023c.241-.213-.054-.334-.373-.12l-6.871 4.325-2.962-.924c-.643-.203-.658-.644.136-.953l11.57-4.462c.536-.193 1.006.131.831.944Z" fill="#FFC328"/></g><defs><clipPath id="a"><path fill="#fff" transform="translate(0 .226)" d="M0 0h24v24.774H0z"/></clipPath></defs></svg>