<svg width="24" height="24" viewBox="0 0 24 24" fill="none" xmlns="http://www.w3.org/2000/svg">
<path d="M12 17.4C11.3966 17.4001 10.8154 17.1729 10.3719 16.7638C9.9285 16.3546 9.65547 15.7934 9.6072 15.192C8.00662 14.6254 6.65766 13.5116 5.79843 12.0472C4.93919 10.5828 4.62495 8.86186 4.91115 7.18827C5.19735 5.51468 6.06561 3.99601 7.36265 2.90033C8.65969 1.80465 10.3021 1.20242 12 1.19995C13.8059 1.19969 15.5459 1.87806 16.8751 3.10054C18.2043 4.32303 19.0255 6.00036 19.176 7.79995C19.181 7.87801 19.1697 7.95626 19.1429 8.02972C19.116 8.10319 19.0742 8.17027 19.02 8.22669C18.9659 8.28312 18.9005 8.32766 18.8282 8.35749C18.7559 8.38732 18.6782 8.40178 18.6 8.39995C18.4393 8.39566 18.286 8.33193 18.1696 8.22109C18.0533 8.11026 17.9821 7.9602 17.97 7.79995C17.8631 6.73895 17.4754 5.72561 16.8468 4.86424C16.2181 4.00287 15.3713 3.3246 14.3934 2.89926C13.4156 2.47391 12.342 2.31687 11.2833 2.44428C10.2246 2.5717 9.21891 2.97898 8.36989 3.62419C7.52086 4.2694 6.85913 5.12923 6.45282 6.11515C6.04651 7.10108 5.9103 8.17748 6.05821 9.23354C6.20612 10.2896 6.63281 11.2872 7.29435 12.1235C7.95589 12.9599 8.82838 13.6048 9.822 13.992C10.0028 13.6013 10.2853 13.2665 10.64 13.0225C10.9947 12.7786 11.4084 12.6345 11.8379 12.6054C12.2674 12.5764 12.6968 12.6633 13.0811 12.8572C13.4654 13.0511 13.7905 13.3448 14.0223 13.7075C14.2542 14.0703 14.3841 14.4886 14.3987 14.9189C14.4132 15.3491 14.3118 15.7753 14.105 16.1528C13.8982 16.5304 13.5937 16.8454 13.2234 17.0648C12.853 17.2842 12.4305 17.4 12 17.4ZM6.0108 14.4H6.12C6.82865 15.0946 7.65457 15.6585 8.5596 16.0656C8.82562 16.9433 9.41663 17.6864 10.212 18.1432C11.0073 18.5999 11.947 18.7359 12.8392 18.5233C13.7313 18.3108 14.5088 17.7657 15.0127 16.9994C15.5167 16.2331 15.7091 15.3033 15.5508 14.4H18C18.6365 14.4 19.247 14.6528 19.6971 15.1029C20.1471 15.553 20.4 16.1634 20.4 16.8C20.4 18.8292 19.4004 20.3592 17.838 21.3564C16.2996 22.3368 14.226 22.8 12 22.8C9.774 22.8 7.7004 22.3368 6.162 21.3564C4.5996 20.3604 3.6 18.828 3.6 16.8C3.6 15.4644 4.6836 14.4 6.0108 14.4ZM16.8 8.39995C16.8006 9.21198 16.595 10.0109 16.2025 10.7218C15.81 11.4326 15.2435 12.0322 14.556 12.4644C14.2217 12.1265 13.8235 11.8585 13.3848 11.6758C12.946 11.493 12.4753 11.3993 12 11.4C11.5247 11.3992 11.054 11.4929 10.6152 11.6757C10.1764 11.8584 9.7783 12.1265 9.444 12.4644C8.53326 11.8903 7.8412 11.0275 7.4784 10.014C7.29342 9.49598 7.19924 8.94996 7.2 8.39995C7.2 7.12691 7.70571 5.90601 8.60589 5.00584C9.50606 4.10566 10.727 3.59995 12 3.59995C13.273 3.59995 14.4939 4.10566 15.3941 5.00584C16.2943 5.90601 16.8 7.12691 16.8 8.39995Z" fill="black"/>
</svg>
