<svg width="54" height="54" viewBox="0 0 54 54" fill="none" xmlns="http://www.w3.org/2000/svg">
<path d="M38.25 40.5C38.8467 40.5 39.419 40.2629 39.841 39.841C40.263 39.419 40.5 38.8467 40.5 38.25V15.75C40.5 15.1533 40.263 14.581 39.841 14.159C39.419 13.737 38.8467 13.5 38.25 13.5C37.6533 13.5 37.081 13.737 36.659 14.159C36.2371 14.581 36 15.1533 36 15.75V38.25C36 38.8467 36.2371 39.419 36.659 39.841C37.081 40.2629 37.6533 40.5 38.25 40.5ZM40.5 11.25H42.75V13.5C42.75 14.0967 42.9871 14.669 43.409 15.091C43.831 15.5129 44.4033 15.75 45 15.75C45.5967 15.75 46.169 15.5129 46.591 15.091C47.013 14.669 47.25 14.0967 47.25 13.5V11.25H49.5C50.0967 11.25 50.669 11.0129 51.091 10.591C51.513 10.169 51.75 9.59673 51.75 8.99999C51.75 8.40325 51.513 7.83096 51.091 7.409C50.669 6.98704 50.0967 6.74999 49.5 6.74999H47.25V4.49999C47.25 3.90325 47.013 3.33096 46.591 2.909C46.169 2.48704 45.5967 2.24999 45 2.24999C44.4033 2.24999 43.831 2.48704 43.409 2.909C42.9871 3.33096 42.75 3.90325 42.75 4.49999V6.74999H40.5C39.9033 6.74999 39.331 6.98704 38.909 7.409C38.4871 7.83096 38.25 8.40325 38.25 8.99999C38.25 9.59673 38.4871 10.169 38.909 10.591C39.331 11.0129 39.9033 11.25 40.5 11.25ZM48.6 20.25C48.3104 20.309 48.0353 20.4245 47.7904 20.5899C47.5454 20.7553 47.3355 20.9674 47.1725 21.2139C47.0095 21.4605 46.8967 21.7367 46.8405 22.0269C46.7843 22.317 46.7859 22.6154 46.845 22.905C47.7235 27.1715 47.2028 31.6075 45.3603 35.5546C43.5177 39.5016 40.4515 42.7494 36.6168 44.8156C32.7821 46.8819 28.3833 47.6566 24.0735 47.0247C19.7636 46.3928 15.7723 44.388 12.6922 41.3078C9.61205 38.2277 7.60723 34.2364 6.97531 29.9266C6.3434 25.6167 7.11807 21.2179 9.18436 17.3832C11.2506 13.5485 14.4984 10.4823 18.4454 8.63973C22.3925 6.79718 26.8285 6.2765 31.095 7.15499C31.6917 7.27434 32.3115 7.15174 32.8178 6.81418C33.3242 6.47661 33.6757 5.95173 33.795 5.35499C33.9144 4.75825 33.7918 4.13855 33.4542 3.6322C33.1166 3.12585 32.5917 2.77434 31.995 2.65499C30.3484 2.3482 28.6745 2.21248 27 2.24999C22.1049 2.24999 17.3198 3.70155 13.2496 6.42112C9.17953 9.14068 6.00726 13.0061 4.13399 17.5286C2.26072 22.051 1.77059 27.0274 2.72558 31.8285C3.68056 36.6295 6.03777 41.0395 9.49912 44.5009C12.9605 47.9622 17.3705 50.3194 22.1715 51.2744C26.9726 52.2294 31.949 51.7393 36.4714 49.866C40.9939 47.9927 44.8593 44.8205 47.5789 40.7504C50.2985 36.6802 51.75 31.8951 51.75 27C51.7548 25.3374 51.5889 23.6787 51.255 22.05C51.2011 21.7564 51.0893 21.4764 50.9262 21.2264C50.763 20.9764 50.5517 20.7613 50.3046 20.5938C50.0575 20.4263 49.7795 20.3096 49.4869 20.2506C49.1942 20.1915 48.8927 20.1913 48.6 20.25ZM22.5 29.25H24.75C26.5402 29.25 28.2571 28.5388 29.523 27.273C30.7889 26.0071 31.5 24.2902 31.5 22.5V20.25C31.5 18.4598 30.7889 16.7429 29.523 15.477C28.2571 14.2111 26.5402 13.5 24.75 13.5H22.5C20.7098 13.5 18.9929 14.2111 17.727 15.477C16.4612 16.7429 15.75 18.4598 15.75 20.25C15.75 20.8467 15.9871 21.419 16.409 21.841C16.831 22.2629 17.4033 22.5 18 22.5C18.5967 22.5 19.169 22.2629 19.591 21.841C20.013 21.419 20.25 20.8467 20.25 20.25C20.25 19.6533 20.4871 19.081 20.909 18.659C21.331 18.237 21.9033 18 22.5 18H24.75C25.3467 18 25.919 18.237 26.341 18.659C26.763 19.081 27 19.6533 27 20.25V22.5C27 23.0967 26.763 23.669 26.341 24.091C25.919 24.5129 25.3467 24.75 24.75 24.75H22.5C20.7098 24.75 18.9929 25.4611 17.727 26.727C16.4612 27.9929 15.75 29.7098 15.75 31.5V38.25C15.75 38.8467 15.9871 39.419 16.409 39.841C16.831 40.2629 17.4033 40.5 18 40.5H29.25C29.8467 40.5 30.419 40.2629 30.841 39.841C31.263 39.419 31.5 38.8467 31.5 38.25C31.5 37.6533 31.263 37.081 30.841 36.659C30.419 36.237 29.8467 36 29.25 36H20.25V31.5C20.25 30.9033 20.4871 30.331 20.909 29.909C21.331 29.487 21.9033 29.25 22.5 29.25Z" fill="#434650"/>
</svg>
