<svg width="24" height="25" fill="none" xmlns="http://www.w3.org/2000/svg"><path fill-rule="evenodd" clip-rule="evenodd" d="M4.5 19h-.75a.765.765 0 0 1-.53-.212.71.71 0 0 1-.22-.51V6.722c0-.191.079-.375.22-.51A.765.765 0 0 1 3.75 6h.75c.199 0 .39.076.53.212.141.135.22.319.22.51v11.556a.71.71 0 0 1-.22.51.765.765 0 0 1-.53.212Zm-.75 2.167h.75a3.06 3.06 0 0 0 2.121-.847 2.835 2.835 0 0 0 .879-2.042V6.722c0-.766-.316-1.5-.879-2.043A3.06 3.06 0 0 0 4.5 3.833h-.75a3.06 3.06 0 0 0-2.121.846A2.836 2.836 0 0 0 .75 6.722v11.556c0 .766.316 1.5.879 2.043a3.06 3.06 0 0 0 2.121.846ZM19.5 19h-6.75a1.53 1.53 0 0 1-1.06-.423 1.418 1.418 0 0 1-.44-1.022V7.445c0-.384.158-.751.44-1.022A1.53 1.53 0 0 1 12.75 6h6.75c.398 0 .78.152 1.06.423.282.271.44.638.44 1.021v10.111c0 .384-.158.751-.44 1.022A1.53 1.53 0 0 1 19.5 19Zm-6.75 2.167h6.75c.995 0 1.948-.38 2.652-1.058a3.544 3.544 0 0 0 1.098-2.554V7.445c0-.958-.395-1.877-1.098-2.554A3.824 3.824 0 0 0 19.5 3.833h-6.75c-.995 0-1.948.38-2.652 1.058A3.545 3.545 0 0 0 9 7.444v10.111c0 .958.395 1.877 1.098 2.554a3.825 3.825 0 0 0 2.652 1.058Z" fill="#EF3F4F"/></svg>