<svg width="57" height="57" viewBox="0 0 57 57" fill="none" xmlns="http://www.w3.org/2000/svg">
<path d="M42.75 11.875H45.125V14.25C45.125 14.8799 45.3752 15.4839 45.8206 15.9293C46.266 16.3747 46.8701 16.625 47.5 16.625C48.1299 16.625 48.734 16.3747 49.1794 15.9293C49.6248 15.4839 49.875 14.8799 49.875 14.25V11.875H52.25C52.8799 11.875 53.484 11.6247 53.9294 11.1793C54.3748 10.7339 54.625 10.1299 54.625 9.49996C54.625 8.87007 54.3748 8.26598 53.9294 7.82058C53.484 7.37518 52.8799 7.12496 52.25 7.12496H49.875V4.74996C49.875 4.12007 49.6248 3.51598 49.1794 3.07058C48.734 2.62518 48.1299 2.37496 47.5 2.37496C46.8701 2.37496 46.266 2.62518 45.8206 3.07058C45.3752 3.51598 45.125 4.12007 45.125 4.74996V7.12496H42.75C42.1201 7.12496 41.516 7.37518 41.0706 7.82058C40.6252 8.26598 40.375 8.87007 40.375 9.49996C40.375 10.1299 40.6252 10.7339 41.0706 11.1793C41.516 11.6247 42.1201 11.875 42.75 11.875ZM16.625 16.625V40.375C16.625 41.0049 16.8752 41.6089 17.3206 42.0543C17.766 42.4997 18.3701 42.75 19 42.75C19.6299 42.75 20.234 42.4997 20.6794 42.0543C21.1248 41.6089 21.375 41.0049 21.375 40.375V16.625C21.375 15.9951 21.1248 15.391 20.6794 14.9456C20.234 14.5002 19.6299 14.25 19 14.25C18.3701 14.25 17.766 14.5002 17.3206 14.9456C16.8752 15.391 16.625 15.9951 16.625 16.625ZM51.3 21.375C50.9943 21.4373 50.7039 21.5592 50.4454 21.7338C50.1868 21.9084 49.9652 22.1322 49.7932 22.3924C49.6212 22.6527 49.5021 22.9443 49.4428 23.2506C49.3835 23.5568 49.3851 23.8718 49.4475 24.1775C50.3748 28.681 49.8252 33.3634 47.8803 37.5298C45.9354 41.6961 42.6988 45.1243 38.6511 47.3054C34.6033 49.4865 29.9602 50.3042 25.4109 49.6371C20.8615 48.9701 16.6486 46.8539 13.3973 43.6027C10.1461 40.3514 8.02985 36.1384 7.36283 31.5891C6.69581 27.0398 7.51352 22.3966 9.6946 18.3489C11.8757 14.3012 15.3038 11.0646 19.4702 9.11969C23.6366 7.17477 28.319 6.62517 32.8225 7.55246C33.4524 7.67844 34.1065 7.54904 34.641 7.19272C35.1755 6.8364 35.5465 6.28235 35.6725 5.65246C35.7985 5.02257 35.6691 4.36844 35.3128 3.83396C34.9564 3.29948 34.4024 2.92844 33.7725 2.80246C32.0344 2.47863 30.2675 2.33537 28.5 2.37496C23.333 2.37496 18.282 3.90717 13.9857 6.77782C9.68951 9.64847 6.341 13.7286 4.36366 18.5024C2.38632 23.2761 1.86896 28.5289 2.877 33.5967C3.88504 38.6645 6.3732 43.3195 10.0268 46.9731C13.6805 50.6268 18.3355 53.1149 23.4033 54.123C28.471 55.131 33.7239 54.6137 38.4976 52.6363C43.2713 50.659 47.3515 47.3105 50.2222 43.0142C53.0928 38.718 54.625 33.667 54.625 28.5C54.6301 26.745 54.455 24.9942 54.1025 23.275C54.0456 22.965 53.9276 22.6695 53.7554 22.4056C53.5831 22.1417 53.3601 21.9147 53.0993 21.7379C52.8384 21.5611 52.545 21.4379 52.2361 21.3756C51.9272 21.3133 51.609 21.3131 51.3 21.375ZM26.125 21.375V23.75C26.1355 25.5076 26.7953 27.1993 27.9775 28.5C26.7953 29.8006 26.1355 31.4923 26.125 33.25V35.625C26.125 37.5146 26.8757 39.3269 28.2119 40.6631C29.5481 41.9993 31.3603 42.75 33.25 42.75H35.625C37.5147 42.75 39.327 41.9993 40.6632 40.6631C41.9993 39.3269 42.75 37.5146 42.75 35.625V33.25C42.7395 31.4923 42.0798 29.8006 40.8975 28.5C42.0798 27.1993 42.7395 25.5076 42.75 23.75V21.375C42.75 19.4853 41.9993 17.673 40.6632 16.3368C39.327 15.0006 37.5147 14.25 35.625 14.25H33.25C31.3603 14.25 29.5481 15.0006 28.2119 16.3368C26.8757 17.673 26.125 19.4853 26.125 21.375ZM38 35.625C38 36.2549 37.7498 36.8589 37.3044 37.3043C36.859 37.7497 36.2549 38 35.625 38H33.25C32.6201 38 32.016 37.7497 31.5706 37.3043C31.1252 36.8589 30.875 36.2549 30.875 35.625V33.25C30.875 32.6201 31.1252 32.016 31.5706 31.5706C32.016 31.1252 32.6201 30.875 33.25 30.875H35.625C36.2549 30.875 36.859 31.1252 37.3044 31.5706C37.7498 32.016 38 32.6201 38 33.25V35.625ZM38 21.375V23.75C38 24.3799 37.7498 24.9839 37.3044 25.4293C36.859 25.8747 36.2549 26.125 35.625 26.125H33.25C32.6201 26.125 32.016 25.8747 31.5706 25.4293C31.1252 24.9839 30.875 24.3799 30.875 23.75V21.375C30.875 20.7451 31.1252 20.141 31.5706 19.6956C32.016 19.2502 32.6201 19 33.25 19H35.625C36.2549 19 36.859 19.2502 37.3044 19.6956C37.7498 20.141 38 20.7451 38 21.375Z" fill="#545454"/>
</svg>
