<svg width="36" height="36" fill="none" xmlns="http://www.w3.org/2000/svg"><g clip-path="url(#a)" fill="#7D0707"><path d="M18 2A11.79 11.79 0 0 0 6.22 13.73c0 4.67 2.62 8.58 4.54 11.43l.35.52a99.628 99.628 0 0 0 6.14 8l.76.89.76-.89a99.816 99.816 0 0 0 6.14-8l.35-.53c1.91-2.85 4.53-6.75 4.53-11.42A11.79 11.79 0 0 0 18 2Zm0 17a6.56 6.56 0 1 1 0-13.119A6.56 6.56 0 0 1 18 19Z"/><path d="M18 16.17a3.73 3.73 0 1 0 0-7.46 3.73 3.73 0 0 0 0 7.46Z"/></g><defs><clipPath id="a"><path fill="#fff" d="M0 0h36v36H0z"/></clipPath></defs></svg>