<svg width="24" height="24" fill="none" xmlns="http://www.w3.org/2000/svg"><path fill-rule="evenodd" clip-rule="evenodd" d="M5.788 14.02a.747.747 0 0 0 .132.031c.283.667.564 1.334.844 2.002.503 1.202 1.01 2.44 1.121 2.796.139.438.285.736.445.94.083.104.178.196.29.266a1.189 1.189 0 0 0 .981.097c.107-.037.21-.087.304-.15L9.91 20l2.826-1.762 3.265 2.502c.048.037.1.068.156.093.392.17.772.23 1.13.182.356-.05.639-.199.85-.368.242-.195.436-.445.564-.728l.009-.022.003-.008.002-.004v-.002l.001-.001a.752.752 0 0 0 .04-.133l2.98-15.025a.753.753 0 0 0 .014-.146c0-.44-.166-.859-.555-1.112-.334-.217-.705-.227-.94-.209-.252.02-.486.082-.643.132-.088.028-.175.06-.26.094l-.011.005-16.714 6.556-.002.001a2.521 2.521 0 0 0-.547.281c-.227.155-.75.581-.661 1.285.07.56.454.905.689 1.071.128.091.25.156.34.199.04.02.126.054.163.07l.01.003 3.169 1.066Zm14.138-9.151h-.002a.819.819 0 0 1-.026.011L3.164 11.444a.81.81 0 0 1-.026.01l-.01.003a1.1 1.1 0 0 0-.09.04.86.86 0 0 0 .086.043l3.142 1.058c.056.019.11.044.16.076l10.377-6.075.01-.005a1.998 1.998 0 0 1 .441-.199c.09-.028.357-.107.645-.014a.854.854 0 0 1 .588.689.84.84 0 0 1 .003.424c-.07.275-.262.489-.437.653-.15.14-2.096 2.016-4.015 3.868l-2.613 2.52-.465.45 5.872 4.502c.08.033.165.047.251.04a.23.23 0 0 0 .117-.052.495.495 0 0 0 .103-.12l.002-.001 2.89-14.573c-.091.022-.18.05-.267.086h-.002m-8.461 12.394-1.172-.898-.284 1.805 1.456-.907Zm-2.247-2.68 1.165-1.125 2.613-2.522.973-.938-6.52 3.817.035.082c.411.971.818 1.945 1.22 2.92l.283-1.8a.747.747 0 0 1 .231-.435" fill="#744727"/></svg>