<svg width="32" height="32" viewBox="0 0 32 32" fill="none" xmlns="http://www.w3.org/2000/svg">
<path d="M16 11.34C13.42 11.34 11.34 13.44 11.34 16C11.34 18.56 13.44 20.66 16 20.66C18.56 20.66 20.66 18.56 20.66 16C20.66 13.44 18.56 11.34 16 11.34ZM30 16C30 14.06 30 12.16 29.9 10.22C29.8 7.98 29.28 5.98 27.64 4.36C26 2.72 24.02 2.2 21.78 2.1C19.84 2 17.94 2 16 2C14.06 2 12.16 2 10.22 2.1C7.98 2.2 5.98 2.72 4.36 4.36C2.72 6 2.2 7.98 2.1 10.22C2 12.16 2 14.06 2 16C2 17.94 2 19.84 2.1 21.78C2.2 24.02 2.72 26.02 4.36 27.64C6 29.28 7.98 29.8 10.22 29.9C12.16 30 14.06 30 16 30C17.94 30 19.84 30 21.78 29.9C24.02 29.8 26.02 29.28 27.64 27.64C29.28 26 29.8 24.02 29.9 21.78C30.02 19.86 30 17.94 30 16ZM16 23.18C12.02 23.18 8.82 19.98 8.82 16C8.82 12.02 12.02 8.82 16 8.82C19.98 8.82 23.18 12.02 23.18 16C23.18 19.98 19.98 23.18 16 23.18ZM23.48 10.2C22.56 10.2 21.8 9.46 21.8 8.52C21.8 7.58 22.54 6.84 23.48 6.84C24.42 6.84 25.16 7.58 25.16 8.52C25.1651 8.73907 25.1251 8.95685 25.0425 9.15983C24.9599 9.36281 24.8365 9.54667 24.68 9.7C24.5267 9.85655 24.3428 9.97993 24.1398 10.0625C23.9368 10.1451 23.7191 10.1851 23.5 10.18L23.48 10.2Z" fill="#E2BEAC"/>
</svg>
