<svg width="51" height="51" viewBox="0 0 51 51" fill="none" xmlns="http://www.w3.org/2000/svg">
<path d="M18.0625 31.875H21.25V19.125H14.875V22.3125H18.0625V31.875ZM26.5625 31.875H31.875C32.4771 31.875 32.9821 31.671 33.3901 31.263C33.7981 30.855 34.0014 30.3507 34 29.75V21.25C34 20.6479 33.796 20.1436 33.388 19.737C32.98 19.3304 32.4757 19.1264 31.875 19.125H26.5625C25.9604 19.125 25.4561 19.329 25.0495 19.737C24.6429 20.145 24.4389 20.6493 24.4375 21.25V29.75C24.4375 30.3521 24.6415 30.8571 25.0495 31.2651C25.4575 31.6731 25.9618 31.8764 26.5625 31.875ZM27.625 29.75V26.5625H30.8125V29.75H27.625ZM27.625 24.4375V21.25H30.8125V24.4375H27.625ZM10.625 44.625C9.45625 44.625 8.45608 44.2092 7.6245 43.3776C6.79292 42.546 6.37642 41.5452 6.375 40.375V10.625C6.375 9.45625 6.7915 8.45608 7.6245 7.6245C8.4575 6.79292 9.45767 6.37642 10.625 6.375H40.375C41.5438 6.375 42.5446 6.7915 43.3776 7.6245C44.2106 8.4575 44.6264 9.45767 44.625 10.625V40.375C44.625 41.5438 44.2092 42.5446 43.3776 43.3776C42.546 44.2106 41.5452 44.6264 40.375 44.625H10.625Z" fill="black"/>
</svg>
