<svg width="36" height="36" viewBox="0 0 36 36" fill="none" xmlns="http://www.w3.org/2000/svg">
<g clip-path="url(#clip0_3_349)">
<path d="M18.0002 2C14.8854 2.0026 11.8982 3.23769 9.69102 5.4355C7.48384 7.6333 6.23607 10.6152 6.22021 13.73C6.22021 18.4 8.84022 22.31 10.7602 25.16L11.1102 25.68C13.0205 28.4486 15.0698 31.1187 17.2502 33.68L18.0102 34.57L18.7702 33.68C20.9504 31.1185 22.9996 28.4484 24.9102 25.68L25.2602 25.15C27.1702 22.3 29.7902 18.4 29.7902 13.73C29.7744 10.6135 28.5252 7.63006 26.3159 5.43197C24.1065 3.23388 21.1167 1.99996 18.0002 2ZM18.0002 19C16.7028 19 15.4345 18.6153 14.3557 17.8944C13.2769 17.1736 12.4361 16.1491 11.9396 14.9504C11.4431 13.7517 11.3131 12.4327 11.5663 11.1602C11.8194 9.88769 12.4442 8.71881 13.3616 7.80138C14.279 6.88395 15.4479 6.25917 16.7204 6.00605C17.9929 5.75293 19.3119 5.88284 20.5106 6.37935C21.7093 6.87586 22.7338 7.71667 23.4547 8.79546C24.1755 9.87425 24.5602 11.1426 24.5602 12.44C24.5602 14.1798 23.8691 15.8484 22.6388 17.0786C21.4086 18.3089 19.74 19 18.0002 19Z" fill="#7D0707"/>
<path d="M18 16.17C20.06 16.17 21.73 14.5 21.73 12.44C21.73 10.3799 20.06 8.70996 18 8.70996C15.94 8.70996 14.27 10.3799 14.27 12.44C14.27 14.5 15.94 16.17 18 16.17Z" fill="#7D0707"/>
</g>
<defs>
<clipPath id="clip0_3_349">
<rect width="36" height="36" fill="white"/>
</clipPath>
</defs>
</svg>
