<svg width="24" height="24" fill="none" xmlns="http://www.w3.org/2000/svg"><g clip-path="url(#a)"><path d="m15.924 17.505 1.969-9.282c.08-.393.033-.674-.14-.844-.175-.17-.405-.2-.69-.093L5.49 11.746c-.259.098-.435.21-.529.334-.094.125-.105.244-.033.355.071.112.214.199.428.261l2.96.925 6.87-4.326c.188-.125.33-.152.43-.08.062.044.044.11-.055.2l-5.557 5.023-.215 3.053c.206 0 .406-.098.603-.295l1.446-1.392 3 2.21c.572.32.933.151 1.085-.51ZM24 12a11.73 11.73 0 0 1-.95 4.66c-.635 1.483-1.488 2.76-2.559 3.831-1.071 1.072-2.348 1.924-3.83 2.558A11.73 11.73 0 0 1 12 24c-1.625 0-3.179-.317-4.66-.95-1.483-.635-2.76-1.488-3.831-2.559-1.071-1.071-1.924-2.348-2.558-3.83A11.73 11.73 0 0 1 0 12c0-1.625.317-3.179.95-4.66.635-1.483 1.488-2.76 2.559-3.831C4.58 2.438 5.857 1.585 7.339.95A11.73 11.73 0 0 1 12 0c1.625 0 3.179.317 4.66.95 1.483.635 2.76 1.488 3.831 2.559 1.072 1.071 1.924 2.348 2.558 3.83C23.683 8.821 24 10.375 24 12Z" fill="#5E5E5E"/></g><defs><clipPath id="a"><path fill="#fff" d="M0 0h24v24H0z"/></clipPath></defs></svg>