<svg id="Layer_1" data-name="Layer 1" xmlns="http://www.w3.org/2000/svg" viewBox="0 0 454.71 57.83"><defs><style>.cls-1{opacity:.7}.cls-2{fill:#fff}</style></defs><g class="cls-1"><path class="cls-2" d="M421.32.75V.59H405.2v.16c3.98 1.62 4.7 4.05 4.7 9.39v17.8h-13.11v1.98h13.11v17.79c0 5.34-.73 7.78-4.7 9.4v.16h16.12v-.16c-3.97-1.62-4.7-4.06-4.7-9.4V10.14c0-5.34.73-7.78 4.7-9.39zm16.31 54.76h-2.73V29.97h1.2c6.49 0 8.51 1.44 11.31 8.9h.16V18.96h-.16c-2.8 7.46-4.82 8.9-11.31 8.9h-1.2V2.32h2.73c8.98 0 12.99 3.61 16.92 11.23h.16L452.79 0c-.88.47-2.4.56-3.77.56H423.6v.16c3.93 1.6 4.65 4.01 4.65 10.13v36.12c0 6.13-.72 8.53-4.65 10.13v.16h25.42c1.37 0 2.89.09 3.77.56l1.92-13.55h-.16c-3.93 7.62-7.94 11.23-16.92 11.23z"/></g><g class="cls-1"><path class="cls-2" d="M41.64.73V.57h16.12v.16c-3.98 1.62-4.7 4.05-4.7 9.39v17.8h13.11v1.98H53.06v17.79c0 5.34.73 7.78 4.7 9.4v.16H41.64v-.16c3.97-1.62 4.7-4.06 4.7-9.4V10.12c0-5.34-.73-7.78-4.7-9.39zM23.78.57H4.85C3.47.57 2.02.49 1.13.01L0 16.77h.16C4.21 6.4 6.4 2.1 15.63 2.1h.89v46.24c0 5.34-1.13 7.21-5.02 8.75v.16h16.85v-.16c-3.98-1.54-5.1-3.41-5.1-8.75V2.1h.97c9.15 0 11.34 4.3 15.39 14.66h.16L38.76.56H23.79z"/></g><path class="cls-2" d="M156.53 57.26V7.5H146.5V.57h28.61V7.5h-10.3v49.76h-8.28zM140.83.57h-7.74v35.1h-.36L119.05.57h-7.74v56.69h7.74V19.01h.37l15.03 38.25h6.38V.57zm-46.32 0h8.3v56.69h-8.3zm179.31 39.67V.57h8.36v39.94c0 6.67 1.51 10.14 5.96 10.14s5.96-3.47 5.96-10.14V.57h8.36v39.68c0 9.87-3.47 17.08-14.32 17.08s-14.32-7.21-14.32-17.08zM322.39.57h-12.78v56.69h12.78c11.34 0 15.75-7.47 15.75-23.49v-9.72c0-16.02-4.41-23.49-15.75-23.49zm7.29 34.92c0 11.16-2.07 15.12-8.19 15.12h-3.5V7.23h3.5c6.12 0 8.19 3.96 8.19 15.12v13.14zM255.44.57h-8.38v56.69h23.4v-6.93h-15.02V.57zm113.01 49.76h-15.12V32.37h11.51v-6.92h-11.51V7.5h15.12V.57h-23.22l-.01 56.69h23.23v-6.93zm-164.45 0h-15.12V32.37h11.52v-6.92h-11.52V7.5H204V.57h-23.22v56.69H204v-6.93zm27.55 6.93c-.9-2.79-1.17-5.76-1.53-13.05-.36-6.66-1.3-11.78-7.15-11.78h-3.15l-.04 24.82h-8.14V.75l11.92-.19c11.79 0 16.38 6.39 16.38 16.29 0 8.82-3.78 11.16-9.54 12.15 6.22 1.28 7.49 8.4 7.83 14.76.36 7.02.36 10.35 1.89 13.5h-8.46zm-9.09-31.9c6.93 0 9-1.03 9-7.96 0-6.39-2.07-9.99-9-9.99h-2.79v17.95h2.79z"/></svg>