<svg width="57" height="57" fill="none" xmlns="http://www.w3.org/2000/svg"><path d="M42.75 11.875h2.375v2.375a2.375 2.375 0 1 0 4.75 0v-2.375h2.375a2.375 2.375 0 0 0 0-4.75h-2.375V4.75a2.375 2.375 0 1 0-4.75 0v2.375H42.75a2.375 2.375 0 1 0 0 4.75Zm-26.125 4.75v23.75a2.375 2.375 0 1 0 4.75 0v-23.75a2.375 2.375 0 1 0-4.75 0Zm34.675 4.75a2.374 2.374 0 0 0-1.852 2.802A21.375 21.375 0 1 1 32.822 7.552a2.422 2.422 0 1 0 .95-4.75 25.65 25.65 0 0 0-5.272-.427A26.125 26.125 0 1 0 54.625 28.5a25.642 25.642 0 0 0-.523-5.225 2.376 2.376 0 0 0-2.802-1.9Zm-25.175 0v2.375c.01 1.758.67 3.45 1.852 4.75a7.125 7.125 0 0 0-1.852 4.75v2.375a7.125 7.125 0 0 0 7.125 7.125h2.375a7.125 7.125 0 0 0 7.125-7.125V33.25a7.125 7.125 0 0 0-1.852-4.75 7.125 7.125 0 0 0 1.852-4.75v-2.375a7.125 7.125 0 0 0-7.125-7.125H33.25a7.125 7.125 0 0 0-7.125 7.125ZM38 35.625A2.375 2.375 0 0 1 35.625 38H33.25a2.375 2.375 0 0 1-2.375-2.375V33.25a2.375 2.375 0 0 1 2.375-2.375h2.375A2.375 2.375 0 0 1 38 33.25v2.375Zm0-14.25v2.375a2.375 2.375 0 0 1-2.375 2.375H33.25a2.375 2.375 0 0 1-2.375-2.375v-2.375A2.375 2.375 0 0 1 33.25 19h2.375A2.375 2.375 0 0 1 38 21.375Z" fill="#545454"/></svg>