<svg width="59" height="58" fill="none" xmlns="http://www.w3.org/2000/svg"><path d="M7.375 29c0 2.856.572 5.684 1.684 8.323a21.73 21.73 0 0 0 4.796 7.057 22.156 22.156 0 0 0 7.178 4.714A22.458 22.458 0 0 0 29.5 50.75c2.906 0 5.782-.563 8.467-1.656a22.156 22.156 0 0 0 7.178-4.714 21.728 21.728 0 0 0 4.796-7.057A21.43 21.43 0 0 0 51.625 29a21.43 21.43 0 0 0-1.684-8.323 21.728 21.728 0 0 0-4.796-7.057 22.155 22.155 0 0 0-7.178-4.714A22.457 22.457 0 0 0 29.5 7.25c-2.905 0-5.782.563-8.467 1.656a22.155 22.155 0 0 0-7.178 4.714 21.73 21.73 0 0 0-4.796 7.057A21.43 21.43 0 0 0 7.375 29Z" stroke="#000" stroke-width="2" stroke-linecap="round" stroke-linejoin="round"/><path d="M24.584 25.375c0 .961.388 1.883 1.08 2.563A3.72 3.72 0 0 0 28.27 29a3.72 3.72 0 0 0 2.607-1.062 3.594 3.594 0 0 0 1.08-2.563c0-.961-.388-1.883-1.08-2.563a3.72 3.72 0 0 0-2.607-1.062 3.72 3.72 0 0 0-2.608 1.062 3.594 3.594 0 0 0-1.08 2.563Z" stroke="#000" stroke-width="2" stroke-linecap="round" stroke-linejoin="round"/><path d="M17.209 36.25v-14.5M38.103 29h7.375m-3.687-3.625v7.25m-17.209 0c0 .961.389 1.883 1.08 2.563a3.72 3.72 0 0 0 2.608 1.062 3.72 3.72 0 0 0 2.607-1.062 3.594 3.594 0 0 0 1.08-2.563c0-.961-.388-1.883-1.08-2.563A3.72 3.72 0 0 0 28.271 29a3.72 3.72 0 0 0-2.608 1.062 3.594 3.594 0 0 0-1.08 2.563Z" stroke="#000" stroke-width="2" stroke-linecap="round" stroke-linejoin="round"/></svg>