<svg width="24" height="24" fill="none" xmlns="http://www.w3.org/2000/svg"><path d="M12.5 9a3.5 3.5 0 1 0 0 7 3.5 3.5 0 0 0 0-7Z" fill="#000"/><path fill-rule="evenodd" clip-rule="evenodd" d="M5.957 1.36a59.49 59.49 0 0 1 13.086 0c2.376.266 4.291 2.133 4.57 4.513.516 4.403.516 8.85 0 13.252-.279 2.38-2.194 4.248-4.569 4.514-4.349.481-8.738.481-13.087 0-2.376-.266-4.291-2.133-4.57-4.513a56.95 56.95 0 0 1 0-13.253c.279-2.38 2.194-4.247 4.57-4.512Zm12.798 3.645a1.252 1.252 0 0 0-1.25 1.25 1.248 1.248 0 0 0 1.25 1.248 1.252 1.252 0 0 0 1.251-1.249 1.248 1.248 0 0 0-1.25-1.249ZM6.557 12.5c0-1.573.627-3.082 1.741-4.195a5.948 5.948 0 0 1 8.404 0 5.927 5.927 0 0 1 0 8.39 5.947 5.947 0 0 1-8.404 0 5.927 5.927 0 0 1-1.74-4.195Z" fill="#000"/></svg>