<svg width="24" height="25" viewBox="0 0 24 25" fill="none" xmlns="http://www.w3.org/2000/svg">
<g clip-path="url(#clip0_3_28)">
<path d="M12 0.612915C5.37097 0.612915 0 5.98388 0 12.6129C0 19.2419 5.37097 24.6129 12 24.6129C18.629 24.6129 24 19.2419 24 12.6129C24 5.98388 18.629 0.612915 12 0.612915ZM17.8935 8.83388L15.9242 18.1145C15.779 18.7726 15.3871 18.9323 14.8403 18.6226L11.8403 16.4113L10.3935 17.8048C10.2339 17.9645 10.0984 18.1 9.78871 18.1L10.0016 15.0468L15.5613 10.0242C15.8032 9.8113 15.5081 9.69033 15.1887 9.90324L8.31774 14.229L5.35645 13.3048C4.7129 13.1016 4.69839 12.6613 5.49194 12.3516L17.0613 7.89033C17.5984 7.69679 18.0677 8.02098 17.8935 8.83388Z" fill="#FFC328"/>
</g>
<defs>
<clipPath id="clip0_3_28">
<rect width="24" height="24.7742" fill="white" transform="translate(0 0.22583)"/>
</clipPath>
</defs>
</svg>
