<svg xmlns="http://www.w3.org/2000/svg" viewBox="0 0 512 512" style="enable-background:new 0 0 512 512" xml:space="preserve"><path style="fill:#ffb301" d="m156.408 144.098-2.816.939a13.353 13.353 0 0 1-8.534-1.451v-15.617a17.045 17.045 0 0 0 11.35 16.129zM252.16 168.249a27.552 27.552 0 0 1-13.996 2.219c-15.532-1.707-26.968-17.58-26.968-35.416v-15.617c.538-8.816-6.119-16.428-14.935-17.068h17.068c9.43 0 17.068 7.638 17.068 17.068v15.617a35.748 35.748 0 0 0 21.763 33.197z"/><path style="fill:#ffb301" d="M315.738 102.366c-9.43 0-17.068 7.638-17.068 17.068v17.068c.094 18.852-15.122 34.204-33.974 34.298a33.848 33.848 0 0 1-3.49-.162 35.171 35.171 0 0 1-9.046-2.219 27.552 27.552 0 0 1-13.996 2.219c-15.532-1.707-26.968-17.58-26.968-35.416v-15.788c.538-8.816-6.119-16.428-14.935-17.068-9.43 0-17.068 7.638-17.068 17.068v7.51c.384 8.696-5.632 16.377-14.167 18.092a17.042 17.042 0 0 1-8.534-.683l-2.902.683a13.353 13.353 0 0 1-8.534-1.451v18.519c.137 9.422-7.39 17.179-16.821 17.316a16.942 16.942 0 0 1-3.149-.247h-.512a17.746 17.746 0 0 1-13.654-18.092v-41.646c0-9.43-7.638-17.068-17.068-17.068H76.785v384.032a15.224 15.224 0 0 0 0 3.414c.051.563.196 1.109.427 1.621a17.071 17.071 0 0 0 16.641 12.033h238.953c9.43 0 17.068-7.638 17.068-17.068V102.366h-34.136z"/><path style="fill:#fec108" d="M315.738 102.366v384.032c.538 8.816-6.119 16.428-14.935 17.068H93.853a17.064 17.064 0 0 1-16.3-12.033 4.975 4.975 0 0 1-.768-1.621 15.224 15.224 0 0 1 0-3.414V102.366h17.068c9.43 0 17.068 7.638 17.068 17.068v41.646a17.746 17.746 0 0 0 13.654 18.092h.512c9.285 1.604 18.118-4.625 19.722-13.919a16.91 16.91 0 0 0 .247-3.149V143.33a13.437 13.437 0 0 0 8.534 1.707l2.304-.683a17.065 17.065 0 0 0 8.534.683c8.773-1.451 15.097-9.208 14.764-18.092v-7.51c0-9.43 7.638-17.068 17.068-17.068 8.816.64 15.472 8.252 14.935 17.068v15.617c0 17.836 11.436 34.136 26.968 35.416a27.552 27.552 0 0 0 13.996-2.219 35.181 35.181 0 0 0 9.046 2.219c18.766 1.835 35.467-11.879 37.302-30.646.111-1.101.162-2.21.162-3.32v-17.068c.001-9.421 7.639-17.068 17.069-17.068z"/><path style="fill:#fec108" d="M93.853 503.466H91.72a15.194 15.194 0 0 1-14.167-12.033 17.056 17.056 0 0 0 16.3 12.033zM315.738 102.366c-9.43 0-17.068 7.638-17.068 17.068v17.068c.094 18.852-15.122 34.204-33.974 34.298a33.848 33.848 0 0 1-3.49-.162 35.171 35.171 0 0 1-9.046-2.219 34.13 34.13 0 0 0 18.775-31.917v-17.068c-.538-8.816 6.119-16.428 14.935-17.068h29.868z"/><path d="M332.807 512H93.853c-14.141 0-25.602-11.461-25.602-25.602V102.366a8.537 8.537 0 0 1 8.534-8.534h17.068c14.141 0 25.602 11.461 25.602 25.602v41.646a9.395 9.395 0 0 0 6.998 9.558 8.541 8.541 0 0 0 10.071-8.534v-34.136a8.537 8.537 0 0 1 8.534-8.534 8.537 8.537 0 0 1 8.534 8.534 8.518 8.518 0 0 0 3.072 6.486 8.553 8.553 0 0 0 6.998 1.877 9.38 9.38 0 0 0 6.998-9.387v-7.51c0-14.141 11.461-25.602 25.602-25.602h17.068c14.141 0 25.602 11.461 25.602 25.602v15.617c-.341 13.578 9.584 25.227 23.042 27.053 14.073 1.417 26.618-8.841 28.034-22.914.094-.896.137-1.792.128-2.688v-17.068c0-14.141 11.461-25.602 25.602-25.602h34.136a8.537 8.537 0 0 1 8.534 8.534v384.032c.001 14.141-11.469 25.602-25.601 25.602zM85.319 110.9v375.498a8.537 8.537 0 0 0 8.534 8.534h238.953a8.537 8.537 0 0 0 8.534-8.534V110.9h-25.602a8.537 8.537 0 0 0-8.534 8.534v17.068c.111 23.563-18.894 42.764-42.465 42.875a41.722 41.722 0 0 1-4.387-.205c-22.223-2.705-38.83-21.736-38.489-44.121v-15.617a8.537 8.537 0 0 0-8.534-8.534h-17.068a8.537 8.537 0 0 0-8.534 8.534v7.51c.333 12.861-8.636 24.1-21.25 26.626a25.6 25.6 0 0 1-12.886-1.451v9.985c.205 14.141-11.086 25.764-25.227 25.969a25.721 25.721 0 0 1-4.728-.367c-12.613-2.526-21.583-13.765-21.25-26.626v-41.646a8.537 8.537 0 0 0-8.534-8.534h-8.533z"/><path d="M145.058 469.33H76.785a8.537 8.537 0 0 1-8.534-8.534V251.712c0-21.207 17.196-38.403 38.403-38.403h8.534c21.207 0 38.403 17.196 38.403 38.403v209.084a8.53 8.53 0 0 1-8.533 8.534zm-59.739-17.068h51.204v-200.55c0-11.786-9.55-21.335-21.335-21.335h-8.534c-11.786 0-21.335 9.55-21.335 21.335v200.55z"/><path d="M213.33 469.33h-68.272a8.537 8.537 0 0 1-8.534-8.534V251.712c0-21.207 17.196-38.403 38.403-38.403h8.534c21.207 0 38.403 17.196 38.403 38.403v209.084a8.532 8.532 0 0 1-8.534 8.534zm-59.738-17.068h51.204v-200.55c0-11.786-9.55-21.335-21.335-21.335h-8.534c-11.786 0-21.335 9.55-21.335 21.335v200.55z"/><path d="M281.602 469.33H213.33a8.537 8.537 0 0 1-8.534-8.534V251.712c0-21.207 17.196-38.403 38.403-38.403h8.534c21.207 0 38.403 17.196 38.403 38.403v209.084a8.532 8.532 0 0 1-8.534 8.534zm-59.738-17.068h51.204v-200.55c0-11.786-9.55-21.335-21.335-21.335h-8.534c-11.786 0-21.335 9.55-21.335 21.335v200.55z"/><path d="M349.875 469.33h-68.272a8.537 8.537 0 0 1-8.534-8.534V251.712c0-21.207 17.196-38.403 38.403-38.403h8.534c21.207 0 38.403 17.196 38.403 38.403v209.084a8.532 8.532 0 0 1-8.534 8.534zm-59.739-17.068h51.204v-200.55c0-11.786-9.55-21.335-21.335-21.335h-8.534c-11.786 0-21.335 9.55-21.335 21.335v200.55z"/><path style="fill:#cfd8dc" d="M401.079 162.105h-51.204v34.136h51.204c9.43 0 17.068 7.638 17.068 17.068v196.283c0 9.43-7.638 17.068-17.068 17.068h-51.204v34.136h51.204c28.282 0 51.204-22.922 51.204-51.204V213.309c0-28.273-22.931-51.204-51.204-51.204z"/><path d="M401.079 469.33h-51.204a8.537 8.537 0 0 1-8.534-8.534V162.105a8.537 8.537 0 0 1 8.534-8.534h51.204c32.993 0 59.738 26.746 59.738 59.738v196.283c0 32.992-26.745 59.738-59.738 59.738zm-42.67-17.068h42.67c23.563 0 42.67-19.108 42.67-42.67V213.309c0-23.563-19.108-42.67-42.67-42.67h-42.67v281.623z"/><path d="M401.079 435.194h-51.204a8.537 8.537 0 0 1-8.534-8.534V196.241a8.537 8.537 0 0 1 8.534-8.534h51.204c14.141 0 25.602 11.461 25.602 25.602v196.283c0 14.141-11.47 25.602-25.602 25.602zm-42.67-17.068h42.67a8.537 8.537 0 0 0 8.534-8.534V213.309a8.537 8.537 0 0 0-8.534-8.534h-42.67v213.351z"/><path style="fill:#ffeb3a" d="M375.477 77.447c-.734 14.423-12.972 25.551-27.394 24.919h-32.344c-9.43 0-17.068 7.638-17.068 17.068v15.617c.393 18.015-12.921 33.402-30.808 35.587-18.766 1.835-35.467-11.879-37.302-30.646a33.979 33.979 0 0 1-.162-3.49v-17.068c0-9.43-7.638-17.068-17.068-17.068h-17.068c-9.43 0-17.068 7.638-17.068 17.068v7.51c.307 8.671-5.675 16.309-14.167 18.092-9.285 1.604-18.118-4.625-19.722-13.919a16.91 16.91 0 0 1-.247-3.149v33.112c.307 8.671-5.675 16.309-14.167 18.092-9.285 1.604-18.118-4.625-19.722-13.919a16.91 16.91 0 0 1-.247-3.149v-42.67c0-9.43-7.638-17.068-17.068-17.068h-9.387c-13.544-.444-24.399-11.376-24.749-24.919.734-14.405 12.98-25.508 27.394-24.834a28.4 28.4 0 0 1 21.932 9.985 23.508 23.508 0 0 1-2.304-9.985c0-15.703 15.276-28.504 34.136-28.504 15.131-.87 28.93 8.611 33.539 23.042.341-21.591 20.652-38.659 45.742-38.659s45.486 17.068 45.657 38.915h.597c3.431-14.064 16.257-23.793 30.723-23.298 16.505-.725 30.492 12.007 31.32 28.504a25.616 25.616 0 0 1-1.963 9.643 28.525 28.525 0 0 1 21.591-9.643c14.405-.674 26.651 10.428 27.394 24.834z"/><path d="M127.99 187.707c-14.141 0-25.602-11.461-25.602-25.602v-42.67a8.537 8.537 0 0 0-8.534-8.534h-9.387a8.634 8.634 0 0 1-3.072-.597c-16.829-1.937-29.69-15.925-30.211-32.856.742-19.116 16.804-34.042 35.928-33.368a38.552 38.552 0 0 1 11.777 1.792c5.266-18.664 22.709-31.226 42.073-30.296a46.157 46.157 0 0 1 30.552 11.18C188.556-.111 224.151-8.073 251.016 8.97a57.606 57.606 0 0 1 17.785 17.785 41.301 41.301 0 0 1 28.418-11.009c18.613-.444 34.964 12.246 39.171 30.381a37.822 37.822 0 0 1 11.777-1.877c19.022-.623 35.015 14.175 35.843 33.197-.742 19.133-16.795 34.076-35.928 33.453h-32.344a8.537 8.537 0 0 0-8.534 8.534v15.617c.341 22.385-16.266 41.416-38.489 44.121-23.452 2.313-44.334-14.832-46.647-38.284a41.974 41.974 0 0 1-.205-4.386v-17.068a8.537 8.537 0 0 0-8.534-8.534h-17.068a8.537 8.537 0 0 0-8.534 8.534v7.51c.333 12.861-8.636 24.1-21.25 26.626a25.6 25.6 0 0 1-12.886-1.451v8.961c.333 12.861-8.636 24.1-21.25 26.626-1.45.129-2.909.129-4.351.001zM86.599 93.832h7.254c14.141 0 25.602 11.461 25.602 25.602v42.67a8.518 8.518 0 0 0 3.072 6.486 8.553 8.553 0 0 0 6.998 1.877 9.38 9.38 0 0 0 6.998-9.387v-33.112a8.537 8.537 0 0 1 8.534-8.534 8.537 8.537 0 0 1 8.534 8.534 8.518 8.518 0 0 0 3.072 6.486 8.553 8.553 0 0 0 6.998 1.877 9.38 9.38 0 0 0 6.998-9.387v-7.51c0-14.141 11.461-25.602 25.602-25.602h17.068c14.141 0 25.602 11.461 25.602 25.602v17.068c-.068 14.141 11.333 25.662 25.474 25.73.896.009 1.792-.034 2.688-.128 13.458-1.826 23.383-13.475 23.042-27.053v-15.617c0-14.141 11.461-25.602 25.602-25.602h32.344c9.72.64 18.135-6.674 18.86-16.385-.777-9.678-9.174-16.94-18.86-16.3a19.958 19.958 0 0 0-15.276 7.083 8.537 8.537 0 0 1-14.338-8.534 17.112 17.112 0 0 0 1.365-6.486c-.819-11.786-10.992-20.704-22.786-19.97a22.02 22.02 0 0 0-22.274 15.873 8.527 8.527 0 0 1-8.534 6.827 9.043 9.043 0 0 1-9.131-8.534c0-17.068-17.068-30.467-37.123-30.467s-36.952 13.569-37.123 30.211c.521 4.711-2.885 8.952-7.595 9.473-4.711.521-8.952-2.885-9.473-7.595-3.746-10.71-14.303-17.503-25.602-16.471-14.167 0-25.602 8.534-25.602 19.97a14.963 14.963 0 0 0 1.451 6.315c1.664 4.412-.572 9.336-4.975 10.992a8.55 8.55 0 0 1-8.679-1.604 19.791 19.791 0 0 0-15.361-6.913c-9.592-.589-17.913 6.554-18.775 16.129.367 9.157 7.903 16.394 17.068 16.385l1.281.001z"/></svg>