<svg width="40" height="40" viewBox="0 0 40 40" fill="none" xmlns="http://www.w3.org/2000/svg">
<path d="M20 3.75C11.0398 3.75 3.75 11.0398 3.75 20C3.75 28.9602 11.0398 36.25 20 36.25C28.9602 36.25 36.25 28.9602 36.25 20C36.25 11.0398 28.9602 3.75 20 3.75ZM31.1719 27.5H27.6391C27.5296 27.4998 27.4221 27.4708 27.3274 27.4159C27.2326 27.3611 27.154 27.2823 27.0992 27.1875L25.8383 25.025C25.7553 24.8836 25.7311 24.7153 25.7711 24.5563L26.932 19.875C26.9553 19.7807 27.0003 19.6931 27.0633 19.6192C27.1264 19.5453 27.2058 19.4871 27.2953 19.4492L29.4906 18.5195C29.5979 18.474 29.7158 18.4594 29.8309 18.4774C29.946 18.4953 30.0538 18.5451 30.1422 18.6211L33.3945 21.4195C33.4747 21.4886 33.536 21.5768 33.5728 21.676C33.6096 21.7752 33.6205 21.8821 33.6047 21.9867C33.3353 23.8346 32.6897 25.6076 31.7078 27.1961C31.6523 27.2887 31.5738 27.3654 31.4799 27.4187C31.386 27.4719 31.2798 27.5 31.1719 27.5ZM10.5094 18.5258L12.7047 19.4555C12.7942 19.4933 12.8736 19.5515 12.9367 19.6254C12.9997 19.6993 13.0447 19.7869 13.068 19.8813L14.2289 24.5625C14.2689 24.7215 14.2447 24.8899 14.1617 25.0312L12.9008 27.1875C12.846 27.2823 12.7674 27.3611 12.6726 27.4159C12.5779 27.4708 12.4704 27.4998 12.3609 27.5H8.82812C8.72128 27.5001 8.6162 27.4727 8.52292 27.4206C8.42964 27.3685 8.35127 27.2934 8.29531 27.2023C7.31339 25.6139 6.66779 23.8409 6.39844 21.993C6.3826 21.8884 6.39357 21.7815 6.43033 21.6823C6.46709 21.5831 6.52842 21.4948 6.60859 21.4258L9.86094 18.6273C9.94897 18.552 10.0562 18.5025 10.1708 18.4846C10.2853 18.4667 10.4025 18.4809 10.5094 18.5258ZM30.5828 11.7102L29.1711 15.7242C29.1427 15.8063 29.0976 15.8815 29.0385 15.9451C28.9795 16.0087 28.9078 16.0593 28.8281 16.0938L26.5172 17.0727C26.4111 17.1175 26.2948 17.1322 26.1809 17.1151C26.067 17.098 25.9601 17.0498 25.8719 16.9758L21.4766 13.2891C21.4063 13.231 21.3497 13.1582 21.3105 13.0759C21.2714 12.9935 21.2507 12.9037 21.25 12.8125V10.1891C21.2501 10.0863 21.2755 9.98508 21.324 9.89446C21.3725 9.80384 21.4426 9.72658 21.5281 9.66953L24.8742 7.43984C24.9615 7.38156 25.0621 7.34621 25.1667 7.33706C25.2713 7.32791 25.3765 7.34526 25.4727 7.3875C27.398 8.22724 29.1066 9.49475 30.4688 11.0938C30.5404 11.1773 30.5886 11.2784 30.6087 11.3866C30.6287 11.4949 30.6198 11.6065 30.5828 11.7102ZM15.125 7.43984L18.4719 9.66953C18.5574 9.72658 18.6275 9.80384 18.676 9.89446C18.7245 9.98508 18.7499 10.0863 18.75 10.1891V12.8125C18.75 12.9038 18.73 12.994 18.6914 13.0767C18.6528 13.1595 18.5965 13.2327 18.5266 13.2914L14.1313 16.9781C14.043 17.0522 13.9361 17.1004 13.8222 17.1175C13.7084 17.1346 13.592 17.1199 13.4859 17.075L11.1719 16.0938C11.0917 16.0598 11.0195 16.0094 10.9599 15.9459C10.9003 15.8824 10.8546 15.8072 10.8258 15.725L9.41406 11.7109C9.37738 11.6069 9.36889 11.495 9.38948 11.3866C9.41006 11.2781 9.45897 11.1771 9.53125 11.0938C10.8941 9.49314 12.6042 8.22451 14.5312 7.38437C14.627 7.34342 14.7315 7.32704 14.8352 7.33673C14.9389 7.34642 15.0385 7.38186 15.125 7.43984ZM16.4773 33.0227L14.9359 29.1406C14.9007 29.0524 14.886 28.9573 14.8931 28.8625C14.9001 28.7677 14.9287 28.6758 14.9766 28.5938L16.1617 26.5625C16.2165 26.4677 16.2951 26.3889 16.3899 26.3341C16.4846 26.2792 16.5921 26.2502 16.7016 26.25H23.2984C23.4079 26.2502 23.5154 26.2792 23.6101 26.3341C23.7049 26.3889 23.7835 26.4677 23.8383 26.5625L25.0242 28.5938C25.0722 28.6758 25.1009 28.7676 25.1081 28.8624C25.1153 28.9572 25.1008 29.0523 25.0656 29.1406L23.5352 33.0211C23.4977 33.116 23.4376 33.2002 23.3602 33.2666C23.2827 33.3329 23.1901 33.3792 23.0906 33.4016C21.0597 33.8677 18.9496 33.8677 16.9187 33.4016C16.82 33.3789 16.7282 33.3326 16.6513 33.2666C16.5744 33.2006 16.5147 33.1169 16.4773 33.0227Z" fill="#FFD362"/>
</svg>
