<!-- icon666.com - MILLIONS vector ICONS FREE --><svg version="1.1" id="Capa_1" xmlns="http://www.w3.org/2000/svg" xmlns:xlink="http://www.w3.org/1999/xlink" x="0px" y="0px" viewBox="0 0 472 472" style="enable-background:new 0 0 472 472;" xml:space="preserve"><g><g><path d="M332,216h-56v-8c0-4.418-3.582-8-8-8h-24v-8h8c4.418,0,8-3.582,8-8v-8h16v-16h-16v-12.648 c32.767-13.255,48.584-50.563,35.33-83.33c-13.255-32.767-50.563-48.584-83.33-35.33s-48.584,50.563-35.33,83.33 c6.503,16.077,19.253,28.826,35.33,35.33V160h-16v16h16v8c0,4.418,3.582,8,8,8h8v8h-24c-4.418,0-8,3.582-8,8v8h-56 c-39.744,0.048-71.952,32.256-72,72v176c0,4.418,3.582,8,8,8h320c4.418,0,8-3.582,8-8V288 C403.952,248.256,371.744,216.048,332,216z M222.28,134.008C201.869,128.037,187.883,109.266,188,88 c0.006-26.51,21.501-47.995,48.011-47.989c26.51,0.006,47.995,21.501,47.989,48.011c-0.005,21.221-13.944,39.921-34.28,45.987 c-3.395,1.009-5.722,4.13-5.72,7.672V160h-16v-18.32C228.002,138.138,225.675,135.017,222.28,134.008z M212,216h48v32l-19.2-14.4 c-2.844-2.133-6.756-2.133-9.6,0L212,248V216z M388,456h-40V280h-16v176H140V280h-16v176H84V288c0.035-30.913,25.087-55.965,56-56 h56v32c0,4.418,3.582,8,8,8c1.731,0,3.415-0.561,4.8-1.6L236,250l27.2,20.4c0.652,0.476,1.372,0.851,2.136,1.112 c0.263,0.079,0.53,0.143,0.8,0.192c0.493,0.127,0.996,0.208,1.504,0.24c0.12,0,0.232,0.056,0.344,0.056s0.248-0.08,0.376-0.088 c1.108-0.023,2.198-0.279,3.2-0.752c2.719-1.351,4.438-4.124,4.44-7.16v-32h56c30.913,0.035,55.965,25.087,56,56V456z" fill="#ffffff"></path></g></g><g><g><path d="M251.984,271.576c-0.225-4.246-3.732-7.573-7.984-7.576h-16c-4.258-0.006-7.774,3.324-8,7.576l-8,152 c-0.119,2.266,0.73,4.476,2.336,6.08l16,16c3.124,3.123,8.188,3.123,11.312,0l16-16c1.606-1.604,2.455-3.814,2.336-6.08 L251.984,271.576z M236,428.688l-7.824-7.824L235.592,280h0.8l7.416,140.864L236,428.688z" fill="#ffffff"></path></g></g><g><g><rect x="284" y="288" width="32" height="16"></rect></g></g><g><g><path d="M196,88h16c0-13.255,10.745-24,24-24V48C213.92,48.026,196.026,65.92,196,88z" fill="#ffffff"></path></g></g><g><g><rect x="228" width="16" height="16"></rect></g></g><g><g><rect x="284.563" y="23.438" transform="matrix(0.7071 -0.7071 0.7071 0.7071 63.46 216.0818)" width="16" height="16"></rect></g></g><g><g><rect x="308" y="80" width="16" height="16"></rect></g></g><g><g><rect x="171.433" y="23.432" transform="matrix(0.7071 -0.7071 0.7071 0.7071 30.3288 136.0845)" width="16" height="16"></rect></g></g><g><g><rect x="148" y="80" width="16" height="16"></rect></g></g></svg>