<!-- icon666.com - MILLIONS vector ICONS FREE --><svg viewBox="0 0 512.002 512" xmlns="http://www.w3.org/2000/svg"><path d="m470 110h-70.613281c-5.519531 0-10 4.476562-10 10s4.480469 10 10 10h70.613281c12.128906 0 22 9.871094 22 22v200c0 3.902344-1.058594 7.65625-2.9375 10.929688v-8.972657c0-15.394531-12.527344-27.925781-27.925781-27.925781-3.863281 0-7.542969.789062-10.886719 2.210938-4.597656-9.136719-14.0625-15.417969-24.96875-15.417969-4.171875 0-8.136719.917969-11.695312 2.566406-4.84375-8.316406-13.855469-13.921875-24.15625-13.921875-2.75 0-5.414063.398438-7.925782 1.144531v-31.84375c0-15.398437-12.527344-27.925781-27.925781-27.925781-13.773437 0-25.242187 10.023438-27.511719 23.15625h-2.070312c-5.519532 0-10 4.476562-10 10s4.480468 10 10 10h1.65625v28h-139.308594v-28h1.65625c5.519531 0 10-4.476562 10-10s-4.480469-10-10-10h-2.070312c-2.269532-13.132812-13.738282-23.15625-27.511719-23.15625-15.398438 0-27.925781 12.527344-27.925781 27.925781v31.84375c-2.511719-.746093-5.171876-1.144531-7.925782-1.144531-10.300781 0-19.3125 5.605469-24.15625 13.921875-3.558594-1.648437-7.523437-2.566406-11.695312-2.566406-10.90625 0-20.371094 6.28125-24.964844 15.417969-3.347656-1.421876-7.027344-2.210938-10.886719-2.210938-15.398437 0-27.925781 12.527344-27.925781 27.925781v8.96875c-1.878906-3.265625-2.9375-7.019531-2.9375-10.925781v-200c0-12.128906 9.867188-22 22-22h273.941406c5.523438 0 10-4.476562 10-10s-4.476562-10-10-10h-49.816406v-20c0-19.851562-16.148438-36-36-36h-97.792969c-8.824219 0-16-7.175781-16-16v-28c0-5.523438-4.476562-10-10-10-5.523437 0-10 4.476562-10 10v28c0 19.851562 16.148438 36 36 36h97.792969c8.820312 0 16 7.179688 16 16v20h-204.125c-23.160156 0-42 18.839844-42 42v200c0 15.816406 9.054688 30.324219 22.9375 37.425781v27.441407c0 18.535156 2.8125 36.902343 8.355469 54.589843l10.519531 33.535157c1.339844 4.273437 5.285156 7.007812 9.539062 7.007812.988282 0 2-.148438 2.996094-.460938 5.269532-1.652343 8.199219-7.261718 6.546875-12.53125l-10.515625-33.535156c-4.9375-15.75-7.441406-32.101562-7.441406-48.605468v-62.90625c0-4.371094 3.554688-7.925782 7.925781-7.925782 4.371094 0 7.925781 3.554688 7.925781 7.925782v21.878906c0 5.523437 4.480469 10 10 10 5.523438 0 10-4.476563 10-10v-35.089844c0-4.371094 3.554688-7.925781 7.925782-7.925781s7.929687 3.554687 7.929687 7.925781v35.089844c0 5.523437 4.476563 10 10 10 5.519531 0 9.996094-4.476563 9.996094-10v-46.445313c0-4.371093 3.558594-7.925781 7.929687-7.925781 4.371094 0 7.925782 3.558594 7.925782 7.925781v46.445313c0 5.523437 4.476562 10 10 10 5.519531 0 10-4.476563 10-10v-105.070313c0-4.371093 3.554687-7.925781 7.925781-7.925781s7.925781 3.554688 7.925781 7.925781v129.808594c0 4.578125 3.109375 8.570313 7.550782 9.691406 4.4375 1.125 9.070312-.910156 11.246093-4.941406l21.054688-38.984375c2.308593-4.269531 7.511719-5.902344 11.84375-3.71875 3.710937 1.871094 5.621093 6 4.644531 10.039062l-13.644531 56.570313c-2.648438 10.976563-7.371094 21.160156-14.03125 30.277344l-26.742188 36.585937c-3.257812 4.460938-2.28125 10.71875 2.175781 13.976563 4.460938 3.257812 10.714844 2.285156 13.976563-2.175781l26.734375-36.585938c8.226562-11.257812 14.054688-23.835938 17.324219-37.386719l9.628906-39.925781h35.777344l9.632812 39.925781c3.269531 13.550781 9.097657 26.128907 17.320313 37.386719l26.738281 36.585938c3.257813 4.460937 9.515625 5.429687 13.972656 2.171874 4.460938-3.257812 5.433594-9.511718 2.175781-13.972656l-26.738281-36.585937c-6.660156-9.117188-11.378906-19.304688-14.027343-30.277344l-13.648438-56.574219c-.972656-4.035156.9375-8.164062 4.644531-10.035156 4.332031-2.1875 9.539063-.554688 11.847657 3.71875l21.050781 38.984375c2.175781 4.027344 6.816406 6.066406 11.25 4.941406 4.4375-1.121093 7.550781-5.117187 7.550781-9.695312v-129.804688c0-4.371093 3.554688-7.925781 7.925781-7.925781 4.367188 0 7.925781 3.554688 7.925781 7.925781v105.070313c0 5.523437 4.476563 10 10 10 5.519532 0 10-4.476563 10-10v-46.445313c0-4.371093 3.554688-7.925781 7.925782-7.925781s7.925781 3.554688 7.925781 7.925781v46.445313c0 5.523437 4.476563 10 10 10s10-4.476563 10-10v-35.089844c0-4.371094 3.554687-7.925781 7.925781-7.925781s7.925782 3.554687 7.925782 7.925781v35.089844c0 5.523437 4.480468 10 10 10 5.523437 0 10-4.476563 10-10v-21.882813c0-4.367187 3.558593-7.925781 7.929687-7.925781 4.367187 0 7.925781 3.558594 7.925781 7.925781v62.910157c0 16.503906-2.503906 32.855468-7.441406 48.605468l-10.519531 33.535156c-1.652344 5.269532 1.28125 10.878907 6.550781 12.53125.996094.3125 2.003906.460938 2.996094.460938 4.253906 0 8.195312-2.734375 9.539062-7.011719l10.515625-33.53125c5.546875-17.691406 8.359375-36.058593 8.359375-54.59375v-27.464843c13.972656-7.136719 22.9375-21.640626 22.9375-37.398438v-200c-.007812-23.160156-18.847656-42-42.003906-42zm-146.601562 246.839844c-7.488282-13.867188-24.378907-19.167969-38.449219-12.070313-11.015625 5.558594-17.117188 17.242188-15.660157 29.230469h-26.578124c1.457031-11.988281-4.648438-23.675781-15.660157-29.230469-14.070312-7.097656-30.960937-1.796875-38.453125 12.070313l-2.253906 4.175781v-27.015625h139.308594v27.015625zm0 0" fill="#ffffff"></path><path d="m100 170h-40c-5.523438 0-10 4.476562-10 10s4.476562 10 10 10h40c5.523438 0 10-4.476562 10-10s-4.476562-10-10-10zm0 0" fill="#ffffff"></path><path d="m188 170h-40c-5.523438 0-10 4.476562-10 10s4.476562 10 10 10h40c5.519531 0 10-4.476562 10-10s-4.476562-10-10-10zm0 0" fill="#ffffff"></path><path d="m276 170h-40c-5.523438 0-10 4.476562-10 10s4.476562 10 10 10h40c5.519531 0 10-4.476562 10-10s-4.476562-10-10-10zm0 0" fill="#ffffff"></path><path d="m324 170c-5.523438 0-10 4.476562-10 10s4.476562 10 10 10h40c5.519531 0 10-4.476562 10-10s-4.480469-10-10-10zm0 0" fill="#ffffff"></path><path d="m412 190h40c5.519531 0 10-4.476562 10-10s-4.480469-10-10-10h-40c-5.523438 0-10 4.476562-10 10s4.476562 10 10 10zm0 0" fill="#ffffff"></path><path d="m100 218h-40c-5.523438 0-10 4.476562-10 10s4.476562 10 10 10h40c5.523438 0 10-4.476562 10-10s-4.476562-10-10-10zm0 0" fill="#ffffff"></path><path d="m188 218h-40c-5.523438 0-10 4.476562-10 10s4.476562 10 10 10h40c5.519531 0 10-4.476562 10-10s-4.476562-10-10-10zm0 0" fill="#ffffff"></path><path d="m276 218h-40c-5.523438 0-10 4.476562-10 10s4.476562 10 10 10h40c5.519531 0 10-4.476562 10-10s-4.476562-10-10-10zm0 0" fill="#ffffff"></path><path d="m364 218h-40c-5.523438 0-10 4.476562-10 10s4.476562 10 10 10h40c5.519531 0 10-4.476562 10-10s-4.476562-10-10-10zm0 0" fill="#ffffff"></path><path d="m412 238h40c5.519531 0 10-4.476562 10-10s-4.480469-10-10-10h-40c-5.523438 0-10 4.476562-10 10s4.476562 10 10 10zm0 0" fill="#ffffff"></path><path d="m100 266h-40c-5.523438 0-10 4.476562-10 10s4.476562 10 10 10h40c5.523438 0 10-4.476562 10-10s-4.476562-10-10-10zm0 0" fill="#ffffff"></path><path d="m276 266h-40c-5.523438 0-10 4.476562-10 10s4.476562 10 10 10h40c5.519531 0 10-4.476562 10-10s-4.476562-10-10-10zm0 0" fill="#ffffff"></path><path d="m412 286h40c5.519531 0 10-4.476562 10-10s-4.480469-10-10-10h-40c-5.523438 0-10 4.476562-10 10s4.476562 10 10 10zm0 0" fill="#ffffff"></path><path d="m357.667969 110c-2.640625 0-5.210938 1.070312-7.070313 2.929688-1.867187 1.859374-2.929687 4.441406-2.929687 7.070312s1.0625 5.210938 2.929687 7.070312c1.859375 1.859376 4.441406 2.929688 7.070313 2.929688 2.628906 0 5.199219-1.070312 7.070312-2.929688 1.859375-1.859374 2.929688-4.441406 2.929688-7.070312s-1.070313-5.210938-2.929688-7.070312c-1.859375-1.859376-4.441406-2.929688-7.070312-2.929688zm0 0" fill="#ffffff"></path><path d="m399.386719 85.167969c2.5625 0 5.117187-.976563 7.070312-2.929688l14.160157-14.15625c3.902343-3.90625 3.902343-10.238281 0-14.140625-3.90625-3.90625-10.238282-3.90625-14.144532 0l-14.15625 14.15625c-3.90625 3.90625-3.90625 10.238282 0 14.140625 1.953125 1.953125 4.511719 2.929688 7.070313 2.929688zm0 0" fill="#ffffff"></path><path d="m308.871094 82.238281c1.953125 1.953125 4.511718 2.929688 7.070312 2.929688s5.121094-.976563 7.074219-2.929688c3.902344-3.902343 3.902344-10.234375 0-14.140625l-14.15625-14.15625c-3.90625-3.90625-10.234375-3.90625-14.144531 0-3.90625 3.902344-3.90625 10.234375 0 14.140625zm0 0" fill="#ffffff"></path><path d="m357.664062 86.949219c5.523438 0 10-4.476563 10-10v-66.949219c0-5.523438-4.476562-10-10-10-5.519531 0-10 4.476562-10 10v66.949219c0 5.523437 4.480469 10 10 10zm0 0" fill="#ffffff"></path></svg>