<!-- icon666.com - MILLIONS vector ICONS FREE --><svg version="1.1" id="Layer_1" xmlns="http://www.w3.org/2000/svg" xmlns:xlink="http://www.w3.org/1999/xlink" x="0px" y="0px" viewBox="0 0 511.999 511.999" style="enable-background:new 0 0 511.999 511.999;" xml:space="preserve"><g><g><path d="M501.999,37.668H10c-5.523,0-10,4.478-10,10v111.352v305.31c0,5.523,4.477,10,10,10h491.999c5.523,0,10-4.477,10-10 v-305.31V47.668C511.999,42.146,507.522,37.668,501.999,37.668z M20,454.331V429.99h399.45c5.523,0,10-4.478,10-10 c0-5.522-4.477-10-10-10H20v-240.97h49.433L41.399,214.49c-0.973,1.577-1.488,3.395-1.488,5.248v154.7c0,5.522,4.477,10,10,10 h167.227c5.523,0,10-4.478,10-10v-154.7c0-1.854-0.515-3.671-1.488-5.248l-28.034-45.469h294.382v285.311H20z M92.929,169.021 h81.192l33.017,53.552v141.865H59.911V222.573L92.929,169.021z M491.999,149.02H179.704H87.346H20V57.668h471.999V149.02z" fill="#ffffff"></path></g></g><g><g><path d="M458.97,71.659H330.405c-5.523,0-10,4.478-10,10v43.371c0,5.522,4.477,10,10,10H458.97c5.523,0,10-4.478,10-10V81.659 C468.97,76.137,464.493,71.659,458.97,71.659z M448.97,115.03H340.405V91.659H448.97V115.03z" fill="#ffffff"></path></g></g><g><g><path d="M101.819,101.393c-0.13-0.64-0.32-1.271-0.57-1.87c-0.25-0.61-0.56-1.19-0.92-1.729c-0.36-0.551-0.78-1.061-1.24-1.521 c-2.32-2.32-5.78-3.39-9.02-2.729c-0.64,0.13-1.27,0.319-1.88,0.569c-0.6,0.25-1.18,0.561-1.72,0.92 c-0.55,0.36-1.06,0.78-1.52,1.24c-0.46,0.46-0.88,0.97-1.24,1.521c-0.36,0.539-0.67,1.119-0.92,1.729 c-0.25,0.6-0.45,1.23-0.57,1.87c-0.13,0.64-0.2,1.3-0.2,1.95c0,0.649,0.07,1.31,0.2,1.96c0.13,0.63,0.32,1.26,0.57,1.87 c0.25,0.6,0.56,1.18,0.92,1.72c0.36,0.55,0.78,1.06,1.24,1.52c0.46,0.46,0.97,0.881,1.52,1.25c0.54,0.36,1.12,0.67,1.73,0.92 c0.6,0.25,1.23,0.44,1.87,0.57c0.64,0.13,1.3,0.19,1.95,0.19c0.65,0,1.31-0.061,1.95-0.19c0.64-0.13,1.27-0.32,1.87-0.57 c0.61-0.25,1.19-0.56,1.73-0.92c0.55-0.369,1.06-0.79,1.52-1.25c0.46-0.46,0.88-0.97,1.24-1.52c0.36-0.54,0.67-1.12,0.92-1.72 c0.25-0.61,0.44-1.24,0.57-1.87c0.13-0.65,0.2-1.311,0.2-1.96C102.019,102.693,101.949,102.031,101.819,101.393z" fill="#ffffff"></path></g></g><g><g><path d="M271.668,93.344H133.525c-5.523,0-10,4.478-10,10c0,5.522,4.477,10,10,10h138.143c5.523,0,10-4.478,10-10 C281.668,97.823,277.191,93.344,271.668,93.344z" fill="#ffffff"></path></g></g><g><g><path d="M470.759,418.032c-0.13-0.63-0.32-1.26-0.57-1.87c-0.25-0.6-0.56-1.18-0.92-1.72c-0.36-0.55-0.78-1.059-1.24-1.519 c-1.87-1.87-4.44-2.931-7.07-2.931c-2.64,0-5.21,1.06-7.08,2.931c-0.46,0.46-0.88,0.97-1.24,1.519c-0.36,0.54-0.67,1.12-0.92,1.72 c-0.25,0.61-0.44,1.23-0.57,1.87c-0.13,0.65-0.19,1.3-0.19,1.96c0,2.63,1.06,5.21,2.92,7.07c1.86,1.86,4.44,2.93,7.08,2.93 c2.63,0,5.21-1.069,7.07-2.93c0.46-0.46,0.88-0.98,1.24-1.52c0.36-0.54,0.67-1.131,0.92-1.73s0.44-1.23,0.57-1.87 s0.2-1.3,0.2-1.95C470.959,419.332,470.889,418.682,470.759,418.032z" fill="#ffffff"></path></g></g><g><g><path d="M133.525,179.067c-22.572,0-40.936,18.363-40.936,40.936c0,22.572,18.364,40.935,40.936,40.935 c22.572,0,40.936-18.363,40.936-40.935C174.461,197.431,156.097,179.067,133.525,179.067z M133.525,240.938 c-11.544,0-20.936-9.392-20.936-20.934c0-11.545,9.392-20.936,20.936-20.936s20.936,9.392,20.936,20.936 C154.461,231.547,145.069,240.938,133.525,240.938z" fill="#ffffff"></path></g></g><g><g><path d="M460.955,196.398H280.469c-5.523,0-10,4.477-10,10v168.039c0,5.522,4.477,10,10,10h180.486c5.523,0,10-4.478,10-10 V206.398C470.955,200.875,466.478,196.398,460.955,196.398z M450.955,364.438H290.469V216.398h160.486V364.438z" fill="#ffffff"></path></g></g></svg>