<svg width="51" height="51" fill="none" xmlns="http://www.w3.org/2000/svg"><path d="M18.063 31.875h3.187v-12.75h-6.375v3.188h3.188v9.562Zm8.5 0h5.312c.602 0 1.107-.204 1.515-.612.408-.408.611-.912.61-1.513v-8.5c0-.602-.204-1.106-.612-1.513-.408-.407-.912-.61-1.513-.612h-5.313c-.602 0-1.106.204-1.513.612-.406.408-.61.912-.611 1.513v8.5c0 .602.204 1.107.611 1.515.409.408.913.611 1.514.61Zm1.062-2.125v-3.188h3.188v3.188h-3.188Zm0-5.313V21.25h3.188v3.188h-3.188Zm-17 20.188c-1.169 0-2.169-.416-3-1.247-.832-.832-1.249-1.833-1.25-3.003v-29.75c0-1.169.417-2.169 1.25-3 .832-.832 1.833-1.249 3-1.25h29.75c1.169 0 2.17.417 3.003 1.25.833.832 1.248 1.833 1.247 3v29.75c0 1.169-.416 2.17-1.247 3.003-.832.833-1.833 1.248-3.003 1.247h-29.75Z" fill="#000"/></svg>