<svg width="227" height="41" viewBox="0 0 227 41" fill="none" xmlns="http://www.w3.org/2000/svg">
<path d="M16.9625 4.27816V20.415L13.2848 18.3135C6.75497 14.5607 2.70198 7.58058 2.70198 0H0V18.4636C0 24.468 3.45253 30.0221 8.93157 32.649L17.0375 36.5519V20.415L20.7152 22.5166C27.245 26.2693 31.298 33.2495 31.298 40.83H34V22.3664C34 16.362 30.5475 10.8079 25.0684 8.18101L16.9625 4.27816Z" fill="#7051F8"/>
<path d="M46 33.0637V8.11774H62.8684V12.3691H50.8802V18.7988H60.8527V22.734H50.8802V33.0637H46Z" fill="#7051F8"/>
<path d="M65.8467 33.0637V14.6529H70.5854V33.0637H65.8467ZM65.8467 12.088V7.41504H70.5854V12.088H65.8467Z" fill="#7051F8"/>
<path d="M85.8937 18.7286C84.4556 18.7286 83.1707 19.0096 82.0391 19.5718C80.9075 20.1105 80.0941 20.8952 79.599 21.9258V33.0637H74.8603V14.6529H79.21V18.588C79.8701 17.3231 80.7071 16.3277 81.7208 15.6015C82.7346 14.8754 83.8073 14.4772 84.9389 14.4069C85.1982 14.4069 85.3986 14.4069 85.5401 14.4069C85.6815 14.4069 85.7994 14.4186 85.8937 14.4421V18.7286Z" fill="#7051F8"/>
<path d="M95.3612 33.415C93.7817 33.415 92.2728 33.1574 90.8347 32.6421C89.3966 32.1267 88.1588 31.3655 87.1215 30.3583L88.819 27.3015C89.927 28.1916 91.0115 28.8475 92.0724 29.2691C93.1569 29.6907 94.1942 29.9015 95.1844 29.9015C96.1039 29.9015 96.8347 29.7376 97.377 29.4096C97.9428 29.0817 98.2257 28.5898 98.2257 27.934C98.2257 27.4889 98.0724 27.1493 97.766 26.915C97.4595 26.6574 97.0115 26.4349 96.4221 26.2475C95.8563 26.0601 95.1608 25.8493 94.3357 25.615C92.9683 25.17 91.8249 24.7367 90.9054 24.315C89.986 23.8934 89.2905 23.3664 88.819 22.734C88.371 22.0781 88.1471 21.2466 88.1471 20.2394C88.1471 19.0213 88.4535 17.979 89.0665 17.1123C89.7031 16.2222 90.5754 15.5313 91.6834 15.0394C92.815 14.5475 94.1353 14.3015 95.6441 14.3015C96.9644 14.3015 98.2139 14.5123 99.3927 14.934C100.571 15.3322 101.644 15.988 102.611 16.9015L100.701 19.888C99.7581 19.1619 98.8622 18.6349 98.0135 18.3069C97.1648 17.9556 96.3043 17.7799 95.432 17.7799C94.9369 17.7799 94.4653 17.8385 94.0174 17.9556C93.593 18.0727 93.2394 18.2718 92.9565 18.5529C92.6972 18.8105 92.5675 19.1853 92.5675 19.6772C92.5675 20.1222 92.6854 20.4736 92.9211 20.7313C93.1805 20.9655 93.5577 21.1763 94.0528 21.3637C94.5714 21.5511 95.1962 21.7619 95.927 21.9961C97.4123 22.4177 98.6618 22.8511 99.6756 23.2961C100.713 23.7412 101.491 24.2916 102.01 24.9475C102.528 25.5799 102.788 26.4583 102.788 27.5826C102.788 29.4096 102.116 30.8385 100.772 31.8691C99.428 32.8997 97.6245 33.415 95.3612 33.415Z" fill="#7051F8"/>
<path d="M117.011 32.115C116.61 32.279 116.127 32.4664 115.561 32.6772C114.995 32.888 114.383 33.052 113.722 33.1691C113.086 33.3096 112.438 33.3799 111.777 33.3799C110.905 33.3799 110.104 33.2276 109.373 32.9231C108.642 32.6186 108.052 32.1385 107.604 31.4826C107.18 30.8033 106.968 29.9249 106.968 28.8475V18.2718H104.528V14.6529H106.968V8.6799H111.707V14.6529H115.597V18.2718H111.707V27.2664C111.73 27.8988 111.907 28.3556 112.237 28.6367C112.567 28.9177 112.98 29.0583 113.475 29.0583C113.97 29.0583 114.453 28.9763 114.925 28.8123C115.396 28.6484 115.773 28.5078 116.056 28.3907L117.011 32.115Z" fill="#7051F8"/>
<path d="M130.412 33.2394C128.573 33.2394 126.9 32.888 125.391 32.1853C123.905 31.4826 122.621 30.534 121.536 29.3394C120.475 28.1213 119.65 26.7628 119.061 25.2637C118.471 23.7412 118.177 22.1835 118.177 20.5907C118.177 18.9277 118.483 17.3466 119.096 15.8475C119.733 14.3249 120.593 12.9781 121.678 11.8069C122.786 10.6123 124.082 9.6754 125.568 8.99612C127.076 8.29342 128.727 7.94207 130.518 7.94207C132.334 7.94207 133.984 8.30513 135.469 9.03126C136.978 9.75738 138.263 10.7295 139.324 11.9475C140.385 13.1655 141.21 14.524 141.799 16.0231C142.389 17.5222 142.684 19.0682 142.684 20.661C142.684 22.3006 142.377 23.8817 141.764 25.4042C141.151 26.9033 140.291 28.2502 139.183 29.4448C138.098 30.6159 136.801 31.5412 135.293 32.2204C133.807 32.8997 132.181 33.2394 130.412 33.2394ZM123.127 20.5907C123.127 21.6682 123.292 22.7105 123.623 23.7177C123.953 24.7249 124.424 25.6267 125.037 26.4231C125.674 27.1961 126.44 27.8168 127.336 28.2853C128.255 28.7304 129.293 28.9529 130.448 28.9529C131.626 28.9529 132.676 28.7186 133.595 28.2502C134.515 27.7583 135.281 27.1141 135.894 26.3177C136.507 25.4979 136.966 24.5961 137.273 23.6123C137.603 22.6051 137.768 21.5979 137.768 20.5907C137.768 19.5132 137.591 18.4826 137.238 17.4988C136.907 16.4916 136.424 15.6015 135.788 14.8286C135.175 14.0322 134.408 13.4114 133.489 12.9664C132.593 12.4979 131.579 12.2637 130.448 12.2637C129.245 12.2637 128.184 12.5096 127.265 13.0015C126.369 13.47 125.615 14.1024 125.002 14.8988C124.389 15.6952 123.917 16.5853 123.587 17.5691C123.281 18.5529 123.127 19.5601 123.127 20.5907Z" fill="black"/>
<path d="M163.017 33.0637H158.278V22.734C158.278 21.2583 158.019 20.1808 157.5 19.5015C156.981 18.8222 156.262 18.4826 155.343 18.4826C154.706 18.4826 154.058 18.6466 153.398 18.9745C152.761 19.3024 152.184 19.7592 151.665 20.3448C151.146 20.9069 150.769 21.5628 150.533 22.3123V33.0637H145.795V14.6529H150.074V18.061C150.545 17.2646 151.146 16.597 151.877 16.0583C152.608 15.4961 153.445 15.0745 154.388 14.7934C155.355 14.4889 156.368 14.3367 157.429 14.3367C158.585 14.3367 159.528 14.5475 160.258 14.9691C161.013 15.3673 161.579 15.9177 161.956 16.6204C162.357 17.2997 162.628 18.0727 162.769 18.9394C162.934 19.806 163.017 20.6844 163.017 21.5745V33.0637Z" fill="black"/>
<path d="M167.102 7.41504H171.841V27.161C171.841 28.0042 171.982 28.5781 172.265 28.8826C172.548 29.1637 172.937 29.3042 173.432 29.3042C173.809 29.3042 174.198 29.2574 174.599 29.1637C175 29.07 175.353 28.9529 175.66 28.8123L176.296 32.3961C175.66 32.7006 174.917 32.9349 174.068 33.0988C173.22 33.2628 172.453 33.3448 171.77 33.3448C170.285 33.3448 169.129 32.9583 168.304 32.1853C167.503 31.3889 167.102 30.2646 167.102 28.8123V7.41504Z" fill="black"/>
<path d="M178.361 33.0637V14.6529H183.1V33.0637H178.361ZM178.361 12.088V7.41504H183.1V12.088H178.361Z" fill="black"/>
<path d="M204.597 33.0637H199.858V22.734C199.858 21.2583 199.599 20.1808 199.08 19.5015C198.561 18.8222 197.842 18.4826 196.923 18.4826C196.286 18.4826 195.638 18.6466 194.978 18.9745C194.341 19.3024 193.764 19.7592 193.245 20.3448C192.726 20.9069 192.349 21.5628 192.113 22.3123V33.0637H187.375V14.6529H191.654V18.061C192.125 17.2646 192.726 16.597 193.457 16.0583C194.188 15.4961 195.025 15.0745 195.968 14.7934C196.934 14.4889 197.948 14.3367 199.009 14.3367C200.164 14.3367 201.107 14.5475 201.838 14.9691C202.593 15.3673 203.158 15.9177 203.536 16.6204C203.936 17.2997 204.208 18.0727 204.349 18.9394C204.514 19.806 204.597 20.6844 204.597 21.5745V33.0637Z" fill="black"/>
<path d="M217.31 33.415C215.825 33.415 214.481 33.1691 213.279 32.6772C212.077 32.1619 211.051 31.4709 210.202 30.6042C209.354 29.7141 208.693 28.7069 208.222 27.5826C207.774 26.4349 207.55 25.2286 207.55 23.9637C207.55 22.2069 207.939 20.6024 208.717 19.1502C209.519 17.6979 210.65 16.5385 212.112 15.6718C213.597 14.7817 215.342 14.3367 217.346 14.3367C219.373 14.3367 221.106 14.7817 222.544 15.6718C223.982 16.5385 225.079 17.6979 225.833 19.1502C226.611 20.579 227 22.1249 227 23.788C227 24.0691 226.988 24.3619 226.965 24.6664C226.941 24.9475 226.917 25.1817 226.894 25.3691H212.572C212.666 26.306 212.937 27.1258 213.385 27.8286C213.857 28.5313 214.446 29.07 215.153 29.4448C215.884 29.7961 216.662 29.9718 217.487 29.9718C218.43 29.9718 219.314 29.7493 220.139 29.3042C220.988 28.8358 221.566 28.2267 221.872 27.4772L225.939 28.6015C225.491 29.5385 224.843 30.37 223.994 31.0961C223.169 31.8222 222.191 32.3961 221.059 32.8177C219.927 33.2159 218.678 33.415 217.31 33.415ZM212.466 22.3826H222.155C222.061 21.4457 221.79 20.6376 221.342 19.9583C220.917 19.2556 220.352 18.7168 219.644 18.3421C218.937 17.9439 218.147 17.7448 217.275 17.7448C216.426 17.7448 215.648 17.9439 214.941 18.3421C214.257 18.7168 213.691 19.2556 213.244 19.9583C212.819 20.6376 212.56 21.4457 212.466 22.3826Z" fill="black"/>
</svg>
