<svg width="30" height="32" viewBox="0 0 30 32" fill="none" xmlns="http://www.w3.org/2000/svg">
<path fill-rule="evenodd" clip-rule="evenodd" d="M15.0001 30C17.1472 30 20.8184 27.2 20.8184 16C20.8184 4.8 17.1472 2 15.0001 2C12.8531 2 9.18193 4.98868 9.18193 16C9.18193 27.0113 12.8531 30 15.0001 30Z" stroke="white" stroke-width="4" stroke-linecap="round" stroke-linejoin="round"/>
<path fill-rule="evenodd" clip-rule="evenodd" d="M2.40344 23.3334C3.47697 25.2083 7.83194 26.9474 17.9093 21.0807C27.9867 15.2141 28.6705 10.5416 27.5969 8.66672C26.5234 6.79185 21.9987 5.15151 12.0911 10.9194C2.18348 16.6872 1.32993 21.4585 2.40344 23.3334Z" stroke="white" stroke-width="4" stroke-linecap="round" stroke-linejoin="round"/>
<path fill-rule="evenodd" clip-rule="evenodd" d="M2.40337 8.66672C1.32987 10.5416 2.01364 15.2141 12.0911 21.0807C22.1685 26.9474 26.5233 25.2083 27.5969 23.3334C28.6704 21.4585 27.8169 16.6872 17.9092 10.9194C8.0016 5.15151 3.47691 6.79185 2.40337 8.66672Z" stroke="white" stroke-width="4" stroke-linecap="round" stroke-linejoin="round"/>
</svg>
