<svg width="32" height="32" viewBox="0 0 32 32" fill="none" xmlns="http://www.w3.org/2000/svg">
<g clip-path="url(#clip0_8_969)">
<path fill-rule="evenodd" clip-rule="evenodd" d="M3.46502 14.5372C3.44394 13.0699 3.71472 11.6131 4.26162 10.2515C4.80852 8.88983 5.62064 7.65046 6.65075 6.60544C7.68087 5.56042 8.90843 4.73058 10.2621 4.16417C11.6158 3.59776 13.0685 3.30608 14.5359 3.30608C16.0033 3.30608 17.456 3.59776 18.8097 4.16417C20.1633 4.73058 21.3909 5.56042 22.421 6.60544C23.4511 7.65046 24.2632 8.88983 24.8101 10.2515C25.357 11.6131 25.6278 13.0699 25.6067 14.5372C25.5649 17.4458 24.3802 20.2211 22.3085 22.2632C20.2369 24.3053 17.4448 25.4501 14.5359 25.4501C11.627 25.4501 8.83488 24.3053 6.76324 22.2632C4.6916 20.2211 3.50682 17.4458 3.46502 14.5372ZM14.5347 0.0343019C12.2469 0.0339576 9.99144 0.574965 7.95269 1.61311C5.91395 2.65125 4.14978 4.15707 2.80437 6.0075C1.45895 7.85792 0.570474 10.0004 0.211546 12.26C-0.147382 14.5195 0.0334271 16.8318 0.739195 19.0081C1.44496 21.1844 2.65566 23.1627 4.27234 24.7816C5.88902 26.4004 7.86581 27.6137 10.0411 28.3223C12.2165 29.031 14.5286 29.2148 16.7886 28.8589C19.0486 28.5029 21.1923 27.6173 23.0445 26.2743L28.0616 31.2914C28.4902 31.7203 29.0716 31.9614 29.6779 31.9616C30.2843 31.9618 30.8658 31.7212 31.2947 31.2926C31.7236 30.864 31.9647 30.2826 31.9649 29.6763C31.9651 29.0699 31.7245 28.4883 31.2959 28.0594L26.2765 23.0423C27.8436 20.8783 28.7824 18.3233 28.9892 15.6594C29.196 12.9955 28.6627 10.3262 27.4483 7.94627C26.2338 5.5663 24.3854 3.56816 22.107 2.17239C19.8287 0.776617 17.2089 0.0374893 14.537 0.0365876L14.5347 0.0343019ZM12.8319 9.23659C12.9646 9.36925 13.0698 9.52675 13.1417 9.7001C13.2135 9.87344 13.2504 10.0592 13.2504 10.2469C13.2504 10.4345 13.2135 10.6203 13.1417 10.7937C13.0698 10.967 12.9646 11.1245 12.8319 11.2572L9.27074 14.8206L12.8319 18.3817C13.0998 18.6497 13.2504 19.0131 13.2504 19.392C13.2504 19.7709 13.0998 20.1344 12.8319 20.4023C12.5639 20.6702 12.2005 20.8208 11.8216 20.8208C11.4427 20.8208 11.0793 20.6702 10.8113 20.4023L6.23988 15.8309C6.10719 15.6982 6.00192 15.5407 5.93011 15.3674C5.85829 15.194 5.82133 15.0082 5.82133 14.8206C5.82133 14.633 5.85829 14.4472 5.93011 14.2738C6.00192 14.1005 6.10719 13.943 6.23988 13.8103L10.8113 9.23887C10.944 9.10618 11.1015 9.00092 11.2748 8.9291C11.4482 8.85729 11.634 8.82032 11.8216 8.82032C12.0092 8.82032 12.195 8.85729 12.3684 8.9291C12.5417 9.00092 12.6992 9.10389 12.8319 9.23659ZM18.5462 9.23659C18.2782 8.96864 17.9148 8.81811 17.5359 8.81811C17.157 8.81811 16.7935 8.96864 16.5256 9.23659C16.2577 9.50453 16.1071 9.86794 16.1071 10.2469C16.1071 10.6258 16.2577 10.9892 16.5256 11.2572L20.0867 14.8183L16.5256 18.3817C16.2577 18.6497 16.1071 19.0131 16.1071 19.392C16.1071 19.7709 16.2577 20.1344 16.5256 20.4023C16.7935 20.6702 17.157 20.8208 17.5359 20.8208C17.9148 20.8208 18.2782 20.6702 18.5462 20.4023L23.1176 15.8309C23.2503 15.6982 23.3556 15.5407 23.4274 15.3674C23.4992 15.194 23.5361 15.0082 23.5361 14.8206C23.5361 14.633 23.4992 14.4472 23.4274 14.2738C23.3556 14.1005 23.2503 13.943 23.1176 13.8103L18.5462 9.23659Z" fill="white"/>
</g>
<defs>
<clipPath id="clip0_8_969">
<rect width="32" height="32" fill="white"/>
</clipPath>
</defs>
</svg>
