<svg width="32" height="32" viewBox="0 0 32 32" fill="none" xmlns="http://www.w3.org/2000/svg">
<g clip-path="url(#clip0_8_953)">
<path d="M3.66675 23.2813C3.66675 24.2233 4.05306 25.1268 4.74069 25.793C5.42832 26.4591 6.36095 26.8333 7.33341 26.8333H26.6667C27.6392 26.8333 28.5718 26.4591 29.2595 25.793C29.9471 25.1268 30.3334 24.2233 30.3334 23.2813V9.71876C30.3334 9.25229 30.2386 8.7904 30.0543 8.35944C29.87 7.92848 29.6 7.5369 29.2595 7.20706C28.919 6.87722 28.5148 6.61557 28.0699 6.43706C27.6251 6.25855 27.1483 6.16668 26.6667 6.16668H7.33341C6.8519 6.16668 6.3751 6.25855 5.93024 6.43706C5.48538 6.61557 5.08117 6.87722 4.74069 7.20706C4.40021 7.5369 4.13012 7.92848 3.94586 8.35944C3.76159 8.7904 3.66675 9.25229 3.66675 9.71876V23.2813ZM7.33341 24.8958C6.41341 24.8958 5.66675 24.1725 5.66675 23.2813V9.71876C5.66675 8.82751 6.41341 8.10418 7.33341 8.10418H26.6667C27.5867 8.10418 28.3334 8.82751 28.3334 9.71876V23.2813C28.3334 24.1725 27.5867 24.8958 26.6667 24.8958H7.33341ZM7.66675 20.0521C7.66675 20.9433 8.41341 21.6667 9.33341 21.6667H16.6667C17.5867 21.6667 18.3334 20.9433 18.3334 20.0521V12.9479C18.3334 12.0567 17.5867 11.3333 16.6667 11.3333H9.33341C8.41341 11.3333 7.66675 12.0567 7.66675 12.9479V20.0521ZM19.6667 20.6979C19.6667 20.9549 19.7721 21.2013 19.9596 21.3829C20.1472 21.5646 20.4015 21.6667 20.6667 21.6667H25.3334C25.5986 21.6667 25.853 21.5646 26.0405 21.3829C26.2281 21.2013 26.3334 20.9549 26.3334 20.6979C26.3334 20.441 26.2281 20.1946 26.0405 20.0129C25.853 19.8312 25.5986 19.7292 25.3334 19.7292H20.6667C20.4015 19.7292 20.1472 19.8312 19.9596 20.0129C19.7721 20.1946 19.6667 20.441 19.6667 20.6979ZM20.6667 17.7917C20.4015 17.7917 20.1472 17.6896 19.9596 17.5079C19.7721 17.3263 19.6667 17.0799 19.6667 16.8229C19.6667 16.566 19.7721 16.3196 19.9596 16.1379C20.1472 15.9562 20.4015 15.8542 20.6667 15.8542H25.3334C25.5986 15.8542 25.853 15.9562 26.0405 16.1379C26.2281 16.3196 26.3334 16.566 26.3334 16.8229C26.3334 17.0799 26.2281 17.3263 26.0405 17.5079C25.853 17.6896 25.5986 17.7917 25.3334 17.7917H20.6667ZM19.6667 12.9479C19.6667 13.2049 19.7721 13.4513 19.9596 13.6329C20.1472 13.8146 20.4015 13.9167 20.6667 13.9167H25.3334C25.5986 13.9167 25.853 13.8146 26.0405 13.6329C26.2281 13.4513 26.3334 13.2049 26.3334 12.9479C26.3334 12.691 26.2281 12.4446 26.0405 12.2629C25.853 12.0812 25.5986 11.9792 25.3334 11.9792H20.6667C20.4015 11.9792 20.1472 12.0812 19.9596 12.2629C19.7721 12.4446 19.6667 12.691 19.6667 12.9479Z" fill="white"/>
</g>
<defs>
<clipPath id="clip0_8_953">
<rect width="32" height="32" fill="white"/>
</clipPath>
</defs>
</svg>
