<svg width="24" height="24" viewBox="0 0 24 24" fill="none" xmlns="http://www.w3.org/2000/svg">
<path d="M12.5 9C11.5717 9 10.6815 9.36875 10.0251 10.0251C9.36875 10.6815 9 11.5717 9 12.5C9 13.4283 9.36875 14.3185 10.0251 14.9749C10.6815 15.6313 11.5717 16 12.5 16C13.4283 16 14.3185 15.6313 14.9749 14.9749C15.6313 14.3185 16 13.4283 16 12.5C16 11.5717 15.6313 10.6815 14.9749 10.0251C14.3185 9.36875 13.4283 9 12.5 9Z" fill="black"/>
<path fill-rule="evenodd" clip-rule="evenodd" d="M5.95697 1.36092C10.3057 0.879692 14.6944 0.879692 19.0431 1.36092C21.4189 1.62571 23.3342 3.49293 23.6132 5.87349C24.1289 10.2757 24.1289 14.7229 23.6132 19.1252C23.3342 21.5057 21.4189 23.3729 19.0443 23.639C14.6952 24.1203 10.3061 24.1203 5.95697 23.639C3.5812 23.3729 1.66582 21.5057 1.38683 19.1264C0.871055 14.7238 0.871055 10.2761 1.38683 5.87349C1.66582 3.49293 3.5812 1.62571 5.95697 1.36092ZM18.7553 5.00545C18.4235 5.00545 18.1053 5.13704 17.8707 5.37126C17.6361 5.60549 17.5043 5.92318 17.5043 6.25443C17.5043 6.58568 17.6361 6.90336 17.8707 7.13759C18.1053 7.37182 18.4235 7.50341 18.7553 7.50341C19.0871 7.50341 19.4054 7.37182 19.64 7.13759C19.8746 6.90336 20.0064 6.58568 20.0064 6.25443C20.0064 5.92318 19.8746 5.60549 19.64 5.37126C19.4054 5.13704 19.0871 5.00545 18.7553 5.00545ZM6.55748 12.4993C6.55748 10.9259 7.18357 9.41689 8.29801 8.30431C9.41246 7.19172 10.924 6.56667 12.5 6.56667C14.0761 6.56667 15.5876 7.19172 16.702 8.30431C17.8165 9.41689 18.4426 10.9259 18.4426 12.4993C18.4426 14.0728 17.8165 15.5818 16.702 16.6943C15.5876 17.8069 14.0761 18.432 12.5 18.432C10.924 18.432 9.41246 17.8069 8.29801 16.6943C7.18357 15.5818 6.55748 14.0728 6.55748 12.4993Z" fill="black"/>
</svg>
