<svg xmlns="http://www.w3.org/2000/svg" viewBox="0 0 512 512" style="enable-background:new 0 0 512 512" xml:space="preserve"><g transform="translate(1 1)"><path style="fill:#f57c00" d="M118.467 323.267h273.067v179.2H118.467z"/><path style="fill:#ff9801" d="M84.333 323.267H357.4v179.2H84.333z"/><path style="fill:#f57c00" d="M127 365.933v136.533H67.267a8.533 8.533 0 0 1-8.533-8.533v-128H127zM451.267 365.933v128a8.533 8.533 0 0 1-8.533 8.533H383V365.933h68.267z"/><path style="fill:#d84315" d="M459.8 340.333v34.133a8.533 8.533 0 0 1-8.533 8.533H383a8.533 8.533 0 0 1-8.533-8.533v-34.133H459.8z"/><path style="fill:#f57c00" d="M425.667 178.2v85.333H84.333V178.2C84.304 88.903 153.151 14.697 242.2 8.045c4.181-.341 8.448-.512 12.8-.512A170.616 170.616 0 0 1 425.667 178.2z"/><path style="fill:#ff9801" d="M101.4 365.933v136.533H67.267a8.533 8.533 0 0 1-8.533-8.533v-128H101.4zM425.667 383v112a8.081 8.081 0 0 1-8.533 7.467H383V383h42.667zM400.067 178.2v85.333H84.333V178.2C84.304 88.903 153.151 14.697 242.2 8.045c89.049 6.652 157.896 80.858 157.867 170.155z"/><circle style="fill:#cfd8dc" cx="255" cy="109.933" r="68.267"/><path style="fill:#c52828" d="M476.867 306.2v34.133a8.533 8.533 0 0 1-8.533 8.533H41.667a8.533 8.533 0 0 1-8.533-8.533V306.2l51.2-59.733h341.333l51.2 59.733z"/><path style="fill:#c52828" d="M476.867 306.2v34.133a8.533 8.533 0 0 1-8.533 8.533H41.667a8.533 8.533 0 0 1-8.533-8.533V306.2h443.733z"/><path style="fill:#f44335" d="M451.267 306.2v34.133a8.533 8.533 0 0 1-8.533 8.533H50.2a8.533 8.533 0 0 1-8.533-8.533V306.2l51.2-59.733h307.2l51.2 59.733z"/><path style="fill:#f44335" d="M451.267 306.2v34.133a8.533 8.533 0 0 1-8.533 8.533H50.2a8.533 8.533 0 0 1-8.533-8.533V306.2h409.6z"/><circle style="fill:#7f8c8d" cx="255" cy="109.933" r="17.067"/><path style="fill:#d84315" d="M246.467 246.467V109.933a8.533 8.533 0 0 1 17.066 0v136.533h-17.066zM135.533 340.333v34.133a8.533 8.533 0 0 1-8.533 8.533H58.733a8.533 8.533 0 0 1-8.533-8.533v-34.133h85.333z"/><path style="fill:#ff5722" d="M434.2 340.333v34.133a8.533 8.533 0 0 1-8.533 8.533H383a8.533 8.533 0 0 1-8.533-8.533v-34.133H434.2zM109.933 340.333v34.133a8.533 8.533 0 0 1-8.533 8.533H58.733a8.533 8.533 0 0 1-8.533-8.533v-34.133h59.733z"/></g><path d="M42.667 358.4v17.067a17.005 17.005 0 0 0 8.533 14.694v113.306A8.533 8.533 0 0 0 59.733 512h392.533a8.533 8.533 0 0 0 8.533-8.533V390.161a17.005 17.005 0 0 0 8.533-14.694V358.4c9.426 0 17.067-7.641 17.067-17.067V307.2a8.605 8.605 0 0 0-.631-3.14 8.541 8.541 0 0 0-.614-1.033 8.579 8.579 0 0 0-.811-1.382L435.2 244.318V179.2C435.2 80.231 354.969 0 256 0S76.8 80.231 76.8 179.2v65.118l-49.143 57.327a8.731 8.731 0 0 0-.853 1.391c-.223.328-.426.67-.606 1.024a8.525 8.525 0 0 0-.597 3.14v34.133c-.001 9.426 7.64 17.067 17.066 17.067zm324.266 0v17.067a17.005 17.005 0 0 0 8.533 14.694v104.772H136.533V390.161a17.005 17.005 0 0 0 8.533-14.694V358.4h221.867zM128 375.467H59.733V358.4H128v17.067zm-59.733 17.066h51.2v102.4h-51.2v-102.4zm375.466 102.4h-51.2v-102.4h51.2v102.4zm8.534-119.466H384V358.4h68.267v17.067zm8.533-34.134H42.667v-25.6h426.667v25.6H460.8zM89.259 256h333.483l36.574 42.667H52.685L89.259 256zM256 119.467a8.533 8.533 0 1 1 0-17.066 8.533 8.533 0 0 1 0 17.066zm8.533 15.496c11.755-4.156 18.806-16.176 16.698-28.465C279.123 94.21 268.468 85.227 256 85.227c-12.468 0-23.123 8.982-25.231 21.271-2.108 12.289 4.943 24.309 16.698 28.465v34.987c-31.009-4.476-53.29-32.149-51.047-63.398 2.244-31.25 28.25-55.456 59.58-55.456s57.336 24.206 59.58 55.456-20.038 58.923-51.047 63.398v-34.987zM93.867 179.2c0-89.544 72.59-162.133 162.133-162.133S418.133 89.656 418.133 179.2v59.733h-153.6V187.23c40.503-4.528 70.415-39.906 68.148-80.598C330.413 65.94 296.755 34.105 256 34.105s-74.413 31.835-76.681 72.527c-2.268 40.692 27.645 76.069 68.148 80.598v51.703h-153.6V179.2z"/><path d="M196.267 401.067h8.533c4.713 0 8.533-3.82 8.533-8.533S209.513 384 204.8 384h-8.533c-4.713 0-8.533 3.82-8.533 8.533s3.82 8.534 8.533 8.534zM162.133 426.667h8.533a8.533 8.533 0 0 0 0-17.066h-8.533a8.533 8.533 0 0 0 0 17.066zM162.133 452.267h8.533a8.533 8.533 0 0 0 0-17.066h-8.533a8.533 8.533 0 0 0 0 17.066zM162.133 477.867h8.533a8.533 8.533 0 0 0 0-17.066h-8.533a8.533 8.533 0 0 0 0 17.066zM196.267 426.667h8.533a8.533 8.533 0 0 0 0-17.066h-8.533a8.533 8.533 0 0 0 0 17.066zM196.267 452.267h8.533a8.533 8.533 0 0 0 0-17.066h-8.533a8.533 8.533 0 0 0 0 17.066zM196.267 477.867h8.533a8.533 8.533 0 0 0 0-17.066h-8.533a8.533 8.533 0 0 0 0 17.066zM230.4 426.667h8.533a8.533 8.533 0 0 0 0-17.066H230.4a8.533 8.533 0 0 0 0 17.066zM230.4 452.267h8.533a8.533 8.533 0 0 0 0-17.066H230.4a8.533 8.533 0 0 0 0 17.066zM230.4 477.867h8.533a8.533 8.533 0 0 0 0-17.066H230.4a8.533 8.533 0 0 0 0 17.066zM307.2 401.067h8.533c4.713 0 8.533-3.82 8.533-8.533s-3.82-8.534-8.533-8.534H307.2c-4.713 0-8.533 3.82-8.533 8.533s3.82 8.534 8.533 8.534zM273.067 426.667h8.533a8.533 8.533 0 0 0 0-17.066h-8.533a8.533 8.533 0 0 0 0 17.066zM273.067 452.267h8.533a8.533 8.533 0 0 0 0-17.066h-8.533a8.533 8.533 0 0 0 0 17.066zM273.067 477.867h8.533a8.533 8.533 0 0 0 0-17.066h-8.533a8.533 8.533 0 0 0 0 17.066zM307.2 426.667h8.533a8.533 8.533 0 0 0 0-17.066H307.2a8.533 8.533 0 0 0 0 17.066zM307.2 452.267h8.533a8.533 8.533 0 0 0 0-17.066H307.2a8.533 8.533 0 0 0 0 17.066zM307.2 477.867h8.533a8.533 8.533 0 0 0 0-17.066H307.2a8.533 8.533 0 0 0 0 17.066zM341.333 426.667h8.533a8.533 8.533 0 0 0 0-17.066h-8.533a8.533 8.533 0 0 0 0 17.066zM341.333 452.267h8.533a8.533 8.533 0 0 0 0-17.066h-8.533a8.533 8.533 0 0 0 0 17.066zM341.333 477.867h8.533a8.533 8.533 0 0 0 0-17.066h-8.533a8.533 8.533 0 0 0 0 17.066zM187.733 204.8h-68.267a8.533 8.533 0 0 0 0 17.066h68.267c4.713 0 8.533-3.82 8.533-8.533s-3.82-8.533-8.533-8.533zM187.733 179.2h-68.267a8.533 8.533 0 0 0 0 17.066h68.267a8.533 8.533 0 0 0 0-17.066zM392.533 204.8h-68.267a8.533 8.533 0 0 0 0 17.066h68.267c4.713 0 8.533-3.82 8.533-8.533s-3.82-8.533-8.533-8.533zM315.733 187.733a8.533 8.533 0 0 0 8.533 8.533h68.267a8.533 8.533 0 0 0 0-17.066h-68.267a8.534 8.534 0 0 0-8.533 8.533zM93.867 290.133h17.067a8.533 8.533 0 0 0 0-17.066H93.867c-4.713 0-8.533 3.82-8.533 8.533s3.82 8.533 8.533 8.533zM145.067 290.133h17.067a8.533 8.533 0 0 0 0-17.066h-17.067c-4.713 0-8.533 3.82-8.533 8.533s3.82 8.533 8.533 8.533zM196.267 290.133h17.067a8.533 8.533 0 0 0 0-17.066h-17.067c-4.713 0-8.533 3.82-8.533 8.533s3.82 8.533 8.533 8.533zM247.467 290.133h17.067c4.713 0 8.533-3.82 8.533-8.533s-3.82-8.533-8.533-8.533h-17.067c-4.713 0-8.533 3.82-8.533 8.533s3.82 8.533 8.533 8.533zM298.667 290.133h17.067a8.533 8.533 0 0 0 0-17.066h-17.067c-4.713 0-8.533 3.82-8.533 8.533s3.82 8.533 8.533 8.533zM349.867 290.133h17.067c4.713 0 8.533-3.82 8.533-8.533s-3.82-8.533-8.533-8.533h-17.067c-4.713 0-8.533 3.82-8.533 8.533s3.82 8.533 8.533 8.533zM401.067 290.133h17.067c4.713 0 8.533-3.82 8.533-8.533s-3.82-8.533-8.533-8.533h-17.067c-4.713 0-8.533 3.82-8.533 8.533s3.82 8.533 8.533 8.533z"/></svg>