<svg width="227" height="41" fill="none" xmlns="http://www.w3.org/2000/svg"><path d="M16.962 4.278v16.137l-3.677-2.101A21.122 21.122 0 0 1 2.702 0H0v18.464a15.76 15.76 0 0 0 8.932 14.185l8.106 3.903V20.415l3.677 2.102A21.122 21.122 0 0 1 31.298 40.83H34V22.366a15.76 15.76 0 0 0-8.932-14.185l-8.106-3.903ZM46 33.064V8.118h16.868v4.251H50.88v6.43h9.973v3.935H50.88v10.33H46ZM65.847 33.064V14.653h4.738v18.41h-4.738Zm0-20.976V7.415h4.738v4.673h-4.738ZM85.894 18.729c-1.438 0-2.723.28-3.855.843-1.132.538-1.945 1.323-2.44 2.354v11.138H74.86V14.653h4.35v3.935c.66-1.265 1.497-2.26 2.51-2.987 1.015-.726 2.087-1.124 3.219-1.194h.601c.141 0 .26.012.354.035v4.287ZM95.361 33.415c-1.58 0-3.088-.258-4.526-.773-1.438-.515-2.676-1.277-3.713-2.284l1.697-3.056c1.108.89 2.192 1.546 3.253 1.967 1.085.422 2.122.633 3.112.633.92 0 1.65-.164 2.193-.492.566-.328.849-.82.849-1.476 0-.445-.154-.785-.46-1.019-.306-.258-.755-.48-1.344-.668a51.796 51.796 0 0 0-2.086-.632c-1.368-.445-2.511-.878-3.43-1.3-.92-.422-1.616-.949-2.087-1.581-.448-.656-.672-1.487-.672-2.495 0-1.218.306-2.26.92-3.127.636-.89 1.508-1.58 2.616-2.073 1.132-.492 2.452-.737 3.961-.737 1.32 0 2.57.21 3.749.632 1.178.398 2.251 1.054 3.218 1.967l-1.91 2.987c-.943-.726-1.839-1.253-2.688-1.581a6.696 6.696 0 0 0-2.581-.527c-.495 0-.967.058-1.415.176a2.365 2.365 0 0 0-1.06.597c-.26.258-.39.632-.39 1.124 0 .445.118.797.354 1.054.26.234.637.445 1.132.633a55.13 55.13 0 0 0 1.874.632c1.485.422 2.735.855 3.749 1.3 1.037.445 1.815.996 2.334 1.652.518.632.778 1.51.778 2.635 0 1.827-.672 3.256-2.016 4.286-1.344 1.03-3.148 1.546-5.41 1.546ZM117.011 32.115c-.401.164-.884.351-1.45.562-.566.211-1.178.375-1.839.492-.636.14-1.284.21-1.945.21-.872 0-1.673-.151-2.404-.456a3.93 3.93 0 0 1-1.769-1.44c-.424-.68-.636-1.558-.636-2.636V18.273h-2.44v-3.62h2.44V8.68h4.739v5.973h3.89v3.619h-3.89v8.994c.023.633.2 1.09.53 1.37.33.282.743.422 1.238.422s.978-.082 1.45-.246c.471-.164.848-.304 1.131-.421l.955 3.724Z" fill="#7051F8"/><path d="M130.412 33.24c-1.839 0-3.512-.352-5.021-1.055a12.192 12.192 0 0 1-3.855-2.846 13.9 13.9 0 0 1-2.475-4.075 12.83 12.83 0 0 1-.884-4.673c0-1.663.306-3.244.919-4.744a13.63 13.63 0 0 1 2.582-4.04 12.133 12.133 0 0 1 3.89-2.81c1.508-.704 3.159-1.055 4.95-1.055 1.816 0 3.466.363 4.951 1.09a11.878 11.878 0 0 1 3.855 2.915 13.899 13.899 0 0 1 2.475 4.076c.59 1.5.885 3.045.885 4.638 0 1.64-.307 3.22-.92 4.743a13.296 13.296 0 0 1-2.581 4.04 11.901 11.901 0 0 1-3.89 2.776c-1.486.68-3.112 1.02-4.881 1.02Zm-7.285-12.65c0 1.078.165 2.12.496 3.128a8.978 8.978 0 0 0 1.414 2.705 7.376 7.376 0 0 0 2.299 1.862c.919.445 1.957.668 3.112.668 1.178 0 2.228-.234 3.147-.703a7.062 7.062 0 0 0 2.299-1.932 8.92 8.92 0 0 0 1.379-2.706 9.655 9.655 0 0 0 .495-3.021 9.085 9.085 0 0 0-.53-3.092 8.171 8.171 0 0 0-1.45-2.67 6.353 6.353 0 0 0-2.299-1.863c-.896-.468-1.91-.702-3.041-.702-1.203 0-2.264.246-3.183.738a6.793 6.793 0 0 0-2.263 1.897 9.075 9.075 0 0 0-1.415 2.67c-.306.984-.46 1.991-.46 3.022ZM163.017 33.064h-4.739v-10.33c0-1.476-.259-2.553-.778-3.233-.519-.679-1.238-1.018-2.157-1.018-.637 0-1.285.164-1.945.491a5.958 5.958 0 0 0-1.733 1.37 5.133 5.133 0 0 0-1.132 1.968v10.752h-4.738V14.653h4.279v3.408a6.688 6.688 0 0 1 1.803-2.003 7.67 7.67 0 0 1 2.511-1.265c.967-.304 1.98-.456 3.041-.456 1.156 0 2.099.21 2.829.632.755.398 1.321.949 1.698 1.651.401.68.672 1.453.813 2.32.165.866.248 1.744.248 2.634v11.49ZM167.102 7.415h4.739v19.746c0 .843.141 1.417.424 1.722.283.28.672.421 1.167.421.377 0 .766-.047 1.167-.14.401-.094.754-.211 1.061-.352l.636 3.584c-.636.305-1.379.539-2.228.703-.848.164-1.615.246-2.298.246-1.485 0-2.641-.387-3.466-1.16-.801-.796-1.202-1.92-1.202-3.373V7.415ZM178.361 33.064V14.653h4.739v18.41h-4.739Zm0-20.976V7.415h4.739v4.673h-4.739ZM204.597 33.064h-4.739v-10.33c0-1.476-.259-2.553-.778-3.233-.519-.679-1.238-1.018-2.157-1.018-.637 0-1.285.164-1.945.491a5.958 5.958 0 0 0-1.733 1.37 5.133 5.133 0 0 0-1.132 1.968v10.752h-4.738V14.653h4.279v3.408a6.688 6.688 0 0 1 1.803-2.003 7.67 7.67 0 0 1 2.511-1.265c.966-.304 1.98-.456 3.041-.456 1.155 0 2.098.21 2.829.632.755.398 1.32.949 1.698 1.651.4.68.672 1.453.813 2.32.165.866.248 1.744.248 2.634v11.49ZM217.31 33.415c-1.485 0-2.829-.246-4.031-.738-1.202-.515-2.228-1.206-3.077-2.073a9.888 9.888 0 0 1-1.98-3.021 9.864 9.864 0 0 1-.672-3.62c0-1.756.389-3.36 1.167-4.813.802-1.452 1.933-2.611 3.395-3.478 1.485-.89 3.23-1.335 5.234-1.335 2.027 0 3.76.445 5.198 1.335 1.438.866 2.535 2.026 3.289 3.478A9.545 9.545 0 0 1 227 23.788c0 .281-.012.574-.035.878-.024.282-.048.516-.071.703h-14.322c.094.937.365 1.757.813 2.46a4.849 4.849 0 0 0 1.768 1.616 5.32 5.32 0 0 0 2.334.527 5.5 5.5 0 0 0 2.652-.668c.849-.468 1.427-1.077 1.733-1.827l4.067 1.125c-.448.936-1.096 1.768-1.945 2.494-.825.726-1.803 1.3-2.935 1.722-1.132.398-2.381.597-3.749.597Zm-4.844-11.032h9.689c-.094-.937-.365-1.745-.813-2.425a4.314 4.314 0 0 0-1.698-1.616c-.707-.398-1.497-.597-2.369-.597-.849 0-1.627.199-2.334.597a4.64 4.64 0 0 0-1.697 1.616c-.425.68-.684 1.488-.778 2.425Z" fill="#000"/></svg>