<svg width="30" height="32" fill="none" xmlns="http://www.w3.org/2000/svg"><path clip-rule="evenodd" d="M15 30c2.147 0 5.818-2.8 5.818-14S17.148 2 15 2c-2.147 0-5.818 2.989-5.818 14S12.853 30 15 30Z" stroke="#fff" stroke-width="4" stroke-linecap="round" stroke-linejoin="round"/><path clip-rule="evenodd" d="M2.403 23.333c1.074 1.875 5.429 3.614 15.506-2.252 10.078-5.867 10.762-10.54 9.688-12.414-1.074-1.875-5.598-3.515-15.506 2.252C2.183 16.687 1.33 21.46 2.403 23.333Z" stroke="#fff" stroke-width="4" stroke-linecap="round" stroke-linejoin="round"/><path clip-rule="evenodd" d="M2.403 8.667c-1.073 1.875-.39 6.547 9.688 12.414 10.078 5.866 14.432 4.127 15.506 2.252 1.073-1.874.22-6.646-9.688-12.414C8.002 5.152 3.477 6.792 2.403 8.667Z" stroke="#fff" stroke-width="4" stroke-linecap="round" stroke-linejoin="round"/></svg>