<svg width="32" height="32" fill="none" xmlns="http://www.w3.org/2000/svg"><g clip-path="url(#a)"><path fill-rule="evenodd" clip-rule="evenodd" d="M3.465 14.537a11.072 11.072 0 1 1 22.141-.318 11.072 11.072 0 0 1-22.141.318ZM14.535.034a14.5 14.5 0 1 0 8.51 26.24l5.017 5.017a2.286 2.286 0 1 0 3.234-3.232l-5.02-5.017A14.501 14.501 0 0 0 14.537.037l-.002-.003Zm-1.703 9.203a1.43 1.43 0 0 1 0 2.02L9.27 14.821l3.56 3.56a1.43 1.43 0 0 1-2.02 2.021L6.24 15.831a1.43 1.43 0 0 1 0-2.02l4.571-4.572a1.43 1.43 0 0 1 2.02-.002Zm5.714 0a1.429 1.429 0 0 0-2.02 2.02l3.56 3.561-3.56 3.564a1.43 1.43 0 0 0 2.02 2.02l4.572-4.571a1.43 1.43 0 0 0 0-2.02l-4.572-4.574Z" fill="#fff"/></g><defs><clipPath id="a"><path fill="#fff" d="M0 0h32v32H0z"/></clipPath></defs></svg>