<!-- icon666.com - MILLIONS vector ICONS FREE --><svg version="1.1" id="Layer_1" xmlns="http://www.w3.org/2000/svg" xmlns:xlink="http://www.w3.org/1999/xlink" x="0px" y="0px" viewBox="0 0 512 512" style="enable-background:new 0 0 512 512;" xml:space="preserve"><g><path style="fill:#FFB301;" d="M156.408,144.098l-2.816,0.939c-2.927,0.478-5.931-0.034-8.534-1.451v-15.617 C145.032,135.214,149.581,141.674,156.408,144.098z"></path><path style="fill:#FFB301;" d="M252.16,168.249c-4.395,1.946-9.217,2.714-13.996,2.219c-15.532-1.707-26.968-17.58-26.968-35.416 v-15.617c0.538-8.816-6.119-16.428-14.935-17.068h17.068c9.43,0,17.068,7.638,17.068,17.068v15.617 C230.279,149.5,238.864,162.6,252.16,168.249z"></path><path style="fill:#FFB301;" d="M315.738,102.366c-9.43,0-17.068,7.638-17.068,17.068v17.068 c0.094,18.852-15.122,34.204-33.974,34.298c-1.169,0.009-2.33-0.051-3.49-0.162c-3.098-0.333-6.145-1.084-9.046-2.219 c-4.395,1.946-9.217,2.714-13.996,2.219c-15.532-1.707-26.968-17.58-26.968-35.416v-15.788c0.538-8.816-6.119-16.428-14.935-17.068 c-9.43,0-17.068,7.638-17.068,17.068v7.51c0.384,8.696-5.632,16.377-14.167,18.092c-2.859,0.504-5.795,0.265-8.534-0.683l0,0 l-2.902,0.683c-2.927,0.478-5.931-0.034-8.534-1.451v18.519c0.137,9.422-7.39,17.179-16.821,17.316 c-1.058,0.017-2.108-0.068-3.149-0.247h-0.512c-8.312-1.963-14.047-9.558-13.654-18.092v-41.646c0-9.43-7.638-17.068-17.068-17.068 H76.785v384.032c-0.128,1.135-0.128,2.279,0,3.414c0.051,0.563,0.196,1.109,0.427,1.621c2.244,7.271,9.029,12.178,16.641,12.033 h238.953c9.43,0,17.068-7.638,17.068-17.068V102.366C349.875,102.366,315.738,102.366,315.738,102.366z"></path></g><g><path style="fill:#FEC108;" d="M315.738,102.366v384.032c0.538,8.816-6.119,16.428-14.935,17.068H93.853 c-7.484,0-14.09-4.881-16.3-12.033c-0.35-0.486-0.614-1.041-0.768-1.621c-0.128-1.135-0.128-2.279,0-3.414V102.366h17.068 c9.43,0,17.068,7.638,17.068,17.068v41.646c-0.393,8.534,5.342,16.129,13.654,18.092h0.512c9.285,1.604,18.118-4.625,19.722-13.919 c0.179-1.041,0.265-2.099,0.247-3.149V143.33c2.577,1.502,5.581,2.099,8.534,1.707l2.304-0.683l0,0 c2.739,0.947,5.675,1.186,8.534,0.683c8.773-1.451,15.097-9.208,14.764-18.092v-7.51c0-9.43,7.638-17.068,17.068-17.068 c8.816,0.64,15.472,8.252,14.935,17.068v15.617c0,17.836,11.436,34.136,26.968,35.416c4.779,0.495,9.601-0.273,13.996-2.219 c2.902,1.135,5.948,1.886,9.046,2.219c18.766,1.835,35.467-11.879,37.302-30.646c0.111-1.101,0.162-2.21,0.162-3.32v-17.068 C298.67,110.013,306.308,102.366,315.738,102.366z"></path><path style="fill:#FEC108;" d="M93.853,503.466H91.72c-6.913-0.316-12.733-5.266-14.167-12.033 C79.755,498.585,86.369,503.466,93.853,503.466z"></path><path style="fill:#FEC108;" d="M315.738,102.366c-9.43,0-17.068,7.638-17.068,17.068v17.068 c0.094,18.852-15.122,34.204-33.974,34.298c-1.169,0.009-2.33-0.051-3.49-0.162c-3.098-0.333-6.145-1.084-9.046-2.219 c11.99-6.025,19.33-18.51,18.775-31.917v-17.068c-0.538-8.816,6.119-16.428,14.935-17.068 C285.869,102.366,315.738,102.366,315.738,102.366z"></path></g><path d="M332.807,512H93.853c-14.141,0-25.602-11.461-25.602-25.602V102.366c0-4.711,3.823-8.534,8.534-8.534h17.068 c14.141,0,25.602,11.461,25.602,25.602v41.646c-0.222,4.438,2.697,8.432,6.998,9.558c4.634,0.845,9.08-2.219,9.934-6.861 c0.102-0.555,0.145-1.118,0.137-1.673v-34.136c0-4.711,3.823-8.534,8.534-8.534c4.711,0,8.534,3.823,8.534,8.534 c0.017,2.509,1.144,4.881,3.072,6.486c1.937,1.63,4.506,2.321,6.998,1.877c4.241-1.109,7.143-5.009,6.998-9.387v-7.51 c0-14.141,11.461-25.602,25.602-25.602h17.068c14.141,0,25.602,11.461,25.602,25.602v15.617 c-0.341,13.578,9.584,25.227,23.042,27.053c14.073,1.417,26.618-8.841,28.034-22.914c0.094-0.896,0.137-1.792,0.128-2.688v-17.068 c0-14.141,11.461-25.602,25.602-25.602h34.136c4.711,0,8.534,3.823,8.534,8.534v384.032C358.409,500.539,346.939,512,332.807,512z M85.319,110.9v375.498c0,4.711,3.823,8.534,8.534,8.534h238.953c4.711,0,8.534-3.823,8.534-8.534V110.9h-25.602 c-4.711,0-8.534,3.823-8.534,8.534v17.068c0.111,23.563-18.894,42.764-42.465,42.875c-1.468,0.009-2.927-0.06-4.387-0.205 c-22.223-2.705-38.83-21.736-38.489-44.121v-15.617c0-4.711-3.823-8.534-8.534-8.534h-17.068c-4.711,0-8.534,3.823-8.534,8.534v7.51 c0.333,12.861-8.636,24.1-21.25,26.626c-4.352,0.632-8.79,0.128-12.886-1.451v9.985c0.205,14.141-11.086,25.764-25.227,25.969 c-1.587,0.026-3.166-0.102-4.728-0.367c-12.613-2.526-21.583-13.765-21.25-26.626v-41.646c0-4.711-3.823-8.534-8.534-8.534H85.319z"></path><path d="M145.058,469.33H76.785c-4.711,0-8.534-3.823-8.534-8.534V251.712c0-21.207,17.196-38.403,38.403-38.403h8.534 c21.207,0,38.403,17.196,38.403,38.403v209.084C153.592,465.515,149.768,469.33,145.058,469.33z M85.319,452.262h51.204v-200.55 c0-11.786-9.55-21.335-21.335-21.335h-8.534c-11.786,0-21.335,9.55-21.335,21.335V452.262z"></path><path d="M213.33,469.33h-68.272c-4.711,0-8.534-3.823-8.534-8.534V251.712c0-21.207,17.196-38.403,38.403-38.403h8.534 c21.207,0,38.403,17.196,38.403,38.403v209.084C221.864,465.515,218.041,469.33,213.33,469.33z M153.592,452.262h51.204v-200.55 c0-11.786-9.55-21.335-21.335-21.335h-8.534c-11.786,0-21.335,9.55-21.335,21.335V452.262z"></path><path d="M281.602,469.33H213.33c-4.711,0-8.534-3.823-8.534-8.534V251.712c0-21.207,17.196-38.403,38.403-38.403h8.534 c21.207,0,38.403,17.196,38.403,38.403v209.084C290.136,465.515,286.313,469.33,281.602,469.33z M221.864,452.262h51.204v-200.55 c0-11.786-9.55-21.335-21.335-21.335h-8.534c-11.786,0-21.335,9.55-21.335,21.335V452.262z"></path><path d="M349.875,469.33h-68.272c-4.711,0-8.534-3.823-8.534-8.534V251.712c0-21.207,17.196-38.403,38.403-38.403h8.534 c21.207,0,38.403,17.196,38.403,38.403v209.084C358.409,465.515,354.585,469.33,349.875,469.33z M290.136,452.262h51.204v-200.55 c0-11.786-9.55-21.335-21.335-21.335h-8.534c-11.786,0-21.335,9.55-21.335,21.335V452.262z"></path><path style="fill:#CFD8DC;" d="M401.079,162.105h-51.204v34.136h51.204c9.43,0,17.068,7.638,17.068,17.068v196.283 c0,9.43-7.638,17.068-17.068,17.068h-51.204v34.136h51.204c28.282,0,51.204-22.922,51.204-51.204V213.309 C452.283,185.036,429.352,162.105,401.079,162.105z"></path><path d="M401.079,469.33h-51.204c-4.711,0-8.534-3.823-8.534-8.534V162.105c0-4.711,3.823-8.534,8.534-8.534h51.204 c32.993,0,59.738,26.746,59.738,59.738v196.283C460.817,442.584,434.072,469.33,401.079,469.33z M358.409,452.262h42.67 c23.563,0,42.67-19.108,42.67-42.67V213.309c0-23.563-19.108-42.67-42.67-42.67h-42.67V452.262z"></path><path d="M401.079,435.194h-51.204c-4.711,0-8.534-3.823-8.534-8.534V196.241c0-4.711,3.823-8.534,8.534-8.534h51.204 c14.141,0,25.602,11.461,25.602,25.602v196.283C426.681,423.733,415.211,435.194,401.079,435.194z M358.409,418.126h42.67 c4.711,0,8.534-3.823,8.534-8.534V213.309c0-4.711-3.823-8.534-8.534-8.534h-42.67V418.126z"></path><path style="fill:#FFEB3A;" d="M375.477,77.447c-0.734,14.423-12.972,25.551-27.394,24.919h-32.344 c-9.43,0-17.068,7.638-17.068,17.068v15.617c0.393,18.015-12.921,33.402-30.808,35.587c-18.766,1.835-35.467-11.879-37.302-30.646 c-0.111-1.161-0.171-2.33-0.162-3.49v-17.068c0-9.43-7.638-17.068-17.068-17.068h-17.068c-9.43,0-17.068,7.638-17.068,17.068v7.51 c0.307,8.671-5.675,16.309-14.167,18.092c-9.285,1.604-18.118-4.625-19.722-13.919c-0.179-1.041-0.265-2.099-0.247-3.149v33.112 c0.307,8.671-5.675,16.309-14.167,18.092c-9.285,1.604-18.118-4.625-19.722-13.919c-0.179-1.041-0.265-2.099-0.247-3.149v-42.67 c0-9.43-7.638-17.068-17.068-17.068h-9.387l0,0c-13.544-0.444-24.399-11.376-24.749-24.919c0.734-14.405,12.98-25.508,27.394-24.834 c8.432-0.094,16.462,3.567,21.932,9.985c-1.493-3.115-2.279-6.529-2.304-9.985c0-15.703,15.276-28.504,34.136-28.504 c15.131-0.87,28.93,8.611,33.539,23.042c0.341-21.591,20.652-38.659,45.742-38.659s45.486,17.068,45.657,38.915h0.597 c3.431-14.064,16.257-23.793,30.723-23.298c16.505-0.725,30.492,12.007,31.32,28.504c-0.026,3.311-0.691,6.588-1.963,9.643 c5.462-6.187,13.339-9.703,21.591-9.643C362.488,51.939,374.734,63.041,375.477,77.447z"></path><path d="M127.99,187.707c-14.141,0-25.602-11.461-25.602-25.602v-42.67c0-4.711-3.823-8.534-8.534-8.534h-9.387 c-1.05-0.009-2.091-0.213-3.072-0.597c-16.829-1.937-29.69-15.925-30.211-32.856c0.742-19.116,16.804-34.042,35.928-33.368 c3.994-0.017,7.971,0.589,11.777,1.792c5.266-18.664,22.709-31.226,42.073-30.296c11.205-0.102,22.061,3.866,30.552,11.18 C188.556-0.111,224.151-8.073,251.016,8.97c7.169,4.549,13.245,10.625,17.785,17.785c7.723-7.16,17.887-11.094,28.418-11.009 c18.613-0.444,34.964,12.246,39.171,30.381c3.806-1.246,7.775-1.877,11.777-1.877c19.022-0.623,35.015,14.175,35.843,33.197 c-0.742,19.133-16.795,34.076-35.928,33.453h-32.344c-4.711,0-8.534,3.823-8.534,8.534v15.617 c0.341,22.385-16.266,41.416-38.489,44.121c-23.452,2.313-44.334-14.832-46.647-38.284c-0.145-1.459-0.213-2.919-0.205-4.386 v-17.068c0-4.711-3.823-8.534-8.534-8.534h-17.068c-4.711,0-8.534,3.823-8.534,8.534v7.51c0.333,12.861-8.636,24.1-21.25,26.626 c-4.352,0.632-8.79,0.128-12.886-1.451v8.961c0.333,12.861-8.636,24.1-21.25,26.626C130.891,187.835,129.432,187.835,127.99,187.707 z M86.599,93.832h7.254c14.141,0,25.602,11.461,25.602,25.602v42.67c0.017,2.509,1.144,4.881,3.072,6.486 c1.937,1.63,4.506,2.321,6.998,1.877c4.241-1.109,7.143-5.009,6.998-9.387v-33.112c0-4.711,3.823-8.534,8.534-8.534 c4.711,0,8.534,3.823,8.534,8.534c0.017,2.509,1.144,4.881,3.072,6.486c1.937,1.63,4.506,2.321,6.998,1.877 c4.241-1.109,7.143-5.009,6.998-9.387v-7.51c0-14.141,11.461-25.602,25.602-25.602h17.068c14.141,0,25.602,11.461,25.602,25.602 v17.068c-0.068,14.141,11.333,25.662,25.474,25.73c0.896,0.009,1.792-0.034,2.688-0.128c13.458-1.826,23.383-13.475,23.042-27.053 v-15.617c0-14.141,11.461-25.602,25.602-25.602h32.344c9.72,0.64,18.135-6.674,18.86-16.385c-0.777-9.678-9.174-16.94-18.86-16.3 c-5.888-0.009-11.478,2.586-15.276,7.083c-3.209,3.448-8.611,3.644-12.059,0.435c-2.458-2.287-3.345-5.795-2.279-8.969 c0.87-2.048,1.34-4.258,1.365-6.486c-0.819-11.786-10.992-20.704-22.786-19.97c-10.207-0.521-19.432,6.051-22.274,15.873 c-0.819,4.037-4.412,6.913-8.534,6.827c-4.839,0.051-8.858-3.704-9.131-8.534c0-17.068-17.068-30.467-37.123-30.467 s-36.952,13.569-37.123,30.211c0.521,4.711-2.885,8.952-7.595,9.473c-4.711,0.521-8.952-2.885-9.473-7.595l0,0 c-3.746-10.71-14.303-17.503-25.602-16.471c-14.167,0-25.602,8.534-25.602,19.97c0.017,2.185,0.512,4.344,1.451,6.315 c1.664,4.412-0.572,9.336-4.975,10.992c-2.97,1.118-6.307,0.495-8.679-1.604c-3.832-4.48-9.464-7.006-15.361-6.913 c-9.592-0.589-17.913,6.554-18.775,16.129c0.367,9.157,7.903,16.394,17.068,16.385C85.319,93.832,86.599,93.832,86.599,93.832z"></path></svg>