<svg width="24" height="24" viewBox="0 0 24 24" fill="none" xmlns="http://www.w3.org/2000/svg">
<path d="M13.1308 1.22583C14.3682 1.22913 14.9963 1.23573 15.5386 1.25113L15.752 1.25883C15.9984 1.26763 16.2415 1.27863 16.5351 1.29183C17.7055 1.34683 18.504 1.53162 19.2047 1.80332C19.9307 2.08271 20.5422 2.4611 21.1538 3.07159C21.7131 3.62146 22.1459 4.28661 22.422 5.02074C22.6937 5.72142 22.8785 6.52001 22.9335 7.69148C22.9467 7.98407 22.9577 8.22717 22.9665 8.47466L22.9731 8.68806C22.9896 9.22924 22.9962 9.85733 22.9984 11.0948L22.9995 11.9154V13.3563C23.0022 14.1587 22.9938 14.961 22.9742 15.7631L22.9676 15.9765C22.9588 16.224 22.9478 16.4671 22.9346 16.7597C22.8796 17.9311 22.6926 18.7286 22.422 19.4304C22.1467 20.1649 21.7138 20.8303 21.1538 21.3796C20.6038 21.9387 19.9387 22.3715 19.2047 22.6478C18.504 22.9195 17.7055 23.1043 16.5351 23.1593C16.2741 23.1716 16.0131 23.1826 15.752 23.1923L15.5386 23.1989C14.9963 23.2143 14.3682 23.222 13.1308 23.2242L12.3103 23.2253H10.8704C10.0678 23.2281 9.26509 23.2197 8.46265 23.2L8.24926 23.1934C7.98815 23.1835 7.72709 23.1722 7.4661 23.1593C6.29576 23.1043 5.4972 22.9195 4.79544 22.6478C4.06141 22.3721 3.39655 21.9393 2.84744 21.3796C2.28762 20.8299 1.85444 20.1647 1.57811 19.4304C1.30642 18.7297 1.12163 17.9311 1.06663 16.7597C1.05438 16.4987 1.04338 16.2376 1.03363 15.9765L1.02813 15.7631C1.00786 14.961 0.998696 14.1587 1.00063 13.3563V11.0948C0.997565 10.2925 1.00563 9.49015 1.02483 8.68806L1.03253 8.47466C1.04133 8.22717 1.05233 7.98407 1.06553 7.69148C1.12053 6.52001 1.30532 5.72252 1.57701 5.02074C1.85322 4.28585 2.28726 3.6205 2.84854 3.07159C3.39751 2.51222 4.06194 2.0794 4.79544 1.80332C5.4972 1.53162 6.29466 1.34683 7.4661 1.29183C7.75869 1.27863 8.00288 1.26763 8.24926 1.25883L8.46265 1.25223C9.26472 1.23269 10.067 1.22425 10.8693 1.22693L13.1308 1.22583ZM12.0001 6.7257C10.5415 6.7257 9.14258 7.30515 8.11118 8.33658C7.07979 9.368 6.50035 10.7669 6.50035 12.2256C6.50035 13.6842 7.07979 15.0831 8.11118 16.1146C9.14258 17.146 10.5415 17.7254 12.0001 17.7254C13.4587 17.7254 14.8576 17.146 15.889 16.1146C16.9204 15.0831 17.4998 13.6842 17.4998 12.2256C17.4998 10.7669 16.9204 9.368 15.889 8.33658C14.8576 7.30515 13.4587 6.7257 12.0001 6.7257ZM12.0001 8.92565C12.4334 8.92558 12.8625 9.01086 13.2629 9.17663C13.6633 9.3424 14.0271 9.58541 14.3336 9.89179C14.64 10.1982 14.8832 10.5619 15.0491 10.9622C15.215 11.3626 15.3004 11.7917 15.3005 12.225C15.3005 12.6584 15.2152 13.0875 15.0495 13.4879C14.8837 13.8883 14.6407 14.2521 14.3343 14.5586C14.028 14.8651 13.6642 15.1082 13.2639 15.2741C12.8636 15.44 12.4345 15.5254 12.0012 15.5255C11.126 15.5255 10.2867 15.1778 9.66784 14.559C9.049 13.9401 8.70134 13.1008 8.70134 12.2256C8.70134 11.3504 9.049 10.511 9.66784 9.89217C10.2867 9.27332 11.126 8.92565 12.0012 8.92565M17.7759 5.07574C17.4112 5.07574 17.0615 5.2206 16.8037 5.47846C16.5458 5.73632 16.4009 6.08604 16.4009 6.45071C16.4009 6.81537 16.5458 7.1651 16.8037 7.42296C17.0615 7.68081 17.4112 7.82568 17.7759 7.82568C18.1405 7.82568 18.4902 7.68081 18.7481 7.42296C19.0059 7.1651 19.1508 6.81537 19.1508 6.45071C19.1508 6.08604 19.0059 5.73632 18.7481 5.47846C18.4902 5.2206 18.1405 5.07574 17.7759 5.07574Z" fill="#FFC328"/>
</svg>
