<svg width="40" height="40" fill="none" xmlns="http://www.w3.org/2000/svg"><path d="M35 18.333c0 9.25-6.4 17.9-15 20-8.6-2.1-15-10.75-15-20v-10l15-6.666 15 6.666v10ZM20 35c6.25-1.667 11.667-9.1 11.667-16.3v-8.2L20 5.3 8.333 10.5v8.2C8.333 25.9 13.75 33.333 20 35Zm4.667-16.667v-2.5c0-2.333-2.334-4.166-4.667-4.166-2.333 0-4.667 1.833-4.667 4.166v2.5c-1 0-2 1-2 2v5.834c0 1.166 1 2.166 2 2.166H24.5c1.167 0 2.167-1 2.167-2V20.5c0-1.167-1-2.167-2-2.167Zm-2.167 0h-5v-2.5c0-1.333 1.167-2.166 2.5-2.166s2.5.833 2.5 2.166v2.5Z" fill="#FFD362"/></svg>