<svg width="32" height="32" fill="none" xmlns="http://www.w3.org/2000/svg"><g clip-path="url(#a)"><path d="M16 0C7.164 0 0 7.164 0 16s7.164 16 16 16 16-7.164 16-16S24.836 0 16 0Zm7.859 10.961-2.627 12.374c-.193.877-.716 1.09-1.445.677l-4-2.947-1.928 1.859a1.012 1.012 0 0 1-.8.393h-.007l.284-4.072 7.413-6.696c.32-.284-.072-.445-.497-.161l-9.159 5.768-3.946-1.232c-.854-.27-.878-.853.18-1.272l15.421-5.944c.717-.261 1.341.17 1.11 1.255v-.002Z" fill="#E2BEAC"/></g><defs><clipPath id="a"><path fill="#fff" d="M0 0h32v32H0z"/></clipPath></defs></svg>