<svg width="40" height="40" fill="none" xmlns="http://www.w3.org/2000/svg"><path d="M20 3.75C11.04 3.75 3.75 11.04 3.75 20S11.04 36.25 20 36.25 36.25 28.96 36.25 20 28.96 3.75 20 3.75ZM31.172 27.5h-3.533a.624.624 0 0 1-.54-.313l-1.26-2.162a.625.625 0 0 1-.068-.469l1.161-4.681a.626.626 0 0 1 .363-.426l2.196-.93a.625.625 0 0 1 .651.102l3.253 2.799a.626.626 0 0 1 .21.567 13.654 13.654 0 0 1-1.897 5.21.626.626 0 0 1-.536.303Zm-20.663-8.974 2.196.93a.625.625 0 0 1 .363.425l1.16 4.681a.625.625 0 0 1-.066.47L12.9 27.186a.625.625 0 0 1-.54.313H8.828a.625.625 0 0 1-.533-.298 13.652 13.652 0 0 1-1.897-5.209.625.625 0 0 1 .21-.567l3.253-2.799a.625.625 0 0 1 .648-.101Zm20.074-6.816-1.412 4.014a.624.624 0 0 1-.343.37l-2.31.979a.626.626 0 0 1-.646-.097l-4.395-3.687a.625.625 0 0 1-.227-.476v-2.624a.626.626 0 0 1 .278-.52l3.346-2.23a.625.625 0 0 1 .599-.051 13.823 13.823 0 0 1 4.996 3.706.625.625 0 0 1 .114.616ZM15.125 7.44l3.347 2.23a.625.625 0 0 1 .278.52v2.623a.625.625 0 0 1-.223.478l-4.396 3.687a.625.625 0 0 1-.645.097l-2.314-.981a.626.626 0 0 1-.346-.369l-1.412-4.014a.625.625 0 0 1 .117-.617 13.822 13.822 0 0 1 5-3.71.625.625 0 0 1 .594.056Zm1.352 25.583-1.541-3.882a.624.624 0 0 1 .04-.547l1.186-2.032a.625.625 0 0 1 .54-.312h6.596a.624.624 0 0 1 .54.313l1.186 2.03a.625.625 0 0 1 .042.548l-1.53 3.88a.627.627 0 0 1-.445.38c-2.031.467-4.141.467-6.172 0a.626.626 0 0 1-.442-.378Z" fill="#FFD362"/></svg>