<svg width="40" height="40" fill="none" xmlns="http://www.w3.org/2000/svg"><mask id="a" style="mask-type:luminance" maskUnits="userSpaceOnUse" x="9" y="1" width="25" height="39"><path d="M11.667 25v8.333c0 5 6.666 5 6.666 0V25m0 5.833h-6.666" stroke="#fff" stroke-width="4" stroke-linecap="round" stroke-linejoin="round"/><path d="M11.667 5a1.667 1.667 0 0 1 1.666-1.667h13.863c.266 0 .526.063.74.221.849.633 3.062 2.764 3.73 8.113.645 5.151-1.14 10.303-1.984 12.379-.24.591-.821.954-1.459.954H11.667V5Z" fill="#fff" stroke="#fff" stroke-width="4"/><path d="M18.333 10a1.667 1.667 0 1 0 0-3.333 1.667 1.667 0 0 0 0 3.333Z" fill="#000"/></mask><g mask="url(#a)"><path d="M0 0h40v40H0V0Z" fill="#FFD362"/></g></svg>