<svg width="255" height="46" viewBox="0 0 255 46" fill="none" xmlns="http://www.w3.org/2000/svg">
<path d="M13.9 0.400024L17.9 4.20001C19.4 5.60001 20.2 7.50002 20.2 9.60002C20.2 11.6 21 13.5 22.4 14.9L22.9 15.4L27.5 0.500015" fill="#EF3F4F"/>
<path d="M0.299988 13.7L5.79999 13.5C7.79999 13.4 9.79998 14.2 11.2 15.6C12.6 17 14.5 17.7 16.5 17.7H17.2L9.79999 4" fill="#EF3F4F"/>
<path d="M0.300003 32.7L4 28.7C5.4 27.2 7.3 26.3 9.3 26.3C11.3 26.3 13.1 25.4 14.5 24L15 23.5L0 19.2" fill="#EF3F4F"/>
<path d="M13.9 45.9L13.6 40.4C13.5 38.4 14.2 36.4 15.6 34.9C16.9 33.5 17.7 31.5 17.6 29.6V28.9L4 36.6" fill="#EF3F4F"/>
<path d="M32.9 45.5L28.8 41.9C27.3 40.6 26.4 38.7 26.3 36.6C26.2 34.6 25.3 32.8 23.9 31.4L23.4 30.9L19.4 46" fill="#EF3F4F"/>
<path d="M45.9 31.6L40.4 32C38.4 32.2 36.4 31.5 34.9 30.1C33.4 28.8 31.5 28.1 29.5 28.2H28.8L36.8 41.6" fill="#EF3F4F"/>
<path d="M45 12.7L41.5 16.9C40.2 18.4 38.3 19.4 36.3 19.5C34.3 19.6 32.5 20.5 31.2 22L30.8 22.5L46 26.1" fill="#EF3F4F"/>
<path d="M30.9 0L31.4 5.5C31.6 7.5 31 9.50001 29.6 11.1C28.3 12.6 27.7 14.5 27.8 16.5L27.9 17.2L41.1 8.90001" fill="#EF3F4F"/>
<path d="M86.928 34.2839C84.2 34.2839 82.03 33.5399 80.418 32.0519C78.806 30.5433 78 28.3939 78 25.6039V20.3959C78 17.6059 78.806 15.4669 80.418 13.9789C82.03 12.4703 84.2 11.7159 86.928 11.7159C89.656 11.7159 91.826 12.4703 93.438 13.9789C95.05 15.4669 95.856 17.6059 95.856 20.3959V25.6039C95.856 28.3939 95.05 30.5433 93.438 32.0519C91.826 33.5399 89.656 34.2839 86.928 34.2839ZM86.928 30.6259C88.4573 30.6259 89.6457 30.1816 90.493 29.2929C91.3403 28.4043 91.764 27.2159 91.764 25.7279V20.2719C91.764 18.7839 91.3403 17.5956 90.493 16.7069C89.6457 15.8183 88.4573 15.3739 86.928 15.3739C85.4193 15.3739 84.231 15.8183 83.363 16.7069C82.5157 17.5956 82.092 18.7839 82.092 20.2719V25.7279C82.092 27.2159 82.5157 28.4043 83.363 29.2929C84.231 30.1816 85.4193 30.6259 86.928 30.6259Z" fill="black"/>
<path d="M99.5692 33.8499V18.4739H103.413V20.4889H103.971C104.219 19.9516 104.684 19.4453 105.366 18.9699C106.048 18.4739 107.082 18.2259 108.466 18.2259C109.665 18.2259 110.709 18.5049 111.597 19.0629C112.507 19.6003 113.209 20.3546 113.705 21.3259C114.201 22.2766 114.449 23.3926 114.449 24.6739V33.8499H110.543V24.9839C110.543 23.8266 110.254 22.9586 109.675 22.3799C109.117 21.8013 108.311 21.5119 107.257 21.5119C106.059 21.5119 105.129 21.9149 104.467 22.7209C103.806 23.5063 103.475 24.6119 103.475 26.0379V33.8499H99.5692Z" fill="black"/>
<path d="M118.672 33.8499V12.1499H122.578V33.8499H118.672Z" fill="black"/>
<path d="M126.906 33.8499V18.4739H130.812V33.8499H126.906ZM128.859 16.6759C128.156 16.6759 127.557 16.4486 127.061 15.9939C126.586 15.5393 126.348 14.9399 126.348 14.1959C126.348 13.4519 126.586 12.8526 127.061 12.3979C127.557 11.9433 128.156 11.7159 128.859 11.7159C129.582 11.7159 130.182 11.9433 130.657 12.3979C131.132 12.8526 131.37 13.4519 131.37 14.1959C131.37 14.9399 131.132 15.5393 130.657 15.9939C130.182 16.4486 129.582 16.6759 128.859 16.6759Z" fill="black"/>
<path d="M135.141 33.8499V18.4739H138.985V20.4889H139.543C139.791 19.9516 140.256 19.4453 140.938 18.9699C141.62 18.4739 142.653 18.2259 144.038 18.2259C145.236 18.2259 146.28 18.5049 147.169 19.0629C148.078 19.6003 148.781 20.3546 149.277 21.3259C149.773 22.2766 150.021 23.3926 150.021 24.6739V33.8499H146.115V24.9839C146.115 23.8266 145.825 22.9586 145.247 22.3799C144.689 21.8013 143.883 21.5119 142.829 21.5119C141.63 21.5119 140.7 21.9149 140.039 22.7209C139.377 23.5063 139.047 24.6119 139.047 26.0379V33.8499H135.141Z" fill="black"/>
<path d="M161.249 34.2839C159.72 34.2839 158.366 33.9636 157.188 33.3229C156.031 32.6616 155.121 31.7419 154.46 30.5639C153.819 29.3653 153.499 27.9599 153.499 26.3479V25.9759C153.499 24.3639 153.819 22.9689 154.46 21.7909C155.101 20.5923 156 19.6726 157.157 19.0319C158.314 18.3706 159.658 18.0399 161.187 18.0399C162.696 18.0399 164.008 18.3809 165.124 19.0629C166.24 19.7243 167.108 20.6543 167.728 21.8529C168.348 23.0309 168.658 24.4053 168.658 25.9759V27.3089H157.467C157.508 28.3629 157.901 29.2206 158.645 29.8819C159.389 30.5433 160.298 30.8739 161.373 30.8739C162.468 30.8739 163.274 30.6363 163.791 30.1609C164.308 29.6856 164.7 29.1586 164.969 28.5799L168.162 30.2539C167.873 30.7913 167.449 31.3803 166.891 32.0209C166.354 32.6409 165.63 33.1783 164.721 33.6329C163.812 34.0669 162.654 34.2839 161.249 34.2839ZM157.498 24.3949H164.69C164.607 23.5063 164.246 22.7933 163.605 22.2559C162.985 21.7186 162.169 21.4499 161.156 21.4499C160.102 21.4499 159.265 21.7186 158.645 22.2559C158.025 22.7933 157.643 23.5063 157.498 24.3949Z" fill="black"/>
<path d="M178.521 34.2839C176.516 34.2839 174.873 33.8499 173.592 32.9819C172.31 32.1139 171.535 30.8739 171.267 29.2619L174.863 28.3319C175.007 29.0553 175.245 29.6236 175.576 30.0369C175.927 30.4503 176.351 30.7499 176.847 30.9359C177.363 31.1013 177.921 31.1839 178.521 31.1839C179.43 31.1839 180.102 31.0289 180.536 30.7189C180.97 30.3883 181.187 29.9853 181.187 29.5099C181.187 29.0346 180.98 28.6729 180.567 28.4249C180.153 28.1563 179.492 27.9393 178.583 27.7739L177.715 27.6189C176.64 27.4123 175.658 27.1333 174.77 26.7819C173.881 26.4099 173.168 25.9036 172.631 25.2629C172.093 24.6223 171.825 23.7956 171.825 22.7829C171.825 21.2536 172.383 20.0859 173.499 19.2799C174.615 18.4533 176.082 18.0399 177.901 18.0399C179.616 18.0399 181.042 18.4223 182.179 19.1869C183.315 19.9516 184.059 20.9539 184.411 22.1939L180.784 23.3099C180.618 22.5246 180.277 21.9666 179.761 21.6359C179.265 21.3053 178.645 21.1399 177.901 21.1399C177.157 21.1399 176.588 21.2743 176.196 21.5429C175.803 21.7909 175.607 22.1423 175.607 22.5969C175.607 23.0929 175.813 23.4649 176.227 23.7129C176.64 23.9403 177.198 24.1159 177.901 24.2399L178.769 24.3949C179.926 24.6016 180.97 24.8806 181.9 25.2319C182.85 25.5626 183.594 26.0483 184.132 26.6889C184.69 27.3089 184.969 28.1563 184.969 29.2309C184.969 30.8429 184.38 32.0933 183.202 32.9819C182.044 33.8499 180.484 34.2839 178.521 34.2839Z" fill="black"/>
<path d="M193.979 33.8499C192.966 33.8499 192.139 33.5399 191.499 32.9199C190.879 32.2793 190.569 31.4319 190.569 30.3779V21.6979H186.725V18.4739H190.569V13.6999H194.475V18.4739H198.691V21.6979H194.475V29.6959C194.475 30.3159 194.764 30.6259 195.343 30.6259H198.319V33.8499H193.979Z" fill="black"/>
<path d="M208.688 34.2839C207.158 34.2839 205.805 33.9636 204.627 33.3229C203.469 32.6616 202.56 31.7419 201.899 30.5639C201.258 29.3653 200.938 27.9599 200.938 26.3479V25.9759C200.938 24.3639 201.258 22.9689 201.899 21.7909C202.539 20.5923 203.438 19.6726 204.596 19.0319C205.753 18.3706 207.096 18.0399 208.626 18.0399C210.134 18.0399 211.447 18.3809 212.563 19.0629C213.679 19.7243 214.547 20.6543 215.167 21.8529C215.787 23.0309 216.097 24.4053 216.097 25.9759V27.3089H204.906C204.947 28.3629 205.34 29.2206 206.084 29.8819C206.828 30.5433 207.737 30.8739 208.812 30.8739C209.907 30.8739 210.713 30.6363 211.23 30.1609C211.746 29.6856 212.139 29.1586 212.408 28.5799L215.601 30.2539C215.311 30.7913 214.888 31.3803 214.33 32.0209C213.792 32.6409 213.069 33.1783 212.16 33.6329C211.25 34.0669 210.093 34.2839 208.688 34.2839ZM204.937 24.3949H212.129C212.046 23.5063 211.684 22.7933 211.044 22.2559C210.424 21.7186 209.607 21.4499 208.595 21.4499C207.541 21.4499 206.704 21.7186 206.084 22.2559C205.464 22.7933 205.081 23.5063 204.937 24.3949Z" fill="black"/>
<path d="M219.573 33.8499V18.4739H223.417V20.4889H223.975C224.223 19.9516 224.688 19.4453 225.37 18.9699C226.052 18.4739 227.085 18.2259 228.47 18.2259C229.669 18.2259 230.712 18.5049 231.601 19.0629C232.51 19.6003 233.213 20.3546 233.709 21.3259C234.205 22.2766 234.453 23.3926 234.453 24.6739V33.8499H230.547V24.9839C230.547 23.8266 230.258 22.9586 229.679 22.3799C229.121 21.8013 228.315 21.5119 227.261 21.5119C226.062 21.5119 225.132 21.9149 224.471 22.7209C223.81 23.5063 223.479 24.6119 223.479 26.0379V33.8499H219.573Z" fill="black"/>
<path d="M244.876 34.2839C243.656 34.2839 242.509 33.9843 241.435 33.3849C240.381 32.7649 239.533 31.8659 238.893 30.6879C238.252 29.5099 237.932 28.0839 237.932 26.4099V25.9139C237.932 24.2399 238.252 22.8139 238.893 21.6359C239.533 20.4579 240.381 19.5693 241.435 18.9699C242.489 18.3499 243.636 18.0399 244.876 18.0399C245.806 18.0399 246.581 18.1536 247.201 18.3809C247.841 18.5876 248.358 18.8563 248.751 19.1869C249.143 19.5176 249.443 19.8689 249.65 20.2409H250.208V12.1499H254.114V33.8499H250.27V31.9899H249.712C249.36 32.5686 248.813 33.0956 248.069 33.5709C247.345 34.0463 246.281 34.2839 244.876 34.2839ZM246.054 30.8739C247.252 30.8739 248.255 30.4916 249.061 29.7269C249.867 28.9416 250.27 27.8049 250.27 26.3169V26.0069C250.27 24.5189 249.867 23.3926 249.061 22.6279C248.275 21.8426 247.273 21.4499 246.054 21.4499C244.855 21.4499 243.853 21.8426 243.047 22.6279C242.241 23.3926 241.838 24.5189 241.838 26.0069V26.3169C241.838 27.8049 242.241 28.9416 243.047 29.7269C243.853 30.4916 244.855 30.8739 246.054 30.8739Z" fill="black"/>
</svg>
