<svg width="24" height="24" viewBox="0 0 24 24" fill="none" xmlns="http://www.w3.org/2000/svg">
<path d="M22.5 3.492L21.54 3.77325L4.359 9H1.5V15H4.35975L5.83575 15.4455L5.81325 15.5153V15.5393C5.33175 17.1233 6.2235 18.8843 7.87575 19.3823C7.88325 19.3845 7.89225 19.38 7.89825 19.3823C9.4905 19.866 11.253 18.9848 11.7428 17.3198L11.7653 17.2493L21.54 20.2268L22.5 20.5073V3.492ZM21 5.508V18.492L4.71 13.5225L4.61775 13.5H3V10.5H4.617L4.71075 10.4775L21 5.508ZM7.26525 15.8903L10.3358 16.8053L10.3133 16.875V16.8975C10.0553 17.775 9.12375 18.204 8.32125 17.9528C7.44375 17.6955 6.99225 16.7873 7.24275 15.984V15.9615L7.26525 15.8903Z" fill="#EF3F4F"/>
</svg>
