<!-- icon666.com - MILLIONS vector ICONS FREE --><svg xmlns="http://www.w3.org/2000/svg" id="Layer_1" data-name="Layer 1" viewBox="0 0 512 512"><title>Ads filter funnel</title><path d="M170.75,115.308a6,6,0,0,0,.167,6.092L230,215.59v30.032a6,6,0,0,0,3.107,5.257l40,22.011A6,6,0,0,0,282,267.633V215.59l59.083-94.19A6,6,0,0,0,336,112.212H304.2a24.652,24.652,0,0,0-48.292,0H176A6,6,0,0,0,170.75,115.308Zm109.306-10.777a12.667,12.667,0,0,1,11.63,7.681h-23.26A12.665,12.665,0,0,1,280.056,104.531Zm45.1,19.681-54.236,86.464a6,6,0,0,0-.917,3.188v43.619l-28-15.408V213.864a6,6,0,0,0-.917-3.188l-54.236-86.464Z" fill="#ffffff"></path><path d="M274.938,57.908a24.65,24.65,0,1,0-24.649-24.649A24.678,24.678,0,0,0,274.938,57.908Zm0-37.3a12.65,12.65,0,1,1-12.649,12.65A12.665,12.665,0,0,1,274.938,20.609Z" fill="#ffffff"></path><path d="M239.433,70.557a24.65,24.65,0,1,0-24.65,24.649A24.677,24.677,0,0,0,239.433,70.557Zm-37.3,0a12.65,12.65,0,1,1,12.649,12.649A12.664,12.664,0,0,1,202.134,70.557Z" fill="#ffffff"></path><path d="M451.141,354.227a33.2,33.2,0,0,0-44.272-12.108l-1.337.721c-8.434-9.707-22.6-13.364-33.453-7.866l-.133.07-4.177,2.251a36.867,36.867,0,0,0-41.707-3.416L300.8,347.613H267.137a48.023,48.023,0,0,1-20.792-4.764l-4.663-2.255a80.928,80.928,0,0,0-84.228,8.225c-.131.1-.259.2-.381.313l-11.259,10.023a38.13,38.13,0,0,1-13.5,7.758l-6.129-20.1a6,6,0,0,0-5.739-4.25H66a6,6,0,0,0-5.956,6.726l18.15,148.83a6,6,0,0,0,5.956,5.274h81.675a6,6,0,0,0,5.739-7.75l-10.527-34.529,32.794-20.732a19.207,19.207,0,0,1,13.97-1.8c.124.031.249.059.375.082l67.979,12.517a88.9,88.9,0,0,0,54.934-7.756,6.045,6.045,0,0,0,.734-.43L449.4,362.268A6,6,0,0,0,451.141,354.227Zm-73.577-8.579c5.438-2.716,12.2-.775,16.9,3.164l-43.416,23.423-1.678.884a39.593,39.593,0,0,0-5.2-9.476Zm-45.7-1.264.143-.08a24.834,24.834,0,0,1,23.81-.568l-20.654,11.128a39.471,39.471,0,0,0-12.009-5.744ZM89.463,491.391,72.776,354.561h43.231l41.717,136.83Zm235.926-58.535a76.81,76.81,0,0,1-47.077,6.52L210.528,426.9a31.15,31.15,0,0,0-22.686,3.083c-.094.053-.187.108-.278.166l-30.156,19.064-21.59-70.817a50.151,50.151,0,0,0,17.975-10.274l11.071-9.856a68.977,68.977,0,0,1,71.593-6.865l4.662,2.255a60.1,60.1,0,0,0,26.018,5.961h45.22a27.672,27.672,0,0,1,26.894,21.311L307.678,379.5a197.189,197.189,0,0,0-35.839,1.655,6,6,0,0,0,1.644,11.887,184.989,184.989,0,0,1,33.652-1.555l38.572,1.746c.091,0,.182.006.272.006a6,6,0,0,0,6-6c0-.637-.019-1.27-.048-1.9l4.763-2.512,55.873-30.143A21.223,21.223,0,0,1,437.329,356Z" fill="#ffffff"></path><path d="M103.818,471.35a16.891,16.891,0,1,0,16.891-16.89A16.91,16.91,0,0,0,103.818,471.35Zm16.891-4.89a4.89,4.89,0,1,1-4.891,4.89A4.9,4.9,0,0,1,120.709,466.46Z" fill="#ffffff"></path><path d="M256.289,277.977a26,26,0,1,0,26,26A26.029,26.029,0,0,0,256.289,277.977Zm0,40a14,14,0,1,1,14-14A14.016,14.016,0,0,1,256.289,317.977Z" fill="#ffffff"></path></svg>