<!-- icon666.com - MILLIONS vector ICONS FREE --><svg viewBox="-1 0 511 512" xmlns="http://www.w3.org/2000/svg"><path d="m462.589844 333.644531c9.273437-24.816406 13.980468-50.902343 13.980468-77.644531 0-45.046875-13.417968-88.417969-38.800781-125.429688-24.257812-35.371093-57.8125-62.738281-97.15625-79.296874-16.191406-30.472657-48.265625-51.273438-85.113281-51.273438-36.410156 0-68.164062 20.3125-84.53125 50.199219-40.011719 16.246093-74.1875 43.59375-98.953125 79.234375-25.894531 37.261718-39.578125 81.027344-39.578125 126.566406 0 26.742188 4.707031 52.828125 13.980469 77.644531-27.527344 16.972657-45.917969 47.398438-45.917969 82.042969 0 53.105469 43.207031 96.3125 96.3125 96.3125 35.074219 0 65.824219-18.847656 82.664062-46.945312 24.023438 8.628906 49.230469 13.011718 75.027344 13.011718s51.003906-4.382812 75.027344-13.011718c16.839844 28.097656 47.589844 46.945312 82.664062 46.945312 53.105469 0 96.3125-43.207031 96.3125-96.3125 0-34.644531-18.390624-65.070312-45.917968-82.042969zm-207.089844-318.671875c44.851562 0 81.34375 36.488282 81.34375 81.339844 0 22.824219-9.464844 43.46875-24.65625 58.253906-7.390625-10.796875-18.050781-18.925781-30.234375-23.265625 6.175781-6.53125 9.976563-15.332031 9.976563-25.007812v-41.386719c0-11.574219-9.414063-20.992188-20.992188-20.992188h-29.730469l-11.519531-5.300781c-2.316406-1.066406-5.019531-.882812-7.167969.496094-2.148437 1.375-3.445312 3.75-3.445312 6.300781v60.882813c0 9.679687 3.800781 18.480469 9.980469 25.011719-12.183594 4.339843-22.847657 12.464843-30.238282 23.261718-15.191406-14.785156-24.65625-35.429687-24.65625-58.253906 0-44.851562 36.492188-81.339844 81.339844-81.339844zm21.460938 54.890625h-42.917969v-12.765625l2.394531 1.101563c.984375.453125 2.050781.6875 3.132812.6875h31.367188c3.320312 0 6.023438 2.699219 6.023438 6.019531zm-42.917969 14.972657h42.917969v21.457031c0 11.832031-9.628907 21.457031-21.460938 21.457031-11.828125 0-21.457031-9.625-21.457031-21.457031zm15.46875 57.886718h11.980469c15.824218 0 30.546874 8.195313 39.015624 21.300782-12.898437 8.601562-28.375 13.628906-45.007812 13.628906-16.628906 0-32.105469-5.027344-45.003906-13.628906 8.46875-13.105469 23.191406-21.300782 39.015625-21.300782zm-197.261719 340.964844c8.546875-12.839844 22.824219-20.59375 38.574219-20.59375h11.976562c15.746094 0 30.003907 7.769531 38.554688 20.605469-12.804688 8.414062-28.109375 13.328125-44.542969 13.328125-16.445312 0-31.753906-4.917969-44.5625-13.339844zm66.019531-93.449219h-42.914062v-12.765625l2.394531 1.101563c.980469.449219 2.046875.683593 3.128906.683593h31.371094c3.320312 0 6.019531 2.703126 6.019531 6.023438zm-42.914062 14.96875h42.914062v21.460938c0 11.832031-9.625 21.457031-21.457031 21.457031s-21.457031-9.625-21.457031-21.457031zm77.75 69.113281c-7.390625-10.625-17.796875-18.496093-29.78125-22.710937 6.140625-6.523437 9.917969-15.296875 9.917969-24.941406v-41.386719c0-11.578125-9.417969-20.992188-20.992188-20.992188h-29.730469l-11.519531-5.304687c-2.320312-1.0625-5.019531-.878906-7.167969.5-2.148437 1.375-3.449219 3.75-3.449219 6.300781v60.882813c0 9.644531 3.773438 18.417969 9.914063 24.941406-11.980469 4.214844-22.390625 12.082031-29.78125 22.710937-15.417969-14.8125-25.042969-35.613281-25.042969-58.632812 0-44.851562 36.488282-81.339844 81.339844-81.339844s81.339844 36.488282 81.339844 81.339844c0 23.019531-9.628906 43.820312-25.046875 58.632812zm101.398437-11.226562c-23.472656 0-46.410156-3.886719-68.308594-11.542969 4.464844-11.089843 6.929688-23.195312 6.929688-35.863281 0-53.105469-43.207031-96.3125-96.3125-96.3125-13.09375 0-25.582031 2.632812-36.972656 7.386719-8.242188-22.644531-12.429688-46.410157-12.429688-70.761719 0-42.46875 12.757813-83.28125 36.898438-118.023438 20.195312-29.058593 47.089844-52.207031 78.457031-67.695312-2.328125 8.285156-3.574219 17.015625-3.574219 26.03125 0 53.105469 43.203125 96.3125 96.308594 96.3125 53.109375 0 96.3125-43.207031 96.3125-96.3125 0-8.59375-1.136719-16.921875-3.257812-24.855469 30.777343 15.683594 57.125 38.789063 76.871093 67.582031 23.664063 34.507813 36.171875 74.949219 36.171875 116.960938 0 24.351562-4.1875 48.117188-12.429687 70.761719-11.390625-4.753907-23.878907-7.386719-36.972657-7.386719-53.105468 0-96.3125 43.207031-96.3125 96.3125 0 12.667969 2.464844 24.773438 6.929688 35.863281-21.898438 7.65625-44.835938 11.542969-68.308594 11.542969zm114.554688 21.507812c8.445312-13.234374 23.207031-21.507812 39.144531-21.507812h11.976563c15.273437 0 29.304687 7.410156 37.933593 19.6875-13.074219 8.980469-28.890625 14.246094-45.917969 14.246094-15.839843 0-30.621093-4.5625-43.136718-12.425782zm66.589844-57.933593c0 11.832031-9.625 21.457031-21.457032 21.457031-11.832031 0-21.457031-9.625-21.457031-21.457031v-21.460938h42.914063zm38.925781 41.152343v-69.140624c0-29.96875-24.382813-54.351563-54.351563-54.351563h-12.058594c-29.972656 0-54.355468 24.382813-54.355468 54.351563v7.277343c0 4.136719 3.351562 7.484375 7.488281 7.484375 4.132813 0 7.484375-3.347656 7.484375-7.484375v-7.277343c0-21.714844 17.664062-39.382813 39.382812-39.382813h12.058594c21.714844 0 39.378906 17.667969 39.378906 39.382813v63.769531c-5.601562-4.707031-12-8.375-18.914062-10.820313 6.152344-6.523437 9.933594-15.308594 9.933594-24.960937v-24.125c0-6.785157-5.519532-12.304688-12.304688-12.304688h-48.246094c-6.785156 0-12.308593 5.519531-12.308593 12.304688v24.125c0 9.675781 3.800781 18.476562 9.976562 25.003906-6.921875 2.464844-13.34375 6.144531-18.957031 10.847656v-26.621093c0-4.132813-3.351562-7.484376-7.484375-7.484376-4.136719 0-7.488281 3.351563-7.488281 7.484376v36.339843c-14.191406-14.648437-22.953125-34.589843-22.953125-56.550781 0-44.851562 36.488281-81.339844 81.339843-81.339844 44.851563 0 81.339844 36.488282 81.339844 81.339844 0 19.824219-7.132812 38.003906-18.960937 52.132812zm0 0" fill="#ffffff"></path><path d="m334.847656 332.820312v-11.699218c0-4.132813-3.351562-7.484375-7.484375-7.484375-4.136719 0-7.488281 3.351562-7.488281 7.484375v11.699218c0 8.546876-6.953125 15.5-15.5 15.5h-54.363281v-11.226562h4.929687c7.738282 0 14.035156-6.296875 14.035156-14.035156v-12.855469c0-7.738281-6.296874-14.03125-14.035156-14.03125h-4.929687v-21.34375c0-2.753906 1.972656-5.09375 4.488281-5.332031 1.941406-.171875 3.246094.722656 3.855469 1.277344 1.054687.960937 1.636719 2.273437 1.636719 3.691406v3.292968c0 6.988282 5.6875 12.675782 12.675781 12.675782h15.570312c6.988281 0 12.675781-5.6875 12.675781-12.675782v-3.292968c0-12.453125-4.917968-24.113282-13.847656-32.835938-8.925781-8.71875-20.707031-13.339844-33.164062-13.0625-24.710938.585938-44.808594 21.496094-44.808594 46.617188v73.136718h-2.464844c-8.546875 0-15.5-6.953124-15.5-15.5v-97.75c0-8.542968 6.953125-15.5 15.5-15.5h97.746094c8.546875 0 15.5 6.957032 15.5 15.5v56.109376c0 4.136718 3.351562 7.488281 7.488281 7.488281 4.132813 0 7.484375-3.351563 7.484375-7.488281v-56.109376c0-16.800781-13.671875-30.46875-30.472656-30.46875h-97.746094c-16.800781 0-30.472656 13.667969-30.472656 30.46875v97.75c0 16.800782 13.671875 30.46875 30.472656 30.46875h6.667969c5.9375 0 10.765625-4.828124 10.765625-10.765624v-77.339844c0-17.058594 13.542969-31.257813 30.191406-31.648438 8.402344-.214844 16.332032 2.925782 22.351563 8.804688s9.335937 13.738281 9.335937 22.125v.996094h-10.976562v-.996094c0-5.601563-2.382813-10.984375-6.53125-14.761719-4.148438-3.773437-9.738282-5.636719-15.332032-5.109375-10.128906.949219-18.058593 9.839844-18.058593 20.234375v28.828125c0 4.136719 3.351562 7.488281 7.484375 7.488281h11.476562v10.976563h-11.476562c-4.132813 0-7.484375 3.351562-7.484375 7.484375v22.917969c0 5.9375 4.828125 10.765624 10.765625 10.765624h58.566406c16.800781 0 30.472656-13.667968 30.472656-30.46875zm0 0" fill="#ffffff"></path></svg>