<svg width="28" height="23" viewBox="0 0 28 23" fill="none" xmlns="http://www.w3.org/2000/svg">
<path d="M27.9467 3.00004C26.92 3.46671 25.8133 3.77337 24.6667 3.92004C25.84 3.21337 26.7467 2.09337 27.1733 0.746707C26.0667 1.41337 24.84 1.88004 23.5467 2.14671C22.4933 1.00004 21.0133 0.333374 19.3333 0.333374C16.2 0.333374 13.64 2.89337 13.64 6.05337C13.64 6.50671 13.6933 6.94671 13.7867 7.36004C9.04001 7.12004 4.81334 4.84004 2.00001 1.38671C1.50668 2.22671 1.22668 3.21337 1.22668 4.25337C1.22668 6.24004 2.22668 8.00004 3.77334 9.00004C2.82668 9.00004 1.94668 8.73337 1.17334 8.33337V8.37337C1.17334 11.1467 3.14668 13.4667 5.76001 13.9867C4.92098 14.2163 4.04014 14.2483 3.18668 14.08C3.54882 15.2167 4.25806 16.2113 5.2147 16.9239C6.17134 17.6366 7.32727 18.0316 8.52001 18.0534C6.49818 19.654 3.99201 20.5191 1.41334 20.5067C0.960011 20.5067 0.506678 20.48 0.0533447 20.4267C2.58668 22.0534 5.60001 23 8.82668 23C19.3333 23 25.1067 14.28 25.1067 6.72004C25.1067 6.46671 25.1067 6.22671 25.0933 5.97337C26.2133 5.17337 27.1733 4.16004 27.9467 3.00004Z" fill="#510080"/>
</svg>
