<svg width="32" height="32" fill="none" xmlns="http://www.w3.org/2000/svg"><g clip-path="url(#a)"><path d="M3.667 23.281c0 .942.386 1.846 1.074 2.512a3.728 3.728 0 0 0 2.592 1.04h19.334c.972 0 1.905-.374 2.592-1.04a3.497 3.497 0 0 0 1.074-2.512V9.72c0-.467-.094-.929-.279-1.36a3.547 3.547 0 0 0-.794-1.152 3.677 3.677 0 0 0-1.19-.77 3.77 3.77 0 0 0-1.403-.27H7.333a3.77 3.77 0 0 0-1.403.27c-.445.179-.849.44-1.19.77-.34.33-.61.721-.794 1.152-.184.431-.28.893-.28 1.36V23.28Zm3.666 1.615c-.92 0-1.666-.724-1.666-1.615V9.72c0-.891.746-1.615 1.666-1.615h19.334c.92 0 1.666.724 1.666 1.615V23.28c0 .892-.746 1.615-1.666 1.615H7.333Zm.334-4.844c0 .891.746 1.615 1.666 1.615h7.334c.92 0 1.666-.724 1.666-1.615v-7.104c0-.891-.746-1.615-1.666-1.615H9.333c-.92 0-1.666.724-1.666 1.615v7.104Zm12 .646c0 .257.105.503.293.685.187.182.441.284.707.284h4.666c.266 0 .52-.102.708-.284a.953.953 0 0 0 .292-.685.953.953 0 0 0-.292-.685 1.016 1.016 0 0 0-.708-.284h-4.666c-.266 0-.52.102-.707.284a.954.954 0 0 0-.293.685Zm1-2.906c-.266 0-.52-.102-.707-.284a.954.954 0 0 1-.293-.685c0-.257.105-.503.293-.685.187-.182.441-.284.707-.284h4.666c.266 0 .52.102.708.284a.953.953 0 0 1 .292.685.953.953 0 0 1-.292.685 1.016 1.016 0 0 1-.708.284h-4.666Zm-1-4.844c0 .257.105.503.293.685.187.182.441.284.707.284h4.666c.266 0 .52-.102.708-.284a.953.953 0 0 0 .292-.685.953.953 0 0 0-.292-.685 1.016 1.016 0 0 0-.708-.284h-4.666c-.266 0-.52.102-.707.284a.954.954 0 0 0-.293.685Z" fill="#fff"/></g><defs><clipPath id="a"><path fill="#fff" d="M0 0h32v32H0z"/></clipPath></defs></svg>