<svg width="24" height="24" fill="none" xmlns="http://www.w3.org/2000/svg"><path d="M8.625 10.125A1.125 1.125 0 0 1 9.75 9h6.75a1.125 1.125 0 0 1 0 2.25H9.75a1.125 1.125 0 0 1-1.125-1.125ZM9.75 15h6.75a1.125 1.125 0 1 0 0-2.25H9.75a1.125 1.125 0 1 0 0 2.25Zm12.375-9v11.25a2.625 2.625 0 0 1-2.625 2.625H3.375a3 3 0 0 1-3-3V8.25a1.125 1.125 0 1 1 2.25 0v8.625a.75.75 0 1 0 1.5 0V6A1.875 1.875 0 0 1 6 4.125h14.25A1.875 1.875 0 0 1 22.125 6Zm-2.25.375h-13.5v10.5a3 3 0 0 1-.094.75H19.5a.375.375 0 0 0 .375-.375V6.375Z" fill="#F29D6F"/></svg>