<svg width="63" height="63" viewBox="0 0 63 63" fill="none" xmlns="http://www.w3.org/2000/svg">
<path d="M34.125 39.375V23.625M40.6875 31.5H48.5625M44.625 27.5625V35.4375M7.875 31.5C7.875 34.6025 8.48608 37.6746 9.67335 40.5409C10.8606 43.4072 12.6008 46.0116 14.7946 48.2054C16.9884 50.3992 19.5928 52.1394 22.4591 53.3267C25.3254 54.5139 28.3975 55.125 31.5 55.125C34.6025 55.125 37.6746 54.5139 40.5409 53.3267C43.4072 52.1394 46.0116 50.3992 48.2054 48.2054C50.3992 46.0116 52.1394 43.4072 53.3267 40.5409C54.5139 37.6746 55.125 34.6025 55.125 31.5C55.125 28.3975 54.5139 25.3254 53.3267 22.4591C52.1394 19.5928 50.3992 16.9884 48.2054 14.7946C46.0116 12.6008 43.4072 10.8606 40.5409 9.67335C37.6746 8.48608 34.6025 7.875 31.5 7.875C28.3975 7.875 25.3254 8.48608 22.4591 9.67335C19.5928 10.8606 16.9884 12.6008 14.7946 14.7946C12.6008 16.9884 10.8606 19.5928 9.67335 22.4591C8.48608 25.3254 7.875 28.3975 7.875 31.5Z" stroke="black" stroke-width="2" stroke-linecap="round" stroke-linejoin="round"/>
<path d="M18.375 27.5625C18.375 26.5182 18.7898 25.5167 19.5283 24.7783C20.2667 24.0398 21.2682 23.625 22.3125 23.625C23.3568 23.625 24.3583 24.0398 25.0967 24.7783C25.8352 25.5167 26.25 26.5182 26.25 27.5625C26.25 28.7254 25.4284 30.1586 24.6435 31.2191L18.375 39.375H26.25" stroke="black" stroke-width="2" stroke-linecap="round" stroke-linejoin="round"/>
</svg>
