<svg width="54" height="54" fill="none" xmlns="http://www.w3.org/2000/svg"><path d="M38.25 40.5a2.25 2.25 0 0 0 2.25-2.25v-22.5a2.25 2.25 0 1 0-4.5 0v22.5a2.25 2.25 0 0 0 2.25 2.25Zm2.25-29.25h2.25v2.25a2.25 2.25 0 0 0 4.5 0v-2.25h2.25a2.25 2.25 0 0 0 0-4.5h-2.25V4.5a2.25 2.25 0 1 0-4.5 0v2.25H40.5a2.25 2.25 0 0 0 0 4.5Zm8.1 9a2.248 2.248 0 0 0-1.755 2.655 20.25 20.25 0 1 1-15.75-15.75 2.295 2.295 0 0 0 .9-4.5A24.3 24.3 0 0 0 27 2.25 24.75 24.75 0 1 0 51.75 27a24.298 24.298 0 0 0-.495-4.95 2.251 2.251 0 0 0-2.655-1.8Zm-26.1 9h2.25a6.75 6.75 0 0 0 6.75-6.75v-2.25a6.75 6.75 0 0 0-6.75-6.75H22.5a6.75 6.75 0 0 0-6.75 6.75 2.25 2.25 0 0 0 4.5 0A2.25 2.25 0 0 1 22.5 18h2.25A2.25 2.25 0 0 1 27 20.25v2.25a2.25 2.25 0 0 1-2.25 2.25H22.5a6.75 6.75 0 0 0-6.75 6.75v6.75A2.25 2.25 0 0 0 18 40.5h11.25a2.25 2.25 0 0 0 0-4.5h-9v-4.5a2.25 2.25 0 0 1 2.25-2.25Z" fill="#434650"/></svg>