<svg xmlns="http://www.w3.org/2000/svg" viewBox="0 0 27.555 27.555" style="enable-background:new 0 0 27.555 27.555" xml:space="preserve"><path d="M13.777 0C7.108 0 1.701 5.407 1.701 12.076c0 3.45 1.454 6.553 3.773 8.752l-.404 6.727 5.736-3.787c.952.241 1.944.383 2.971.383 6.67 0 12.076-5.406 12.076-12.076C25.854 5.407 20.447 0 13.777 0zM12.61 11.342c0 1.24-.258 2.219-.774 2.936s-1.4 1.352-2.654 1.9l-.945-1.789c.771-.361 1.304-.722 1.598-1.08.295-.36.459-.784.493-1.273H8.237V7.974h4.373v3.368zm6.707 0c0 1.24-.258 2.219-.774 2.936-.516.719-1.4 1.352-2.654 1.9l-.944-1.789c.771-.361 1.304-.722 1.599-1.08.295-.36.459-.784.493-1.273h-2.091V7.974h4.373l-.002 3.368z" fill="#da9516"/></svg>