<svg viewBox="0 0 512.002 512" xmlns="http://www.w3.org/2000/svg"><path d="M470 110h-70.613c-5.52 0-10 4.477-10 10s4.48 10 10 10H470c12.129 0 22 9.871 22 22v200c0 3.902-1.059 7.656-2.938 10.93v-8.973c0-15.395-12.527-27.926-27.925-27.926-3.864 0-7.543.79-10.887 2.211-4.598-9.137-14.063-15.418-24.969-15.418a27.76 27.76 0 0 0-11.695 2.567c-4.844-8.317-13.856-13.922-24.156-13.922-2.75 0-5.414.398-7.926 1.144V270.77c0-15.399-12.527-27.926-27.926-27.926-13.773 0-25.242 10.023-27.512 23.156h-2.07c-5.52 0-10 4.477-10 10s4.48 10 10 10h1.656v28H186.344v-28H188c5.52 0 10-4.477 10-10s-4.48-10-10-10h-2.07c-2.27-13.133-13.739-23.156-27.512-23.156-15.398 0-27.926 12.527-27.926 27.926v31.843a27.792 27.792 0 0 0-7.926-1.144c-10.3 0-19.312 5.605-24.156 13.922a27.76 27.76 0 0 0-11.695-2.567c-10.906 0-20.371 6.281-24.965 15.418a27.785 27.785 0 0 0-10.887-2.21c-15.398 0-27.925 12.527-27.925 27.925v8.969A21.91 21.91 0 0 1 20 352V152c0-12.129 9.867-22 22-22h273.941c5.524 0 10-4.477 10-10s-4.476-10-10-10h-49.816V90c0-19.852-16.148-36-36-36h-97.793c-8.824 0-16-7.176-16-16V10c0-5.523-4.477-10-10-10s-10 4.477-10 10v28c0 19.852 16.148 36 36 36h97.793c8.82 0 16 7.18 16 16v20H42c-23.16 0-42 18.84-42 42v200c0 15.816 9.055 30.324 22.938 37.426v27.441c0 18.535 2.812 36.903 8.355 54.59l10.52 33.535c1.34 4.274 5.285 7.008 9.539 7.008.988 0 2-.148 2.996-.46 5.27-1.653 8.199-7.263 6.547-12.532l-10.516-33.535a162.298 162.298 0 0 1-7.441-48.606v-62.906c0-4.371 3.554-7.926 7.925-7.926s7.926 3.555 7.926 7.926v21.879c0 5.523 4.48 10 10 10 5.523 0 10-4.477 10-10v-35.09c0-4.371 3.555-7.926 7.926-7.926s7.93 3.555 7.93 7.926v35.09c0 5.523 4.476 10 10 10 5.52 0 9.996-4.477 9.996-10v-46.445c0-4.372 3.558-7.926 7.93-7.926 4.37 0 7.925 3.558 7.925 7.926v46.445c0 5.523 4.477 10 10 10 5.52 0 10-4.477 10-10V270.77c0-4.372 3.555-7.926 7.926-7.926s7.926 3.554 7.926 7.926v129.808c0 4.578 3.109 8.57 7.55 9.692a9.989 9.989 0 0 0 11.247-4.942l21.054-38.984a8.864 8.864 0 0 1 11.844-3.719 8.865 8.865 0 0 1 4.644 10.04l-13.644 56.57a84.779 84.779 0 0 1-14.031 30.277l-26.742 36.586c-3.258 4.46-2.282 10.718 2.175 13.976 4.461 3.258 10.715 2.285 13.977-2.176l26.734-36.585a104.649 104.649 0 0 0 17.324-37.387L238.11 394h35.777l9.633 39.926a104.707 104.707 0 0 0 17.32 37.387l26.738 36.585c3.258 4.461 9.516 5.43 13.973 2.172 4.46-3.257 5.433-9.511 2.176-13.972l-26.739-36.586a84.801 84.801 0 0 1-14.027-30.278l-13.648-56.574a8.872 8.872 0 0 1 4.644-10.035 8.861 8.861 0 0 1 11.848 3.719l21.05 38.984a10.001 10.001 0 0 0 18.801-4.754V270.77c0-4.372 3.555-7.926 7.926-7.926 4.367 0 7.926 3.554 7.926 7.926v105.07c0 5.523 4.476 10 10 10 5.52 0 10-4.477 10-10v-46.445c0-4.372 3.555-7.926 7.926-7.926s7.925 3.554 7.925 7.926v46.445c0 5.523 4.477 10 10 10s10-4.477 10-10v-35.09c0-4.371 3.555-7.926 7.926-7.926s7.926 3.555 7.926 7.926v35.09c0 5.523 4.48 10 10 10 5.523 0 10-4.477 10-10v-21.883c0-4.367 3.559-7.926 7.93-7.926 4.367 0 7.925 3.559 7.925 7.926v62.91c0 16.504-2.504 32.856-7.441 48.606l-10.52 33.535c-1.652 5.27 1.282 10.879 6.551 12.531.996.313 2.004.461 2.996.461 4.254 0 8.196-2.734 9.54-7.012l10.515-33.531a182.275 182.275 0 0 0 8.36-54.594v-27.465c13.972-7.136 22.937-21.64 22.937-37.398V152c-.008-23.16-18.848-42-42.004-42zM323.398 356.84c-7.488-13.867-24.378-19.168-38.449-12.07-11.015 5.558-17.117 17.242-15.66 29.23h-26.578a28.758 28.758 0 0 0-15.66-29.23c-14.07-7.098-30.961-1.797-38.453 12.07l-2.254 4.176V334h139.308v27.016zm0 0" fill="#fff"/><path d="M100 170H60c-5.523 0-10 4.477-10 10s4.477 10 10 10h40c5.523 0 10-4.477 10-10s-4.477-10-10-10zM188 170h-40c-5.523 0-10 4.477-10 10s4.477 10 10 10h40c5.52 0 10-4.477 10-10s-4.477-10-10-10zM276 170h-40c-5.523 0-10 4.477-10 10s4.477 10 10 10h40c5.52 0 10-4.477 10-10s-4.477-10-10-10zM324 170c-5.523 0-10 4.477-10 10s4.477 10 10 10h40c5.52 0 10-4.477 10-10s-4.48-10-10-10zM412 190h40c5.52 0 10-4.477 10-10s-4.48-10-10-10h-40c-5.523 0-10 4.477-10 10s4.477 10 10 10zM100 218H60c-5.523 0-10 4.477-10 10s4.477 10 10 10h40c5.523 0 10-4.477 10-10s-4.477-10-10-10zM188 218h-40c-5.523 0-10 4.477-10 10s4.477 10 10 10h40c5.52 0 10-4.477 10-10s-4.477-10-10-10zM276 218h-40c-5.523 0-10 4.477-10 10s4.477 10 10 10h40c5.52 0 10-4.477 10-10s-4.477-10-10-10zM364 218h-40c-5.523 0-10 4.477-10 10s4.477 10 10 10h40c5.52 0 10-4.477 10-10s-4.477-10-10-10zM412 238h40c5.52 0 10-4.477 10-10s-4.48-10-10-10h-40c-5.523 0-10 4.477-10 10s4.477 10 10 10zM100 266H60c-5.523 0-10 4.477-10 10s4.477 10 10 10h40c5.523 0 10-4.477 10-10s-4.477-10-10-10zM276 266h-40c-5.523 0-10 4.477-10 10s4.477 10 10 10h40c5.52 0 10-4.477 10-10s-4.477-10-10-10zM412 286h40c5.52 0 10-4.477 10-10s-4.48-10-10-10h-40c-5.523 0-10 4.477-10 10s4.477 10 10 10zM357.668 110c-2.64 0-5.211 1.07-7.07 2.93-1.868 1.86-2.93 4.441-2.93 7.07s1.062 5.21 2.93 7.07a10.08 10.08 0 0 0 7.07 2.93 10.1 10.1 0 0 0 7.07-2.93c1.86-1.86 2.93-4.441 2.93-7.07s-1.07-5.21-2.93-7.07a10.08 10.08 0 0 0-7.07-2.93zM399.387 85.168a9.961 9.961 0 0 0 7.07-2.93l14.16-14.156c3.903-3.906 3.903-10.238 0-14.14-3.906-3.907-10.238-3.907-14.144 0l-14.157 14.156c-3.906 3.906-3.906 10.238 0 14.14a9.968 9.968 0 0 0 7.07 2.93zM308.871 82.238c1.953 1.953 4.512 2.93 7.07 2.93s5.122-.977 7.075-2.93c3.902-3.902 3.902-10.234 0-14.14L308.859 53.94c-3.906-3.906-10.234-3.906-14.144 0-3.906 3.903-3.906 10.235 0 14.141zM357.664 86.95c5.524 0 10-4.477 10-10V10c0-5.523-4.476-10-10-10-5.52 0-10 4.477-10 10v66.95c0 5.523 4.48 10 10 10zm0 0" fill="#fff"/></svg>