<svg xmlns="http://www.w3.org/2000/svg" viewBox="0 0 511.999 511.999" style="enable-background:new 0 0 511.999 511.999" xml:space="preserve"><path d="M331.217 108.319c-61.467-61.466-161.481-61.466-222.949 0-29.776 29.775-46.175 69.365-46.175 111.475s16.399 81.7 46.174 111.475C139 362.002 179.371 377.37 219.741 377.37c40.371 0 80.741-15.367 111.475-46.101 61.467-61.468 61.467-161.482.001-222.95zM319.76 319.812c-55.149 55.153-144.887 55.15-200.036 0-26.717-26.714-41.43-62.236-41.43-100.018s14.714-73.303 41.429-100.019C147.298 92.2 183.52 78.413 219.742 78.413c36.222 0 72.443 13.788 100.019 41.363 55.15 55.15 55.15 144.886-.001 200.036z" fill="#fff"/><path d="M392.752 147.546a8.1 8.1 0 0 0-10.597-4.353 8.103 8.103 0 0 0-4.353 10.598c8.712 20.86 13.129 43.068 13.129 66.003a8.1 8.1 0 1 0 16.201 0c.001-25.09-4.837-49.398-14.38-72.248zM372.665 111.411a190.27 190.27 0 0 0-20.417-24.124c-35.395-35.393-82.452-54.885-132.507-54.885a8.1 8.1 0 1 0 0 16.201c45.727 0 88.717 17.807 121.05 50.141a173.792 173.792 0 0 1 18.674 22.064 8.088 8.088 0 0 0 6.607 3.403 8.104 8.104 0 0 0 6.593-12.8z" fill="#fff"/><path d="m509.576 461.512-61.097-61.097a8.105 8.105 0 0 0-11.457 0l-12.601 12.601-43.647-43.647c37.947-40.782 58.762-93.576 58.762-149.575 0-58.708-22.863-113.904-64.376-155.418C333.646 22.863 278.451 0 219.742 0c-58.71 0-113.904 22.863-155.418 64.376-85.697 85.698-85.697 225.138 0 310.836 41.513 41.512 96.708 64.375 155.418 64.375 56 0 108.792-20.815 149.574-58.762l43.647 43.647-12.601 12.601a8.101 8.101 0 0 0 0 11.456l61.097 61.097a8.08 8.08 0 0 0 5.729 2.372 8.082 8.082 0 0 0 5.729-2.372l36.659-36.659a8.102 8.102 0 0 0 0-11.455zm-145.873-97.757c-38.453 38.455-89.58 59.632-143.961 59.632-54.381 0-105.509-21.177-143.962-59.632-79.381-79.381-79.381-208.542 0-287.922 38.454-38.455 89.581-59.632 143.962-59.632 54.381 0 105.508 21.177 143.961 59.632 38.455 38.454 59.632 89.581 59.632 143.961s-21.177 105.508-59.632 143.961zm103.486 128.689-49.642-49.642 12.591-12.591.011-.01.01-.011 12.591-12.591 49.642 49.642-25.203 25.203z" fill="#fff"/><path d="M331.036 263.537h-9.181V137.709a8.1 8.1 0 0 0-8.1-8.101h-38.883a8.1 8.1 0 0 0-8.101 8.101v125.828H244.09v-86.946a8.1 8.1 0 0 0-8.101-8.1h-38.882a8.1 8.1 0 0 0-8.101 8.1v86.946h-22.681V163.63a8.1 8.1 0 0 0-8.101-8.101h-38.882a8.1 8.1 0 0 0-8.101 8.101v99.906h-9.181a8.1 8.1 0 1 0 0 16.201H331.034c4.475 0 8.101-3.626 8.101-8.101s-3.624-8.099-8.099-8.099zm-180.911 0h-22.681v-91.806h22.681v91.806zm77.765 0h-22.681v-78.845h22.681v78.845zm77.765 0h-22.681V145.809h22.681v117.728z" fill="#fff"/></svg>