<svg xmlns="http://www.w3.org/2000/svg" viewBox="0 0 512 512" style="enable-background:new 0 0 512 512" xml:space="preserve"><g fill="#fff"><path d="m287.119 493.833-.673.085a8.086 8.086 0 0 0 2.006 16.043l.742-.096a8.083 8.083 0 0 0 6.979-9.054c-.572-4.428-4.636-7.56-9.054-6.978z"/><path d="m259.103 495.812-.101.001c-1 .012-2 .018-3.002.018C123.756 495.832 16.168 388.244 16.168 256S123.756 16.168 256 16.168 495.832 123.756 495.832 256c0 36.543-8.004 71.624-23.789 104.27a8.082 8.082 0 0 0 3.759 10.797 8.086 8.086 0 0 0 10.797-3.759C503.453 332.451 512 295.001 512 256c0-68.379-26.628-132.667-74.981-181.018C388.667 26.628 324.379 0 256 0S123.333 26.628 74.981 74.982C26.628 123.333 0 187.621 0 256s26.628 132.667 74.981 181.018C123.333 485.372 187.621 512 256 512c1.067 0 2.134-.006 3.2-.019a8.083 8.083 0 0 0 7.984-8.182 8.083 8.083 0 0 0-8.081-7.987z"/><path d="M430.08 278.636h-13.129a8.085 8.085 0 0 0-7.943 6.578 154.995 154.995 0 0 1-5.885 22.022 8.084 8.084 0 0 0 15.27 5.316 171.07 171.07 0 0 0 5.119-17.748h6.569c21.397 0 38.804-17.407 38.804-38.804 0-21.397-17.407-38.804-38.804-38.804h-6.565c-4.266-18.541-11.521-36.048-21.63-52.202l4.649-4.648c15.129-15.13 15.129-39.748 0-54.879-15.131-15.128-39.75-15.127-54.879 0l-4.648 4.649a169.783 169.783 0 0 0-52.202-21.63V81.92c0-21.397-17.407-38.804-38.804-38.804s-38.804 17.407-38.804 38.804v6.565c-18.541 4.266-36.049 11.521-52.202 21.63l-4.649-4.649c-15.13-15.13-39.748-15.128-54.877 0-7.33 7.33-11.365 17.074-11.365 27.44 0 10.365 4.037 20.109 11.365 27.438l4.648 4.649a169.8 169.8 0 0 0-21.631 52.202H81.92c-21.397 0-38.804 17.407-38.804 38.804s17.407 38.804 38.804 38.804h6.565c4.266 18.541 11.522 36.049 21.631 52.202l-4.648 4.648c-7.33 7.33-11.365 17.075-11.365 27.439 0 10.365 4.037 20.11 11.365 27.44 15.129 15.128 39.747 15.128 54.877 0l4.649-4.649a169.783 169.783 0 0 0 52.202 21.63v6.565c0 21.397 17.407 38.804 38.804 38.804s38.804-17.407 38.804-38.804v-6.569a171.392 171.392 0 0 0 17.748-5.119 8.084 8.084 0 0 0 4.978-10.292 8.082 8.082 0 0 0-10.292-4.978 155.134 155.134 0 0 1-22.025 5.885 8.085 8.085 0 0 0-6.578 7.943v13.129c0 12.481-10.155 22.636-22.636 22.636-12.482 0-22.636-10.155-22.636-22.636v-13.129a8.083 8.083 0 0 0-6.577-7.942c-20.996-3.983-40.617-12.112-58.32-24.164a8.08 8.08 0 0 0-10.266.966l-9.288 9.288c-8.826 8.827-23.187 8.827-32.011 0a22.484 22.484 0 0 1-6.63-16.007 22.489 22.489 0 0 1 6.63-16.007l9.288-9.288a8.083 8.083 0 0 0 .966-10.265c-12.051-17.702-20.181-37.323-24.164-58.32a8.085 8.085 0 0 0-7.943-6.577H81.92c-12.482 0-22.636-10.155-22.636-22.636S69.438 233.36 81.92 233.36h13.128a8.086 8.086 0 0 0 7.943-6.577c3.984-20.996 12.113-40.618 24.164-58.32a8.083 8.083 0 0 0-.966-10.265l-9.288-9.289c-4.276-4.275-6.63-9.959-6.63-16.006s2.354-11.732 6.63-16.007c8.826-8.827 23.185-8.827 32.011 0l9.288 9.288a8.082 8.082 0 0 0 10.266.966c17.702-12.053 37.324-20.182 58.319-24.165a8.082 8.082 0 0 0 6.577-7.942V81.92c0-12.481 10.154-22.636 22.636-22.636 12.481 0 22.636 10.155 22.636 22.636v13.129a8.083 8.083 0 0 0 6.578 7.942c20.996 3.983 40.617 12.112 58.318 24.164a8.08 8.08 0 0 0 10.266-.966l9.288-9.288c8.825-8.826 23.186-8.828 32.011 0 8.826 8.826 8.826 23.187 0 32.011l-9.288 9.288a8.086 8.086 0 0 0-.966 10.266c12.052 17.702 20.181 37.323 24.164 58.318a8.083 8.083 0 0 0 7.942 6.578h13.131c12.481 0 22.636 10.155 22.636 22.636.002 12.482-10.153 22.638-22.634 22.638zM319.077 487.453l-.856.231a8.085 8.085 0 0 0 4.197 15.615l.906-.246a8.085 8.085 0 0 0 5.676-9.924c-1.172-4.309-5.625-6.845-9.923-5.676z"/><path d="M410.254 337.606a.03.03 0 0 1-.008-.008c-5.599-5.599-13.043-8.682-20.961-8.682-5.145 0-10.09 1.302-14.459 3.75l-14.808-14.808c27.804-46.557 21.683-107.89-18.368-147.941-47.283-47.28-124.213-47.28-171.493 0-22.904 22.904-35.518 53.356-35.518 85.747s12.614 62.842 35.518 85.745c22.903 22.904 53.355 35.519 85.745 35.519 22.263 0 43.611-5.961 62.22-17.123l14.782 14.782c-2.447 4.37-3.75 9.315-3.75 14.46 0 7.916 3.084 15.36 8.675 20.952l93.081 93.32c5.779 5.778 13.369 8.667 20.96 8.667s15.181-2.89 20.96-8.667l30.488-30.488c11.556-11.557 11.557-30.362.008-41.914l-93.072-93.311zm-95.085 4.883c-.314.183-.62.389-.912.618-17.129 11.483-37.268 17.652-58.354 17.652-28.072 0-54.463-10.933-74.313-30.784-19.849-19.849-30.781-46.241-30.781-74.312s10.931-54.463 30.781-74.312c20.488-20.489 47.4-30.733 74.313-30.733 26.912 0 53.825 10.244 74.313 30.733 36.117 36.117 40.401 92.199 12.85 133.05a105.201 105.201 0 0 1-12.849 15.576 106.27 106.27 0 0 1-15.048 12.512zm16.433 7.927c3.487-2.796 6.839-5.8 10.047-9.007a122.007 122.007 0 0 0 9.001-10.053l11.959 11.959-19.056 19.055-11.951-11.954zm160.283 110.981-30.488 30.488c-5.253 5.255-13.8 5.254-19.046.008l-93.081-93.32a13.383 13.383 0 0 1-3.947-9.526c0-3.599 1.402-6.984 3.947-9.527l30.488-30.488a13.384 13.384 0 0 1 9.526-3.946c3.597 0 6.979 1.4 9.52 3.94l93.081 93.318c5.254 5.252 5.254 13.801 0 19.053z"/><path d="M196.833 196.594c-32.571 32.572-32.571 85.569 0 118.141 16.286 16.284 37.678 24.427 59.07 24.427 21.392 0 42.784-8.143 59.07-24.427 32.571-32.572 32.571-85.569 0-118.141-32.573-32.571-85.569-32.571-118.14 0zM303.541 303.3c-13.136 13.134-30.384 19.701-47.638 19.7-17.25-.002-34.505-6.568-47.636-19.698-26.266-26.267-26.266-69.008 0-95.274 26.267-26.267 69.009-26.267 95.273 0 26.267 26.265 26.267 69.006.001 95.272zM360.267 472.044l-.766.37a8.085 8.085 0 0 0 6.995 14.577l.815-.392a8.084 8.084 0 0 0 3.754-10.799 8.081 8.081 0 0 0-10.798-3.756z"/></g></svg>