<svg xmlns="http://www.w3.org/2000/svg" viewBox="0 0 472 472" style="enable-background:new 0 0 472 472" xml:space="preserve"><path d="M332 216h-56v-8a8 8 0 0 0-8-8h-24v-8h8a8 8 0 0 0 8-8v-8h16v-16h-16v-12.648c32.767-13.255 48.584-50.563 35.33-83.33-13.255-32.767-50.563-48.584-83.33-35.33s-48.584 50.563-35.33 83.33a64.001 64.001 0 0 0 35.33 35.33V160h-16v16h16v8a8 8 0 0 0 8 8h8v8h-24a8 8 0 0 0-8 8v8h-56c-39.744.048-71.952 32.256-72 72v176a8 8 0 0 0 8 8h320a8 8 0 0 0 8-8V288c-.048-39.744-32.256-71.952-72-72zm-109.72-81.992C201.869 128.037 187.883 109.266 188 88c.006-26.51 21.501-47.995 48.011-47.989 26.51.006 47.995 21.501 47.989 48.011-.005 21.221-13.944 39.921-34.28 45.987a7.998 7.998 0 0 0-5.72 7.672V160h-16v-18.32a7.998 7.998 0 0 0-5.72-7.672zM212 216h48v32l-19.2-14.4a8.001 8.001 0 0 0-9.6 0L212 248v-32zm176 240h-40V280h-16v176H140V280h-16v176H84V288c.035-30.913 25.087-55.965 56-56h56v32a8 8 0 0 0 12.8 6.4L236 250l27.2 20.4a8.02 8.02 0 0 0 2.136 1.112c.263.079.53.143.8.192.493.127.996.208 1.504.24.12 0 .232.056.344.056s.248-.08.376-.088a7.878 7.878 0 0 0 3.2-.752A8 8 0 0 0 276 264v-32h56c30.913.035 55.965 25.087 56 56v168z" fill="#fff"/><path d="M251.984 271.576A8 8 0 0 0 244 264h-16a8 8 0 0 0-8 7.576l-8 152a8 8 0 0 0 2.336 6.08l16 16a8 8 0 0 0 11.312 0l16-16a8 8 0 0 0 2.336-6.08l-8-152zM236 428.688l-7.824-7.824L235.592 280h.8l7.416 140.864-7.808 7.824z" fill="#fff"/><path d="M284 288h32v16h-32z"/><path d="M196 88h16c0-13.255 10.745-24 24-24V48c-22.08.026-39.974 17.92-40 40z" fill="#fff"/><path d="M228 0h16v16h-16zM281.248 31.44l11.313-11.313 11.314 11.313-11.314 11.314zM308 80h16v16h-16zM168.118 31.433l11.313-11.314 11.314 11.314-11.314 11.314zM148 80h16v16h-16z"/></svg>