<svg xmlns="http://www.w3.org/2000/svg" viewBox="0 0 511.999 511.999" style="enable-background:new 0 0 511.999 511.999" xml:space="preserve"><path d="M501.999 37.668H10c-5.523 0-10 4.478-10 10V464.33c0 5.523 4.477 10 10 10h491.999c5.523 0 10-4.477 10-10V47.668c0-5.522-4.477-10-10-10zM20 454.331V429.99h399.45c5.523 0 10-4.478 10-10s-4.477-10-10-10H20V169.02h49.433l-28.034 45.47a9.997 9.997 0 0 0-1.488 5.248v154.7c0 5.522 4.477 10 10 10h167.227c5.523 0 10-4.478 10-10v-154.7a9.994 9.994 0 0 0-1.488-5.248l-28.034-45.469h294.382v285.311H20zm72.929-285.31h81.192l33.017 53.552v141.865H59.911V222.573l33.018-53.552zm399.07-20.001H20V57.668h471.999v91.352z" fill="#fff"/><path d="M458.97 71.659H330.405c-5.523 0-10 4.478-10 10v43.371c0 5.522 4.477 10 10 10H458.97c5.523 0 10-4.478 10-10V81.659c0-5.522-4.477-10-10-10zm-10 43.371H340.405V91.659H448.97v23.371zM101.819 101.393c-.13-.64-.32-1.271-.57-1.87-.25-.61-.56-1.19-.92-1.729a9.533 9.533 0 0 0-1.24-1.521c-2.32-2.32-5.78-3.39-9.02-2.729-.64.13-1.27.319-1.88.569-.6.25-1.18.561-1.72.92-.55.36-1.06.78-1.52 1.24-.46.46-.88.97-1.24 1.521a9.825 9.825 0 0 0-.92 1.729c-.25.6-.45 1.23-.57 1.87-.13.64-.2 1.3-.2 1.95 0 .649.07 1.31.2 1.96.13.63.32 1.26.57 1.87.25.6.56 1.18.92 1.72.36.55.78 1.06 1.24 1.52a9.87 9.87 0 0 0 3.25 2.17 9.84 9.84 0 0 0 3.82.76 9.915 9.915 0 0 0 3.82-.76 9.87 9.87 0 0 0 3.25-2.17c.46-.46.88-.97 1.24-1.52.36-.54.67-1.12.92-1.72.25-.61.44-1.24.57-1.87.13-.65.2-1.311.2-1.96 0-.65-.07-1.312-.2-1.95zM271.668 93.344H133.525c-5.523 0-10 4.478-10 10s4.477 10 10 10h138.143c5.523 0 10-4.478 10-10 0-5.521-4.477-10-10-10zM470.759 418.032c-.13-.63-.32-1.26-.57-1.87-.25-.6-.56-1.18-.92-1.72a9.563 9.563 0 0 0-1.24-1.519 10.052 10.052 0 0 0-7.07-2.931c-2.64 0-5.21 1.06-7.08 2.931a10.146 10.146 0 0 0-2.16 3.239c-.25.61-.44 1.23-.57 1.87a10.066 10.066 0 0 0 2.73 9.03c1.86 1.86 4.44 2.93 7.08 2.93 2.63 0 5.21-1.069 7.07-2.93a10.04 10.04 0 0 0 2.16-3.25c.25-.599.44-1.23.57-1.87s.2-1.3.2-1.95c0-.66-.07-1.31-.2-1.96zM133.525 179.067c-22.572 0-40.936 18.363-40.936 40.936 0 22.572 18.364 40.935 40.936 40.935s40.936-18.363 40.936-40.935c0-22.572-18.364-40.936-40.936-40.936zm0 61.871c-11.544 0-20.936-9.392-20.936-20.934 0-11.545 9.392-20.936 20.936-20.936s20.936 9.392 20.936 20.936c0 11.543-9.392 20.934-20.936 20.934zM460.955 196.398H280.469c-5.523 0-10 4.477-10 10v168.039c0 5.522 4.477 10 10 10h180.486c5.523 0 10-4.478 10-10V206.398c0-5.523-4.477-10-10-10zm-10 168.04H290.469v-148.04h160.486v148.04z" fill="#fff"/></svg>