<svg width="24" height="24" viewBox="0 0 24 24" fill="none" xmlns="http://www.w3.org/2000/svg">
<path d="M15.2477 16.11L16.9277 14.43C17.154 14.2065 17.4403 14.0536 17.7518 13.9897C18.0634 13.9257 18.3867 13.9537 18.6827 14.07L20.7302 14.8875C21.0293 15.0089 21.2858 15.2161 21.4673 15.4831C21.6488 15.75 21.7473 16.0647 21.7502 16.3875V20.1375C21.7485 20.3571 21.7023 20.574 21.6145 20.7753C21.5267 20.9766 21.3991 21.158 21.2393 21.3087C21.0796 21.4593 20.891 21.5761 20.6849 21.6519C20.4788 21.7278 20.2595 21.7611 20.0402 21.75C5.69272 20.8575 2.79772 8.7075 2.25022 4.0575C2.22481 3.82915 2.24803 3.59801 2.31836 3.37928C2.38869 3.16055 2.50453 2.95919 2.65827 2.78845C2.81201 2.61771 3.00016 2.48145 3.21034 2.38865C3.42052 2.29584 3.64797 2.24859 3.87772 2.25H7.50022C7.82348 2.25096 8.13906 2.3486 8.40637 2.53037C8.67368 2.71214 8.8805 2.96973 9.00022 3.27L9.81772 5.3175C9.93791 5.6123 9.96858 5.93598 9.90588 6.24811C9.84319 6.56024 9.68992 6.84697 9.46522 7.0725L7.78522 8.7525C7.78522 8.7525 8.75272 15.3 15.2477 16.11Z" fill="#9C8E46"/>
</svg>
