<svg width="59" height="58" viewBox="0 0 59 58" fill="none" xmlns="http://www.w3.org/2000/svg">
<path d="M7.375 29C7.375 31.8563 7.94728 34.6845 9.05917 37.3234C10.1711 39.9622 11.8008 42.3599 13.8553 44.3796C15.9098 46.3992 18.3488 48.0013 21.0331 49.0944C23.7175 50.1874 26.5945 50.75 29.5 50.75C32.4055 50.75 35.2825 50.1874 37.9669 49.0944C40.6512 48.0013 43.0902 46.3992 45.1447 44.3796C47.1992 42.3599 48.829 39.9622 49.9408 37.3234C51.0527 34.6845 51.625 31.8563 51.625 29C51.625 26.1438 51.0527 23.3155 49.9408 20.6766C48.829 18.0378 47.1992 15.6401 45.1447 13.6204C43.0902 11.6008 40.6512 9.99866 37.9669 8.90562C35.2825 7.81258 32.4055 7.25 29.5 7.25C26.5945 7.25 23.7175 7.81258 21.0331 8.90562C18.3488 9.99866 15.9098 11.6008 13.8553 13.6204C11.8008 15.6401 10.1711 18.0378 9.05917 20.6766C7.94728 23.3155 7.375 26.1438 7.375 29Z" stroke="black" stroke-width="2" stroke-linecap="round" stroke-linejoin="round"/>
<path d="M24.5835 25.375C24.5835 26.3364 24.972 27.2584 25.6635 27.9383C26.3551 28.6181 27.293 29 28.271 29C29.249 29 30.1869 28.6181 30.8785 27.9383C31.57 27.2584 31.9585 26.3364 31.9585 25.375C31.9585 24.4136 31.57 23.4916 30.8785 22.8117C30.1869 22.1319 29.249 21.75 28.271 21.75C27.293 21.75 26.3551 22.1319 25.6635 22.8117C24.972 23.4916 24.5835 24.4136 24.5835 25.375Z" stroke="black" stroke-width="2" stroke-linecap="round" stroke-linejoin="round"/>
<path d="M17.2085 36.25V21.75M38.1043 29H45.4793M41.7918 25.375V32.625M24.5835 32.625C24.5835 33.5864 24.972 34.5084 25.6635 35.1883C26.3551 35.8681 27.293 36.25 28.271 36.25C29.249 36.25 30.1869 35.8681 30.8785 35.1883C31.57 34.5084 31.9585 33.5864 31.9585 32.625C31.9585 31.6636 31.57 30.7416 30.8785 30.0617C30.1869 29.3819 29.249 29 28.271 29C27.293 29 26.3551 29.3819 25.6635 30.0617C24.972 30.7416 24.5835 31.6636 24.5835 32.625Z" stroke="black" stroke-width="2" stroke-linecap="round" stroke-linejoin="round"/>
</svg>
