<svg width="45" height="45" viewBox="0 0 45 45" fill="none" xmlns="http://www.w3.org/2000/svg">
<path d="M24.875 29.625V15.375M30.8125 22.5H37.9375M34.375 18.9375V26.0625M1.125 22.5C1.125 25.307 1.67788 28.0865 2.75207 30.6799C3.82627 33.2732 5.40074 35.6296 7.38559 37.6144C9.37044 39.5993 11.7268 41.1737 14.3201 42.2479C16.9135 43.3221 19.693 43.875 22.5 43.875C25.307 43.875 28.0865 43.3221 30.6799 42.2479C33.2732 41.1737 35.6296 39.5993 37.6144 37.6144C39.5993 35.6296 41.1737 33.2732 42.2479 30.6799C43.3221 28.0865 43.875 25.307 43.875 22.5C43.875 19.693 43.3221 16.9135 42.2479 14.3201C41.1737 11.7268 39.5993 9.37044 37.6144 7.38559C35.6296 5.40074 33.2732 3.82627 30.6799 2.75208C28.0865 1.67788 25.307 1.125 22.5 1.125C19.693 1.125 16.9135 1.67788 14.3201 2.75208C11.7268 3.82627 9.37044 5.40074 7.38559 7.38559C5.40074 9.37044 3.82627 11.7268 2.75207 14.3201C1.67788 16.9135 1.125 19.693 1.125 22.5Z" stroke="#9C8E46" stroke-width="2" stroke-linecap="round" stroke-linejoin="round"/>
<path d="M10.625 18.9375C10.625 17.9927 11.0003 17.0865 11.6684 16.4184C12.3365 15.7503 13.2427 15.375 14.1875 15.375C15.1323 15.375 16.0385 15.7503 16.7066 16.4184C17.3747 17.0865 17.75 17.9927 17.75 18.9375C17.75 19.9896 17.0066 21.2864 16.2965 22.2459L10.625 29.625H17.75" stroke="#9C8E46" stroke-width="2" stroke-linecap="round" stroke-linejoin="round"/>
</svg>
