<svg xmlns="http://www.w3.org/2000/svg" viewBox="0 0 53 53" style="enable-background:new 0 0 53 53" xml:space="preserve"><g fill="#fff"><path d="M23.5 25c0-3.859-3.14-7-7-7s-7 3.141-7 7 3.14 7 7 7 7-3.141 7-7zm-7 5c-2.757 0-5-2.243-5-5s2.243-5 5-5 5 2.243 5 5-2.243 5-5 5zM36.5 18c-3.86 0-7 3.141-7 7s3.14 7 7 7 7-3.141 7-7-3.14-7-7-7zm0 12c-2.757 0-5-2.243-5-5s2.243-5 5-5 5 2.243 5 5-2.243 5-5 5z"/><path d="M43.5 6h-9V2.306A2.308 2.308 0 0 0 32.195 0h-11.39A2.308 2.308 0 0 0 18.5 2.306V6h-9c-2.757 0-5 2.243-5 5v33c0 2.757 2.243 5 5 5h3v1.694A2.308 2.308 0 0 0 14.805 53h23.39a2.308 2.308 0 0 0 2.305-2.306V49h3c2.757 0 5-2.243 5-5V11c0-2.757-2.243-5-5-5zm-23-3.694c0-.169.137-.306.305-.306h11.39c.168 0 .305.137.305.306V6h-12V2.306zM30.5 12h3.586L26.5 19.586 18.914 12H22.5a1 1 0 0 0 1-1V8h6v3a1 1 0 0 0 1 1zm8 38.694a.306.306 0 0 1-.305.306h-23.39a.306.306 0 0 1-.305-.306V49h24v1.694zm8-6.694c0 1.654-1.346 3-3 3h-34c-1.654 0-3-1.346-3-3V11c0-1.654 1.346-3 3-3h12v2h-5a1 1 0 0 0-.707 1.707l10 10a.997.997 0 0 0 1.414 0l10-10A1 1 0 0 0 36.5 10h-5V8h12c1.654 0 3 1.346 3 3v33z"/><path d="M33.5 39h-14a1 1 0 1 0 0 2h14a1 1 0 1 0 0-2z"/></g></svg>