<svg xmlns="http://www.w3.org/2000/svg" data-name="Layer 1" viewBox="0 0 512 512"><path d="M320.822 335.362a6 6 0 0 0 2.192-9.882L279.5 281.965a44.282 44.282 0 0 0-61.846-61.847l-43.52-43.518a6 6 0 0 0-9.882 2.192l-35.822 98.514a237.144 237.144 0 0 1-54.816 86.071 25.14 25.14 0 0 0 0 35.555L100.683 426a25.139 25.139 0 0 0 35.554 0c.165-.165.336-.323.5-.488l55.979 55.98a6 6 0 0 0 8.485 0 44.331 44.331 0 0 0 0-62.624l-24.942-24.942a235.979 235.979 0 0 1 46.048-22.742Zm-54.341-102.229a32.286 32.286 0 0 1 4.384 40.2l-44.578-44.578a32.332 32.332 0 0 1 40.194 4.378ZM118.46 421.365a13.055 13.055 0 0 1-9.292-3.849L82.1 390.446a13.139 13.139 0 0 1 0-18.583q7.013-7.014 13.452-14.606l46.806 46.806q-7.578 6.437-14.605 13.453a13.055 13.055 0 0 1-9.293 3.849Zm74.258 5.989a32.3 32.3 0 0 1 3.851 41.02l-51.1-51.1a236.411 236.411 0 0 1 20.661-16.507Zm-40.966-30.866-48.625-48.626a249.174 249.174 0 0 0 36.58-66.456l32.6-89.658L307.867 327.3l-89.659 32.6a249.164 249.164 0 0 0-66.456 36.588Z" fill="#fff"/><path d="M308.979 203.5a65.1 65.1 0 0 0-70.466-14.376A6 6 0 1 0 243 200.256a53.195 53.195 0 0 1 69.218 69.219 6 6 0 1 0 11.131 4.484 65.091 65.091 0 0 0-14.37-70.459Z" fill="#fff"/><path d="M344.734 288.438a6 6 0 0 0 7.808-3.324 96.2 96.2 0 0 0-125.184-125.183 6 6 0 1 0 4.485 11.13A84.2 84.2 0 0 1 341.411 280.63a6 6 0 0 0 3.323 7.808ZM411.625 10A90.375 90.375 0 1 0 502 100.375 90.477 90.477 0 0 0 411.625 10Zm0 168.75A78.375 78.375 0 1 1 490 100.375a78.464 78.464 0 0 1-78.375 78.375Z" fill="#fff"/><path d="M444.087 89.879a22.437 22.437 0 1 0-22.434-22.532l-27.825 16.069a22.436 22.436 0 1 0-.577 34.4l28.528 17.875a22.454 22.454 0 1 0 2.378-12.672l-23.908-14.98a22.41 22.41 0 0 0 .243-14.617l24.533-14.168a22.439 22.439 0 0 0 19.062 10.625Zm0-32.873a10.437 10.437 0 1 1-10.436 10.437 10.449 10.449 0 0 1 10.436-10.437Zm-64.924 53.806a10.437 10.437 0 1 1 10.437-10.437 10.449 10.449 0 0 1-10.437 10.437Zm64.924 12.059a10.437 10.437 0 1 1-10.436 10.436 10.448 10.448 0 0 1 10.436-10.436ZM411.625 321.25A90.375 90.375 0 1 0 502 411.625a90.477 90.477 0 0 0-90.375-90.375Zm0 168.75A78.375 78.375 0 1 1 490 411.625 78.464 78.464 0 0 1 411.625 490Z" fill="#fff"/><path d="m448.731 406.522-49.15-30.4a6 6 0 0 0-9.156 5.1v60.8a6 6 0 0 0 9.156 5.1l49.15-30.4a6 6 0 0 0 0-10.206Zm-46.306 24.737v-39.268l31.744 19.634ZM100.375 190.75A90.375 90.375 0 1 0 10 100.375a90.477 90.477 0 0 0 90.375 90.375Zm0-168.75A78.375 78.375 0 1 1 22 100.375 78.464 78.464 0 0 1 100.375 22Z" fill="#fff"/><path d="M63.5 136.257h42.939a16.018 16.018 0 0 0 16-16v-.952l21.925 12.03a6 6 0 0 0 8.886-5.26v-51.4a6 6 0 0 0-8.887-5.259l-21.924 12.033v-.956a16.018 16.018 0 0 0-16-16H63.5a16.017 16.017 0 0 0-16 16v39.764a16.017 16.017 0 0 0 16 16Zm77.75-51.444v31.125l-18.811-10.321V95.138Zm-81.75-4.32a4 4 0 0 1 4-4h42.939a4 4 0 0 1 4 4v39.764a4 4 0 0 1-4 4H63.5a4 4 0 0 1-4-4Z" fill="#fff"/></svg>