<svg viewBox="-24 0 496 496" xmlns="http://www.w3.org/2000/svg"><path d="m433.273 270.441-3.609-7.8A202.78 202.78 0 0 0 432 232v-8H224v208h8c27.527 0 54.93-5.762 80-16.68v.68c0 12.047 3.984 23.977 11.2 33.594l12.8 17.07V496h80v-30.8l24.969-81.145A158.858 158.858 0 0 0 448 337.289c0-22.93-5.098-46.05-14.727-66.848zM240 415.832V240h175.832c-1.664 39.129-15.625 76-39.832 106.367V344c0-17.648-14.352-32-32-32s-32 14.352-32 32v53.672c-22.625 10.969-46.777 17.105-72 18.16zm185.672-36.473-25.32 82.29L400 480h-48v-18.664l-16-21.344c-5.16-6.863-8-15.39-8-23.992v-72c0-8.824 7.176-16 16-16s16 7.176 16 16v64h16v-37.29c22.441-23.276 38.633-51.038 47.648-81.253C429.07 304.793 432 321.07 432 337.289c0 14.277-2.129 28.43-6.328 42.07zm0 0" fill="#fff"/><path d="M400 200C400 89.719 310.281 0 200 0S0 89.719 0 200s89.719 200 200 200h8V208h192zm-32.113-75.2-67.2 67.2h-49.375l98.59-98.586c6.985 9.793 13 20.305 17.985 31.387zm-27.918-44.073L228.688 192H208v-28.688L314.902 56.406a185.787 185.787 0 0 1 25.067 24.32zM208 91.312l61.625-61.624c11.352 4.656 22.117 10.44 32.207 17.167L208 140.688zm0-22.624V16.199c15.543.672 30.602 3.258 44.922 7.57zm-16 315.144C94.238 379.625 16 298.777 16 200S94.238 20.406 192 16.2zM323.313 192l50.96-50.969c5.461 16.114 8.79 33.215 9.551 50.969zm0 0" fill="#fff"/><path d="M104 160c8.824 0 16 7.176 16 16h16c0-14.871-10.238-27.29-24-30.863V128H96v17.137C82.238 148.71 72 161.129 72 176c0 17.648 14.352 32 32 32 8.824 0 16 7.176 16 16s-7.176 16-16 16-16-7.176-16-16H72c0 14.871 10.238 27.29 24 30.863V272h16v-17.137c13.762-3.574 24-15.992 24-30.863 0-17.648-14.352-32-32-32-8.824 0-16-7.176-16-16s7.176-16 16-16zm0 0" fill="#fff"/></svg>