<svg viewBox="-1 0 511 512" xmlns="http://www.w3.org/2000/svg"><path d="M462.59 333.645c9.273-24.817 13.98-50.903 13.98-77.645 0-45.047-13.418-88.418-38.8-125.43-24.258-35.37-57.813-62.738-97.157-79.297C324.422 20.801 292.348 0 255.5 0c-36.41 0-68.164 20.312-84.531 50.2-40.012 16.245-74.188 43.593-98.953 79.234C46.12 166.695 32.438 210.46 32.438 256c0 26.742 4.707 52.828 13.98 77.645C18.891 350.617.5 381.043.5 415.687.5 468.793 43.707 512 96.813 512c35.074 0 65.824-18.848 82.664-46.945 24.023 8.629 49.23 13.011 75.027 13.011s51.004-4.382 75.027-13.011c16.84 28.097 47.59 46.945 82.664 46.945 53.106 0 96.313-43.207 96.313-96.313 0-34.644-18.39-65.07-45.918-82.042zM255.5 14.973c44.852 0 81.344 36.488 81.344 81.34 0 22.824-9.465 43.468-24.656 58.253-7.391-10.796-18.051-18.925-30.235-23.265 6.176-6.531 9.977-15.332 9.977-25.008V64.906c0-11.574-9.414-20.992-20.993-20.992h-29.73l-11.52-5.3a7.48 7.48 0 0 0-10.613 6.796v60.883c0 9.68 3.801 18.48 9.98 25.012-12.183 4.34-22.847 12.465-30.238 23.261-15.191-14.785-24.656-35.43-24.656-58.254 0-44.851 36.492-81.34 81.34-81.34zm21.46 54.89h-42.917V57.098l2.395 1.101c.984.453 2.05.688 3.132.688h31.368c3.32 0 6.023 2.699 6.023 6.02zm-42.917 14.973h42.918v21.457c0 11.832-9.629 21.457-21.461 21.457-11.828 0-21.457-9.625-21.457-21.457zm15.469 57.887h11.98c15.824 0 30.547 8.195 39.016 21.3-12.899 8.602-28.375 13.63-45.008 13.63-16.629 0-32.105-5.028-45.004-13.63 8.469-13.105 23.192-21.3 39.016-21.3zM52.25 483.687c8.547-12.84 22.824-20.593 38.574-20.593h11.977c15.746 0 30.004 7.77 38.554 20.605-12.804 8.414-28.109 13.328-44.542 13.328-16.446 0-31.754-4.918-44.563-13.34zm66.02-93.449H75.355v-12.765l2.395 1.101a7.51 7.51 0 0 0 3.129.684h31.371c3.32 0 6.02 2.703 6.02 6.023zm-42.915 14.969h42.915v21.461c0 11.832-9.625 21.457-21.457 21.457s-21.458-9.625-21.458-21.457zm77.75 69.113c-7.39-10.625-17.796-18.496-29.78-22.71 6.14-6.524 9.917-15.297 9.917-24.942v-41.387c0-11.578-9.418-20.992-20.992-20.992H82.52L71 358.984a7.49 7.49 0 0 0-10.617 6.801v60.883c0 9.645 3.773 18.418 9.914 24.941-11.98 4.215-22.39 12.082-29.781 22.711-15.418-14.812-25.043-35.613-25.043-58.632 0-44.852 36.488-81.34 81.34-81.34s81.34 36.488 81.34 81.34c0 23.019-9.63 43.82-25.048 58.632zm101.399-11.226c-23.473 0-46.41-3.887-68.309-11.543a95.823 95.823 0 0 0 6.93-35.863c0-53.106-43.207-96.313-96.312-96.313a95.772 95.772 0 0 0-36.973 7.387c-8.242-22.645-12.43-46.41-12.43-70.762 0-42.469 12.758-83.281 36.899-118.023 20.195-29.059 47.09-52.207 78.457-67.696a96.094 96.094 0 0 0-3.575 26.031c0 53.106 43.204 96.313 96.309 96.313 53.11 0 96.313-43.207 96.313-96.313a96.094 96.094 0 0 0-3.258-24.855c30.777 15.684 57.125 38.79 76.87 67.582 23.665 34.508 36.173 74.95 36.173 116.961 0 24.352-4.188 48.117-12.43 70.762a95.772 95.772 0 0 0-36.973-7.387c-53.105 0-96.312 43.207-96.312 96.312a95.823 95.823 0 0 0 6.93 35.864c-21.899 7.656-44.836 11.543-68.31 11.543zm114.555 21.508c8.445-13.235 23.207-21.508 39.144-21.508h11.977c15.273 0 29.304 7.41 37.933 19.687-13.074 8.98-28.89 14.246-45.918 14.246-15.84 0-30.62-4.562-43.136-12.425zm66.59-57.934c0 11.832-9.626 21.457-21.458 21.457-11.832 0-21.457-9.625-21.457-21.457v-21.461h42.914zm38.925 41.152v-69.14c0-29.97-24.383-54.352-54.351-54.352h-12.059c-29.973 0-54.355 24.383-54.355 54.352v7.277a7.484 7.484 0 0 0 7.488 7.484 7.483 7.483 0 0 0 7.484-7.484v-7.277c0-21.715 17.664-39.383 39.383-39.383h12.059c21.715 0 39.379 17.668 39.379 39.383v63.77a61.018 61.018 0 0 0-18.914-10.821c6.152-6.524 9.933-15.309 9.933-24.961v-24.125c0-6.785-5.52-12.305-12.305-12.305H390.07c-6.785 0-12.308 5.52-12.308 12.305v24.125c0 9.676 3.8 18.477 9.976 25.004a61.819 61.819 0 0 0-18.957 10.848v-26.622a7.485 7.485 0 0 0-7.484-7.484 7.486 7.486 0 0 0-7.488 7.484v36.34c-14.192-14.648-22.954-34.59-22.954-56.55 0-44.852 36.489-81.34 81.34-81.34 44.852 0 81.34 36.488 81.34 81.34 0 19.824-7.133 38.003-18.96 52.132zm0 0" fill="#fff"/><path d="M334.848 332.82v-11.699a7.485 7.485 0 0 0-7.485-7.484 7.486 7.486 0 0 0-7.488 7.484v11.7c0 8.546-6.953 15.5-15.5 15.5h-54.363v-11.227h4.93c7.738 0 14.035-6.297 14.035-14.035v-12.856c0-7.738-6.297-14.031-14.036-14.031h-4.93v-21.344c0-2.754 1.973-5.094 4.489-5.332a5.001 5.001 0 0 1 3.855 1.277 4.944 4.944 0 0 1 1.637 3.692v3.293c0 6.988 5.688 12.676 12.676 12.676h15.57c6.989 0 12.676-5.688 12.676-12.676v-3.293c0-12.453-4.918-24.113-13.848-32.836-8.925-8.719-20.707-13.34-33.164-13.063-24.71.586-44.808 21.497-44.808 46.618v73.136h-2.465c-8.547 0-15.5-6.953-15.5-15.5v-97.75c0-8.543 6.953-15.5 15.5-15.5h97.746c8.547 0 15.5 6.957 15.5 15.5v56.11a7.487 7.487 0 1 0 14.973 0v-56.11c0-16.8-13.672-30.468-30.473-30.468h-97.746c-16.8 0-30.473 13.668-30.473 30.468v97.75c0 16.801 13.672 30.47 30.473 30.47h6.668c5.937 0 10.766-4.83 10.766-10.767v-77.34c0-17.058 13.542-31.257 30.19-31.648 8.403-.215 16.333 2.926 22.352 8.805s9.336 13.738 9.336 22.125v.996h-10.976v-.996a20.015 20.015 0 0 0-6.531-14.762 20.039 20.039 0 0 0-15.332-5.11c-10.13.95-18.059 9.84-18.059 20.235v28.828a7.486 7.486 0 0 0 7.484 7.489h11.477v10.976h-11.477a7.485 7.485 0 0 0-7.484 7.484v22.918c0 5.938 4.828 10.766 10.766 10.766h58.566c16.8 0 30.473-13.668 30.473-30.469zm0 0" fill="#fff"/></svg>