<svg xmlns="http://www.w3.org/2000/svg" viewBox="0 0 512 512" style="enable-background:new 0 0 512 512" xml:space="preserve"><path d="M416 43.5H27.5C12.336 43.5 0 55.837 0 71v35.5c0 4.143 3.358 7.5 7.5 7.5s7.5-3.357 7.5-7.5V71c0-6.893 5.607-12.5 12.5-12.5H416c4.143 0 7.5-3.357 7.5-7.5s-3.357-7.5-7.5-7.5z" fill="#fff"/><path d="M504.5 370.5c4.143 0 7.5-3.357 7.5-7.5V71c0-15.163-12.337-27.5-27.5-27.5h-36.833c-4.143 0-7.5 3.357-7.5 7.5s3.357 7.5 7.5 7.5H484.5c6.893 0 12.5 5.607 12.5 12.5v162.7c-.819-.118-1.649-.2-2.5-.2H482V81c0-4.143-3.357-7.5-7.5-7.5h-437A7.5 7.5 0 0 0 30 81v280a7.5 7.5 0 0 0 7.5 7.5H351v15H27.5c-6.893 0-12.5-5.607-12.5-12.5V140c0-4.143-3.358-7.5-7.5-7.5S0 135.857 0 140v231c0 15.163 12.336 27.5 27.5 27.5h171v25h-58.75c-6.009 0-11.661 2.343-15.913 6.597A22.343 22.343 0 0 0 117.25 446c0 12.406 10.093 22.5 22.5 22.5H494.5c9.649 0 17.5-7.851 17.5-17.5v-56.25c0-4.143-3.357-7.5-7.5-7.5s-7.5 3.357-7.5 7.5v18.75H366V251c0-1.379 1.121-2.5 2.5-2.5h126c1.379 0 2.5 1.121 2.5 2.5v112c0 4.143 3.357 7.5 7.5 7.5zm-191 28H351v25h-37.5v-25zm-100 0h85v25h-85v-25zm-73.75 55c-4.136 0-7.5-3.364-7.5-7.5 0-2.001.779-3.882 2.194-5.297a7.453 7.453 0 0 1 5.306-2.203H351V451c0 .851.082 1.681.2 2.5H139.75zm357.25-25V451c0 1.379-1.121 2.5-2.5 2.5h-126a2.502 2.502 0 0 1-2.5-2.5v-22.5h131zm-30-195h-98.5c-9.649 0-17.5 7.851-17.5 17.5v102.5H45v-265h422v145z" fill="#fff"/><path d="M274.457 122.189H72.375a7.5 7.5 0 0 0-7.5 7.5v167.234a7.5 7.5 0 0 0 7.5 7.5h202.082c4.143 0 7.5-3.357 7.5-7.5V129.689a7.5 7.5 0 0 0-7.5-7.5zm-7.5 167.234H79.875V167.189h187.082v122.234zm0-137.234H79.875v-15h187.082v15zM438.64 122.189h-124a7.499 7.499 0 0 0-7.5 7.5v30c0 4.143 3.357 7.5 7.5 7.5h124c4.143 0 7.5-3.357 7.5-7.5v-30a7.5 7.5 0 0 0-7.5-7.5zm-7.5 30h-109v-15h109v15zM438.64 175.807h-124a7.499 7.499 0 0 0-7.5 7.5v30c0 4.143 3.357 7.5 7.5 7.5h124c4.143 0 7.5-3.357 7.5-7.5v-30a7.5 7.5 0 0 0-7.5-7.5zm-7.5 30h-109v-15h109v15zM474.5 261.5h-82a7.499 7.499 0 0 0-7.5 7.5v78c0 4.143 3.357 7.5 7.5 7.5h82c4.143 0 7.5-3.357 7.5-7.5v-78c0-4.143-3.357-7.5-7.5-7.5zm-7.5 78h-67v-63h67v63z" fill="#fff"/></svg>