<svg width="28" height="23" fill="none" xmlns="http://www.w3.org/2000/svg"><path d="M27.947 3a11.424 11.424 0 0 1-3.28.92A5.731 5.731 0 0 0 27.173.747a11.52 11.52 0 0 1-3.626 1.4C22.493 1 21.013.333 19.333.333c-3.133 0-5.693 2.56-5.693 5.72 0 .454.053.894.147 1.307A16.259 16.259 0 0 1 2 1.387a5.659 5.659 0 0 0-.773 2.866C1.227 6.24 2.227 8 3.773 9c-.946 0-1.826-.267-2.6-.667v.04a5.724 5.724 0 0 0 4.587 5.614c-.839.23-1.72.261-2.573.093a5.706 5.706 0 0 0 5.333 3.973 11.361 11.361 0 0 1-7.107 2.454c-.453 0-.906-.027-1.36-.08A16.192 16.192 0 0 0 8.827 23c10.506 0 16.28-8.72 16.28-16.28 0-.253 0-.493-.014-.747A11.43 11.43 0 0 0 27.947 3Z" fill="#510080"/></svg>