<svg width="32" height="32" viewBox="0 0 32 32" fill="none" xmlns="http://www.w3.org/2000/svg">
<path fill-rule="evenodd" clip-rule="evenodd" d="M7.74857 1.79883C6.1704 1.79883 4.65683 2.4256 3.54068 3.54132C2.42453 4.65704 1.79718 6.17037 1.79657 7.74854V23.6205C1.79657 25.1991 2.42365 26.713 3.53987 27.8292C4.65609 28.9455 6.17 29.5725 7.74857 29.5725H23.6206C25.1987 29.5719 26.7121 28.9446 27.8278 27.8284C28.9435 26.7123 29.5703 25.1987 29.5703 23.6205V7.74854C29.5697 6.17077 28.9426 4.65778 27.827 3.54213C26.7113 2.42647 25.1983 1.79943 23.6206 1.79883H7.74857ZM25.3326 7.75769C25.3326 8.21234 25.152 8.64838 24.8305 8.96987C24.509 9.29136 24.0729 9.47197 23.6183 9.47197C23.1636 9.47197 22.7276 9.29136 22.4061 8.96987C22.0846 8.64838 21.904 8.21234 21.904 7.75769C21.904 7.30303 22.0846 6.86699 22.4061 6.5455C22.7276 6.22401 23.1636 6.0434 23.6183 6.0434C24.0729 6.0434 24.509 6.22401 24.8305 6.5455C25.152 6.86699 25.3326 7.30303 25.3326 7.75769ZM15.6869 10.9303C14.4259 10.9303 13.2167 11.4312 12.3251 12.3228C11.4335 13.2144 10.9326 14.4236 10.9326 15.6845C10.9326 16.9455 11.4335 18.1547 12.3251 19.0463C13.2167 19.9379 14.4259 20.4388 15.6869 20.4388C16.9478 20.4388 18.157 19.9379 19.0486 19.0463C19.9402 18.1547 20.4411 16.9455 20.4411 15.6845C20.4411 14.4236 19.9402 13.2144 19.0486 12.3228C18.157 11.4312 16.9478 10.9303 15.6869 10.9303ZM8.64457 15.6845C8.64457 13.8174 9.38628 12.0268 10.7065 10.7065C12.0268 9.38625 13.8174 8.64454 15.6846 8.64454C17.5517 8.64454 19.3423 9.38625 20.6626 10.7065C21.9829 12.0268 22.7246 13.8174 22.7246 15.6845C22.7246 17.5517 21.9829 19.3423 20.6626 20.6626C19.3423 21.9828 17.5517 22.7245 15.6846 22.7245C13.8174 22.7245 12.0268 21.9828 10.7065 20.6626C9.38628 19.3423 8.64457 17.5517 8.64457 15.6845Z" fill="#BABABA"/>
</svg>
