<svg width="24" height="25" viewBox="0 0 24 25" fill="none" xmlns="http://www.w3.org/2000/svg">
<path fill-rule="evenodd" clip-rule="evenodd" d="M4.5 19H3.75C3.55109 19 3.36032 18.9239 3.21967 18.7885C3.07902 18.653 3 18.4693 3 18.2778V6.72222C3 6.53067 3.07902 6.34697 3.21967 6.21153C3.36032 6.07609 3.55109 5.99999 3.75 5.99999H4.5C4.69891 5.99999 4.88968 6.07609 5.03033 6.21153C5.17098 6.34697 5.25 6.53067 5.25 6.72222V18.2778C5.25 18.4693 5.17098 18.653 5.03033 18.7885C4.88968 18.9239 4.69891 19 4.5 19ZM3.75 21.1667H4.5C5.29565 21.1667 6.05871 20.8623 6.62132 20.3205C7.18393 19.7788 7.5 19.044 7.5 18.2778V6.72222C7.5 5.95604 7.18393 5.22124 6.62132 4.67946C6.05871 4.13769 5.29565 3.83333 4.5 3.83333H3.75C2.95435 3.83333 2.19129 4.13769 1.62868 4.67946C1.06607 5.22124 0.75 5.95604 0.75 6.72222V18.2778C0.75 19.044 1.06607 19.7788 1.62868 20.3205C2.19129 20.8623 2.95435 21.1667 3.75 21.1667ZM19.5 19H12.75C12.3522 19 11.9706 18.8478 11.6893 18.5769C11.408 18.306 11.25 17.9386 11.25 17.5555V7.44444C11.25 7.06135 11.408 6.69395 11.6893 6.42306C11.9706 6.15218 12.3522 5.99999 12.75 5.99999H19.5C19.8978 5.99999 20.2794 6.15218 20.5607 6.42306C20.842 6.69395 21 7.06135 21 7.44444V17.5555C21 17.9386 20.842 18.306 20.5607 18.5769C20.2794 18.8478 19.8978 19 19.5 19ZM12.75 21.1667H19.5C20.4946 21.1667 21.4484 20.7862 22.1516 20.109C22.8549 19.4318 23.25 18.5133 23.25 17.5555V7.44444C23.25 6.48671 22.8549 5.56821 22.1516 4.891C21.4484 4.21378 20.4946 3.83333 19.5 3.83333H12.75C11.7554 3.83333 10.8016 4.21378 10.0983 4.891C9.39509 5.56821 9 6.48671 9 7.44444V17.5555C9 18.5133 9.39509 19.4318 10.0983 20.109C10.8016 20.7862 11.7554 21.1667 12.75 21.1667Z" fill="#EF3F4F"/>
</svg>
