<svg width="24" height="25" viewBox="0 0 24 25" fill="none" xmlns="http://www.w3.org/2000/svg">
<path fill-rule="evenodd" clip-rule="evenodd" d="M14.76 5.06C14.3708 4.72057 13.3594 4.43429 12.0137 5.28114C7.71427 7.98972 3.96855 12.8754 2.7017 14.6463C2.60343 14.7836 2.47908 14.9002 2.33574 14.9895C2.1924 15.0788 2.03288 15.1389 1.8663 15.1666C1.69971 15.1942 1.52931 15.1887 1.36483 15.1505C1.20036 15.1122 1.04502 15.042 0.907697 14.9437C0.770372 14.8454 0.653746 14.7211 0.564479 14.5778C0.475212 14.4344 0.415052 14.2749 0.387433 14.1083C0.359814 13.9417 0.365278 13.7713 0.403512 13.6069C0.441746 13.4424 0.512002 13.287 0.610268 13.1497C1.89598 11.3549 5.88684 6.10057 10.644 3.104C12.7028 1.808 15 1.86286 16.4468 3.11772C17.1686 3.74343 17.6194 4.64343 17.6263 5.66514C17.6331 6.67829 17.2046 7.68286 16.4228 8.576C13.9766 11.3737 10.7451 15.1674 9.38741 17.0189C9.20913 17.2623 9.19713 17.4474 9.21255 17.5537C9.2297 17.6737 9.29313 17.7869 9.40113 17.8674C9.55079 17.9704 9.73442 18.0115 9.9137 17.9823C10.1537 17.9531 10.5308 17.8211 10.9903 17.4011C11.3777 17.0446 11.7806 16.664 12.1954 16.2749C13.4726 15.0731 14.8526 13.772 16.2343 12.7554C17.6708 11.6994 19.3508 11.4063 20.6246 12.1846C21.2606 12.5737 21.708 13.196 21.864 13.94C22.0183 14.6771 21.8708 15.4451 21.4988 16.1514C21.1011 16.9091 20.7548 17.4543 20.4446 17.9446L20.4206 17.984C20.1225 18.4393 19.8451 18.9078 19.5891 19.388C19.5323 19.4969 19.4992 19.6166 19.4921 19.7393C19.485 19.8619 19.5041 19.9847 19.548 20.0994C19.5891 20.2023 19.6286 20.252 19.6508 20.2726C19.8086 20.2846 19.9457 20.2451 20.1634 20.0771C20.4686 19.8389 20.8097 19.436 21.3223 18.764C21.5294 18.493 21.8356 18.3154 22.1737 18.2702C22.5117 18.2251 22.8539 18.316 23.1248 18.5231C23.3958 18.7302 23.5734 19.0365 23.6186 19.3745C23.6638 19.7126 23.5728 20.0547 23.3657 20.3257C22.8771 20.9651 22.3474 21.6354 21.7406 22.1086C21.0686 22.6297 20.2543 22.9469 19.2651 22.8166C18.18 22.676 17.4686 21.8394 17.1548 21.0389C16.9763 20.5815 16.8977 20.0913 16.9243 19.601C16.9509 19.1108 17.0821 18.6319 17.3091 18.1966C17.6348 17.5726 17.9434 17.0874 18.2366 16.6263L18.2726 16.568C18.576 16.0897 18.876 15.6149 19.224 14.9531C19.3697 14.6754 19.356 14.516 19.3457 14.4663C19.3431 14.4478 19.3362 14.4303 19.3255 14.4151C19.3147 14.3999 19.3005 14.3874 19.284 14.3789C19.2103 14.3326 18.6891 14.1423 17.7583 14.828C16.5137 15.7417 15.3017 16.8851 14.0554 18.0577C13.6183 18.4691 13.176 18.8857 12.7268 19.2971C11.1446 20.7474 9.2177 20.9411 7.8617 19.9263C6.5417 18.9389 6.17998 17.0463 7.31313 15.5C8.74798 13.5423 12.0566 9.66286 14.4874 6.884C14.952 6.35257 15.0566 5.93257 15.0548 5.68057C15.0549 5.56189 15.0287 5.44467 14.978 5.33736C14.9273 5.23005 14.8534 5.13532 14.7617 5.06H14.76ZM19.668 20.288L19.6628 20.2846C19.6663 20.2846 19.668 20.2863 19.668 20.288Z" fill="#EF3F4F"/>
</svg>
